<?xml version="1.0" encoding="UTF-8" standalone="no"?>
<svg
   xmlns:dc="http://purl.org/dc/elements/1.1/"
   xmlns:cc="http://creativecommons.org/ns#"
   xmlns:rdf="http://www.w3.org/1999/02/22-rdf-syntax-ns#"
   xmlns:svg="http://www.w3.org/2000/svg"
   xmlns="http://www.w3.org/2000/svg"
   id="svg1021"
   version="1.1"
   viewBox="0 0 169.33333 84.666662"
   height="320"
   width="640">
  <defs
     id="defs1015" />
  <metadata
     id="metadata1018">
    <rdf:RDF>
      <cc:Work
         rdf:about="">
        <dc:format>image/svg+xml</dc:format>
        <dc:type
           rdf:resource="http://purl.org/dc/dcmitype/StillImage" />
        <dc:title></dc:title>
      </cc:Work>
    </rdf:RDF>
  </metadata>
  <g
     transform="matrix(2.0252536,0,0,2.0252536,-0.20252404,-105.4321)"
     id="g848">
    <g
       id="layer1"
       transform="matrix(0.93437246,0,0,0.93437246,0.32003559,-27.205658)">
      <g
         id="g1751"
         transform="matrix(0.45669594,0,0,0.45669594,-11.041899,60.847347)">
        <path
           style="fill:#e5b62f;fill-opacity:1;fill-rule:nonzero;stroke:#e5b62f;stroke-width:0.4774465;stroke-linecap:butt;stroke-linejoin:miter;stroke-miterlimit:4;stroke-dasharray:none;stroke-dashoffset:0;stroke-opacity:1;paint-order:markers fill stroke"
           d="m 56.863889,87.985612 c -1.245468,-0.01183 -3.601847,0.03564 -3.601847,0.03564 -0.114287,0 -0.20619,0.09589 -0.20619,0.214976 v 1.46244 H 50.90973 v -1.46244 c 0,-0.1191 -0.0919,-0.214976 -0.206189,-0.214976 h -2.559017 c -0.114286,0 -0.206705,0.09589 -0.206705,0.214976 v 5.418788 c 0,0.1191 0.09235,0.214977 0.206705,0.214977 h 2.559017 c 0.114287,0 0.206189,-0.09587 0.206189,-0.214977 v -1.461923 h 2.146122 v 1.461923 c 0,0.1191 0.09191,0.214977 0.20619,0.214977 h 1.295011 v 6.895187 c -0.742529,0.29471 -1.265555,1.01661 -1.265555,1.86655 v 10.45001 c 0,1.11329 0.895885,2.00918 2.00918,2.00918 1.113292,0 2.009695,-0.89589 2.009695,-2.00918 v -10.45001 c 0,-0.84994 -0.523022,-1.57184 -1.265555,-1.86655 v -6.895187 h 1.402499 c 0.223398,-0.196684 0.438705,-0.985378 1.631942,-1.588534 3.204289,-1.100736 4.595703,1.625992 4.571295,1.249532 -0.02611,-0.401913 -0.203636,-2.922341 -3.001367,-4.400762 -1.218895,-0.548108 -2.652008,-1.086577 -3.038575,-1.108977 -0.03989,-0.02102 -0.331568,-0.03172 -0.746723,-0.03564 z"
           id="rect934" />
        <path
           style="fill:#336790;fill-opacity:1;fill-rule:nonzero;stroke:none;stroke-width:0.19989915;stroke-linecap:round;stroke-linejoin:round;stroke-miterlimit:4;stroke-dasharray:none;stroke-dashoffset:0;stroke-opacity:1;paint-order:markers fill stroke"
           d="m 59.665281,79.605246 c -1.099312,0.01828 -1.969648,0.473642 -2.497521,0.866095 -0.703832,0.523277 -0.929574,0.822626 -1.994194,0.825277 -1.06462,0.0027 -1.290873,-0.296205 -1.997295,-0.815972 -0.706421,-0.519766 -2.022679,-1.14672 -3.672644,-0.700215 -1.649965,0.446506 -2.470018,1.651613 -2.817916,2.456698 -0.347897,0.80508 -0.393465,1.177432 -1.314132,1.712036 -0.920666,0.534609 -1.266695,0.389926 -2.13837,0.293006 -0.871661,-0.09692 -2.325918,0.0172 -3.531568,1.228868 -1.205665,1.211665 -1.314089,2.667116 -1.212846,3.538286 0.101228,0.871175 0.247854,1.216089 -0.282153,2.139404 -0.530022,0.923314 -0.900427,0.969986 -1.703772,1.321884 -0.803345,0.351898 -2.005999,1.177126 -2.444296,2.829281 -0.438296,1.652161 0.197124,2.965197 0.72037,3.66903 0.523262,0.703833 0.822625,0.929572 0.825273,1.994196 0.0026,1.06462 -0.296213,1.29035 -0.815971,1.99677 -0.519773,0.70643 -1.146203,2.02269 -0.699699,3.67265 0.446504,1.64996 1.651089,2.47053 2.456181,2.81843 0.805077,0.3479 1.17743,0.39347 1.71204,1.31414 0.534596,0.92066 0.389929,1.26618 0.293006,2.13785 -0.09692,0.87166 0.01712,2.32643 1.228865,3.53208 1.211669,1.20565 2.667112,1.311 3.538286,1.20975 0.871174,-0.10126 1.21609,-0.24477 2.139405,0.28525 0.923314,0.53002 0.96998,0.90043 1.321882,1.70377 0.351903,0.80334 1.177131,2.00548 2.829285,2.44378 1.652155,0.43829 3.67799,-0.39906 3.669028,-0.72037 -0.0091,-0.3213 -1.365829,0.23152 -2.725932,-0.62425 -1.360103,-0.85577 -1.262319,-1.38407 -1.562179,-2.06861 -0.299861,-0.68453 -0.836256,-1.96976 -2.332674,-2.82876 -1.496404,-0.859 -2.876052,-0.67281 -3.618384,-0.58653 -0.742333,0.0863 -0.791945,0.23675 -1.558045,-0.52555 -0.7661,-0.76231 -0.613297,-0.81116 -0.530717,-1.55391 0.08259,-0.74275 0.260268,-2.12213 -0.606165,-3.61425 -0.866433,-1.49213 -2.153087,-2.02279 -2.839103,-2.31924 -0.686016,-0.29645 -0.803407,-0.18822 -1.085722,-1.23145 -0.282315,-1.04323 -0.129234,-1.01345 0.313676,-1.61541 0.442894,-0.60195 1.288974,-1.7064 1.284676,-3.43183 -0.0042,-1.725427 -0.855847,-2.828991 -1.30173,-3.428727 -0.445882,-0.599742 -0.600626,-0.566654 -0.323494,-1.611273 0.277117,-1.044619 0.396537,-0.936759 1.081071,-1.23662 0.684535,-0.299854 1.969763,-0.836259 2.828768,-2.332673 0.85899,-1.496409 0.672807,-2.876051 0.586528,-3.618385 -0.08624,-0.742328 -0.23624,-0.791936 0.526065,-1.558041 0.762306,-0.766106 0.810639,-0.616402 1.553394,-0.533819 0.74274,0.08258 2.122129,0.263369 3.61425,-0.603064 1.492121,-0.866434 2.020204,-2.153086 2.316655,-2.839103 0.29645,-0.686018 0.191317,-0.803408 1.234549,-1.085722 1.043233,-0.282314 1.012934,-0.129212 1.614888,0.313676 0.601956,0.442893 1.706409,1.288969 3.431833,1.284673 1.72543,-0.0043 2.825891,-0.855327 3.42563,-1.301209 0.599739,-0.445887 0.567168,-0.601134 1.611789,-0.324013 1.044619,0.27712 0.939345,0.396538 1.2392,1.081071 0.299857,0.684534 0.836779,1.969772 2.333191,2.828771 1.496414,0.858999 2.875536,0.67332 3.617867,0.587044 0.742334,-0.08628 0.791938,-0.236759 1.558044,0.525546 0.766107,0.762305 0.613818,0.810644 0.531236,1.553397 -0.08258,0.742748 -0.260784,2.122126 0.605648,3.614245 0.86643,1.492124 2.153086,2.020213 2.839103,2.316659 0.686017,0.296447 0.803923,0.191318 1.086239,1.23455 0.282313,1.043226 0.128696,1.012939 -0.314193,1.614885 -0.442896,0.601952 -1.288968,1.706403 -1.284676,3.431832 0.0043,1.72543 0.855845,2.82589 1.301729,3.42563 0.445883,0.59974 0.600615,0.56717 0.323496,1.61179 -0.277125,1.04462 -0.396539,0.93986 -1.081072,1.23972 -0.684536,0.29985 -1.96977,0.83626 -2.828769,2.33267 -0.858996,1.49642 -0.672804,2.87554 -0.586528,3.61787 0.08628,0.74233 0.236756,0.79194 -0.525548,1.55804 -0.762307,0.76611 -0.811159,0.61382 -1.553911,0.53124 -0.742751,-0.0826 -2.122128,-0.26027 -3.614251,0.60616 -1.492118,0.86644 -2.023308,2.15309 -2.319753,2.8391 -0.246329,0.57005 -0.222236,0.74776 -0.802536,0.95343 -0.08286,-0.046 -0.17925,-0.0898 -0.293521,-0.1328 -0.962139,-0.36199 -1.088237,0.12751 -1.877923,0.71571 -0.710128,0.52895 -1.218404,0.5911 -1.188558,1.28882 -0.06706,-0.007 -0.130334,-0.008 -0.180867,-0.002 -0.161229,0.0187 -0.224964,0.0454 -0.395841,-0.0527 -0.170875,-0.0981 -0.179305,-0.16656 -0.244429,-0.31522 -0.06513,-0.14868 -0.217729,-0.37158 -0.523484,-0.45269 -0.305771,-0.0811 -0.680696,0.0739 -0.679026,0.13332 0.0016,0.0594 0.252655,-0.0426 0.504361,0.11576 0.251707,0.15837 0.233379,0.25624 0.28887,0.38292 0.05548,0.1267 0.155085,0.36451 0.432017,0.52349 0.276934,0.15896 0.531828,0.12449 0.669208,0.10851 0.104899,-0.0122 0.136234,-0.0302 0.20774,0.0243 0.210754,0.72266 0.721156,0.6429 1.605587,0.97565 0.962139,0.36199 1.256184,0.7975 2.045869,0.20929 0.578536,-0.43092 0.52042,-0.74207 0.380855,-1.25005 1.285693,-0.53767 1.960354,-1.55784 2.267045,-2.26756 0.347901,-0.80508 0.393468,-1.17692 1.314133,-1.71153 0.920665,-0.5346 1.26619,-0.39043 2.137855,-0.29351 0.871664,0.0969 2.326431,-0.0167 3.532084,-1.22836 1.205653,-1.21166 1.313579,-2.66762 1.212329,-3.5388 -0.101259,-0.87117 -0.247349,-1.21557 0.28267,-2.13889 0.530016,-0.92331 0.90043,-0.9705 1.703771,-1.3224 0.803344,-0.35189 2.005486,-1.17661 2.443779,-2.82876 0.438293,-1.65216 -0.197101,-2.9652 -0.72037,-3.66903 -0.523275,-0.70383 -0.822109,-0.92957 -0.824755,-1.9942 -0.0026,-1.064617 0.296204,-1.290862 0.81597,-1.997291 0.519766,-0.706424 1.146207,-2.022685 0.699698,-3.672642 C 75.90923,93.54616 74.704122,92.726098 73.899037,92.3782 73.093955,92.030302 72.72212,91.984737 72.187513,91.064067 c -0.534601,-0.920664 -0.390437,-1.266702 -0.293521,-2.138366 0.09692,-0.87167 -0.0167,-2.325916 -1.228349,-3.531571 -1.211665,-1.20565 -2.667629,-1.314095 -3.538802,-1.212843 -0.87117,0.101258 -1.215573,0.247861 -2.138887,-0.282152 -0.923314,-0.530018 -0.970502,-0.900435 -1.3224,-1.703774 -0.351899,-0.803295 -1.176611,-2.00595 -2.828769,-2.444247 -0.413039,-0.109574 -0.805067,-0.151817 -1.171504,-0.145726 z"
           id="path944" />
      </g>
      <g
         id="g1747"
         transform="translate(0,-23.386941)">
        <g
           id="text1023"
           style="font-style:normal;font-weight:normal;font-size:8.98330784px;line-height:1.25;font-family:sans-serif;letter-spacing:0px;word-spacing:0px;fill:#336790;fill-opacity:1;stroke:none;stroke-width:0.22458273"
           aria-label="SETUP">
          <path
             id="path1713"
             style="font-style:normal;font-variant:normal;font-weight:bold;font-stretch:normal;font-size:8.98330784px;font-family:Monoid;-inkscape-font-specification:'Monoid Bold';font-variant-ligatures:normal;font-variant-caps:normal;font-variant-numeric:normal;font-feature-settings:normal;text-align:start;writing-mode:lr-tb;text-anchor:start;fill:#336790;fill-opacity:1;stroke-width:0.22458273"
             d="m 28.181456,134.80041 q -0.959155,0 -2.163948,-0.18715 v -1.42704 q 1.40949,0.21055 2.163948,0.21055 1.041034,0 1.041034,-1.11122 0,-0.30997 -0.152061,-0.58485 -0.146213,-0.28073 -0.415244,-0.386 -0.169607,-0.0643 -0.467881,-0.10527 -0.298274,-0.0409 -0.614093,-0.11697 -0.309971,-0.0819 -0.596548,-0.25149 -1.099519,-0.65503 -1.099519,-2.07037 0,-1.01179 0.643336,-1.70192 0.649184,-0.69012 1.660976,-0.69012 0.789548,0 2.163948,0.14621 v 1.40949 q -1.421188,-0.15206 -2.163948,-0.15206 -0.222243,0 -0.39185,0.0994 -0.163758,0.0994 -0.251486,0.25734 -0.08773,0.15791 -0.128667,0.32167 -0.03509,0.16375 -0.03509,0.32166 0,0.69013 0.46788,0.90067 0.152062,0.0702 0.690124,0.15791 0.543912,0.0819 0.877276,0.25734 0.467881,0.23979 0.772004,0.61994 0.304122,0.38015 0.421092,0.76616 0.11697,0.386 0.11697,0.80124 0,1.13461 -0.701821,1.82474 -0.701821,0.69012 -1.836431,0.69012 z" />
          <path
             id="path1715"
             style="font-style:normal;font-variant:normal;font-weight:bold;font-stretch:normal;font-size:8.98330784px;font-family:Monoid;-inkscape-font-specification:'Monoid Bold';font-variant-ligatures:normal;font-variant-caps:normal;font-variant-numeric:normal;font-feature-settings:normal;text-align:start;writing-mode:lr-tb;text-anchor:start;fill:#336790;fill-opacity:1;stroke-width:0.22458273"
             d="m 32.035622,126.47213 h 4.491654 v 1.40365 H 33.53284 v 1.98849 h 2.245827 v 1.40364 H 33.53284 v 2.03528 h 2.994436 v 1.40364 h -4.491654 z" />
          <path
             id="path1717"
             style="font-style:normal;font-variant:normal;font-weight:bold;font-stretch:normal;font-size:8.98330784px;font-family:Monoid;-inkscape-font-specification:'Monoid Bold';font-variant-ligatures:normal;font-variant-caps:normal;font-variant-numeric:normal;font-feature-settings:normal;text-align:start;writing-mode:lr-tb;text-anchor:start;fill:#336790;fill-opacity:1;stroke-width:0.22458273"
             d="m 42.884604,126.47213 v 1.40365 h -1.871523 v 6.83105 h -1.497218 v -6.83105 h -1.871522 v -1.40365 z" />
          <path
             id="path1719"
             style="font-style:normal;font-variant:normal;font-weight:bold;font-stretch:normal;font-size:8.98330784px;font-family:Monoid;-inkscape-font-specification:'Monoid Bold';font-variant-ligatures:normal;font-variant-caps:normal;font-variant-numeric:normal;font-feature-settings:normal;text-align:start;writing-mode:lr-tb;text-anchor:start;fill:#336790;fill-opacity:1;stroke-width:0.22458273"
             d="m 43.627365,126.47213 h 1.497218 v 5.24027 q 0,0.54976 0.04094,0.74861 0.08773,0.42109 0.374305,0.67842 0.292425,0.25734 0.707669,0.25734 0.415244,0 0.701821,-0.25734 0.292425,-0.25733 0.380153,-0.67842 0.04094,-0.19885 0.04094,-0.74861 v -5.24027 h 1.497218 v 5.24027 q 0,0.82464 -0.09358,1.22234 -0.198849,0.82463 -0.888973,1.34515 -0.684275,0.52052 -1.637582,0.52052 -0.953307,0 -1.643431,-0.52052 -0.684275,-0.52052 -0.883124,-1.34515 -0.09358,-0.3977 -0.09358,-1.22234 z" />
          <path
             id="path1721"
             style="font-style:normal;font-variant:normal;font-weight:bold;font-stretch:normal;font-size:8.98330784px;font-family:Monoid;-inkscape-font-specification:'Monoid Bold';font-variant-ligatures:normal;font-variant-caps:normal;font-variant-numeric:normal;font-feature-settings:normal;text-align:start;writing-mode:lr-tb;text-anchor:start;fill:#336790;fill-opacity:1;stroke-width:0.22458273"
             d="m 51.48191,127.87578 v 2.38619 h 0.362607 q 0.502972,0 0.731064,-0.0468 0.397698,-0.0819 0.631638,-0.39185 0.239789,-0.30997 0.239789,-0.75446 0,-0.44449 -0.239789,-0.75446 -0.23394,-0.30997 -0.631638,-0.39185 -0.228092,-0.0468 -0.731064,-0.0468 z m -1.497218,-1.40365 h 1.848128 q 0.865579,0 1.234035,0.0877 0.830488,0.19885 1.351006,0.87143 0.526365,0.66673 0.526365,1.63758 0,0.97085 -0.526365,1.64343 -0.520518,0.66673 -1.351006,0.86558 -0.368456,0.0877 -1.234035,0.0877 h -0.35091 v 3.04122 h -1.497218 z" />
        </g>
        <g
           id="text1661"
           style="font-style:normal;font-weight:normal;font-size:8.98330784px;line-height:1.25;font-family:sans-serif;letter-spacing:0px;word-spacing:0px;fill:#e5b62f;fill-opacity:1;stroke:none;stroke-width:0.22458273"
           aria-label="TOOLS">
          <path
             id="path1724"
             style="font-style:normal;font-variant:normal;font-weight:bold;font-stretch:normal;font-size:8.98330784px;font-family:Monoid;-inkscape-font-specification:'Monoid Bold';font-variant-ligatures:normal;font-variant-caps:normal;font-variant-numeric:normal;font-feature-settings:normal;text-align:start;writing-mode:lr-tb;text-anchor:start;fill:#e5b62f;fill-opacity:1;stroke-width:0.22458273"
             d="m 60.833675,126.47213 v 1.40365 h -1.871523 v 6.83105 h -1.497218 v -6.83105 h -1.871522 v -1.40365 z" />
          <path
             id="path1726"
             style="font-style:normal;font-variant:normal;font-weight:bold;font-stretch:normal;font-size:8.98330784px;font-family:Monoid;-inkscape-font-specification:'Monoid Bold';font-variant-ligatures:normal;font-variant-caps:normal;font-variant-numeric:normal;font-feature-settings:normal;text-align:start;writing-mode:lr-tb;text-anchor:start;fill:#e5b62f;fill-opacity:1;stroke-width:0.22458273"
             d="m 63.067804,129.08057 q -0.08773,0.47958 -0.08773,1.50891 0,1.02934 0.08773,1.50892 0.105274,0.5673 0.386002,0.93576 0.286577,0.36261 0.74276,0.36261 0.456184,0 0.736912,-0.36261 0.286577,-0.36846 0.39185,-0.93576 0.08773,-0.48543 0.08773,-1.50892 0,-1.02933 -0.08773,-1.50891 -0.105273,-0.56731 -0.39185,-0.92991 -0.280728,-0.36846 -0.736912,-0.36846 -0.456183,0 -0.74276,0.36846 -0.280728,0.3626 -0.386002,0.92991 z m -1.421187,3.55004 q -0.163758,-0.64918 -0.163758,-2.04113 0,-1.39194 0.163758,-2.04113 0.23394,-0.94745 0.883125,-1.5557 0.649184,-0.61409 1.666824,-0.61409 1.017641,0 1.666825,0.61409 0.649185,0.60825 0.883125,1.5557 0.163758,0.64919 0.163758,2.04113 0,1.39195 -0.163758,2.04113 -0.23394,0.94746 -0.883125,1.56155 -0.649184,0.60825 -1.666825,0.60825 -1.01764,0 -1.666824,-0.60825 -0.649185,-0.61409 -0.883125,-1.56155 z" />
          <path
             id="path1728"
             style="font-style:normal;font-variant:normal;font-weight:bold;font-stretch:normal;font-size:8.98330784px;font-family:Monoid;-inkscape-font-specification:'Monoid Bold';font-variant-ligatures:normal;font-variant-caps:normal;font-variant-numeric:normal;font-feature-settings:normal;text-align:start;writing-mode:lr-tb;text-anchor:start;fill:#e5b62f;fill-opacity:1;stroke-width:0.22458273"
             d="m 69.050828,129.08057 q -0.08773,0.47958 -0.08773,1.50891 0,1.02934 0.08773,1.50892 0.105273,0.5673 0.386001,0.93576 0.286577,0.36261 0.742761,0.36261 0.456183,0 0.736912,-0.36261 0.286576,-0.36846 0.39185,-0.93576 0.08773,-0.48543 0.08773,-1.50892 0,-1.02933 -0.08773,-1.50891 -0.105274,-0.56731 -0.39185,-0.92991 -0.280729,-0.36846 -0.736912,-0.36846 -0.456184,0 -0.742761,0.36846 -0.280728,0.3626 -0.386001,0.92991 z m -1.421188,3.55004 q -0.163758,-0.64918 -0.163758,-2.04113 0,-1.39194 0.163758,-2.04113 0.233941,-0.94745 0.883125,-1.5557 0.649184,-0.61409 1.666825,-0.61409 1.01764,0 1.666824,0.61409 0.649185,0.60825 0.883125,1.5557 0.163758,0.64919 0.163758,2.04113 0,1.39195 -0.163758,2.04113 -0.23394,0.94746 -0.883125,1.56155 -0.649184,0.60825 -1.666824,0.60825 -1.017641,0 -1.666825,-0.60825 -0.649184,-0.61409 -0.883125,-1.56155 z" />
          <path
             id="path1730"
             style="font-style:normal;font-variant:normal;font-weight:bold;font-stretch:normal;font-size:8.98330784px;font-family:Monoid;-inkscape-font-specification:'Monoid Bold';font-variant-ligatures:normal;font-variant-caps:normal;font-variant-numeric:normal;font-feature-settings:normal;text-align:start;writing-mode:lr-tb;text-anchor:start;fill:#e5b62f;fill-opacity:1;stroke-width:0.22458273"
             d="m 73.916786,134.70683 v -8.2347 h 1.497218 v 6.83106 h 3.368741 v 1.40364 z" />
          <path
             id="path1732"
             style="font-style:normal;font-variant:normal;font-weight:bold;font-stretch:normal;font-size:8.98330784px;font-family:Monoid;-inkscape-font-specification:'Monoid Bold';font-variant-ligatures:normal;font-variant-caps:normal;font-variant-numeric:normal;font-feature-settings:normal;text-align:start;writing-mode:lr-tb;text-anchor:start;fill:#e5b62f;fill-opacity:1;stroke-width:0.22458273"
             d="m 82.028666,134.80041 q -0.959155,0 -2.163948,-0.18715 v -1.42704 q 1.40949,0.21055 2.163948,0.21055 1.041034,0 1.041034,-1.11122 0,-0.30997 -0.152061,-0.58485 -0.146213,-0.28073 -0.415244,-0.386 -0.169607,-0.0643 -0.467881,-0.10527 -0.298274,-0.0409 -0.614093,-0.11697 -0.309971,-0.0819 -0.596548,-0.25149 -1.099519,-0.65503 -1.099519,-2.07037 0,-1.01179 0.643336,-1.70192 0.649184,-0.69012 1.660976,-0.69012 0.789548,0 2.163948,0.14621 v 1.40949 q -1.421188,-0.15206 -2.163948,-0.15206 -0.222243,0 -0.39185,0.0994 -0.163758,0.0994 -0.251486,0.25734 -0.08773,0.15791 -0.128667,0.32167 -0.03509,0.16375 -0.03509,0.32166 0,0.69013 0.46788,0.90067 0.152062,0.0702 0.690124,0.15791 0.543911,0.0819 0.877276,0.25734 0.467881,0.23979 0.772003,0.61994 0.304123,0.38015 0.421093,0.76616 0.11697,0.386 0.11697,0.80124 0,1.13461 -0.701821,1.82474 -0.701821,0.69012 -1.836431,0.69012 z" />
        </g>
      </g>
    </g>
  </g>
</svg>
