<?xml version="1.0" encoding="UTF-8" standalone="no"?>
<svg
   xmlns:dc="http://purl.org/dc/elements/1.1/"
   xmlns:cc="http://creativecommons.org/ns#"
   xmlns:rdf="http://www.w3.org/1999/02/22-rdf-syntax-ns#"
   xmlns:svg="http://www.w3.org/2000/svg"
   xmlns="http://www.w3.org/2000/svg"
   xmlns:xlink="http://www.w3.org/1999/xlink"
   xmlns:sodipodi="http://sodipodi.sourceforge.net/DTD/sodipodi-0.dtd"
   xmlns:inkscape="http://www.inkscape.org/namespaces/inkscape"
   width="153.08401mm"
   height="22.351141mm"
   viewBox="0 0 153.08402 22.351142"
   version="1.1"
   id="svg8"
   inkscape:version="1.0 (1.0+r73+1)"
   sodipodi:docname="setup_tools_logotype_1line.svg">
  <defs
     id="defs2">
    <linearGradient
       id="linearGradient1356"
       inkscape:collect="always">
      <stop
         id="stop1352"
         offset="0"
         style="stop-color:#ffd040;stop-opacity:1;" />
      <stop
         id="stop1354"
         offset="1"
         style="stop-color:#c59500;stop-opacity:1" />
    </linearGradient>
    <linearGradient
       inkscape:collect="always"
       id="linearGradient1346">
      <stop
         style="stop-color:#ffd040;stop-opacity:1;"
         offset="0"
         id="stop1342" />
      <stop
         style="stop-color:#c59500;stop-opacity:1"
         offset="1"
         id="stop1344" />
    </linearGradient>
    <linearGradient
       inkscape:collect="always"
       xlink:href="#linearGradient1346"
       id="linearGradient1348"
       x1="364.9838"
       y1="103.99801"
       x2="380.39404"
       y2="119.1796"
       gradientUnits="userSpaceOnUse"
       gradientTransform="translate(-1.5091231)" />
    <linearGradient
       inkscape:collect="always"
       xlink:href="#linearGradient1356"
       id="linearGradient1350"
       x1="364.9838"
       y1="103.99801"
       x2="380.39404"
       y2="119.1796"
       gradientUnits="userSpaceOnUse"
       gradientTransform="matrix(3.0856143,0,0,3.0856143,-977.53344,-249.20723)" />
    <linearGradient
       gradientUnits="userSpaceOnUse"
       y2="119.1796"
       x2="380.39404"
       y1="103.99801"
       x1="364.9838"
       id="linearGradient1348-1"
       xlink:href="#linearGradient1356"
       inkscape:collect="always"
       gradientTransform="matrix(3.7795276,0,0,3.7795276,-1370.9942,-384.33468)" />
    <linearGradient
       inkscape:collect="always"
       xlink:href="#linearGradient1346"
       id="linearGradient1389"
       gradientUnits="userSpaceOnUse"
       x1="383.75778"
       y1="110.35148"
       x2="425.11826"
       y2="166.39952"
       gradientTransform="translate(-0.09428005)" />
    <linearGradient
       y2="166.39952"
       x2="425.11826"
       y1="110.35148"
       x1="383.75778"
       gradientTransform="matrix(3.7795276,0,0,3.7795276,-1227.377,-330.32486)"
       gradientUnits="userSpaceOnUse"
       id="linearGradient1086"
       xlink:href="#linearGradient1346"
       inkscape:collect="always" />
    <linearGradient
       y2="166.39952"
       x2="425.11826"
       y1="110.35148"
       x1="383.75778"
       gradientTransform="matrix(1.8992984,0,0,1.8992984,-333.12947,-121.42763)"
       gradientUnits="userSpaceOnUse"
       id="linearGradient1224"
       xlink:href="#linearGradient1346"
       inkscape:collect="always" />
  </defs>
  <sodipodi:namedview
     inkscape:guide-bbox="true"
     showguides="true"
     id="base"
     pagecolor="#ffffff"
     bordercolor="#666666"
     borderopacity="1.0"
     inkscape:pageopacity="0.0"
     inkscape:pageshadow="2"
     inkscape:zoom="0.822847"
     inkscape:cx="195.14044"
     inkscape:cy="-7.273579"
     inkscape:document-units="mm"
     inkscape:current-layer="g1222"
     showgrid="false"
     inkscape:window-width="1920"
     inkscape:window-height="1016"
     inkscape:window-x="0"
     inkscape:window-y="27"
     inkscape:window-maximized="1"
     inkscape:snap-bbox="true"
     inkscape:bbox-nodes="true"
     inkscape:bbox-paths="true"
     inkscape:snap-bbox-edge-midpoints="true"
     inkscape:snap-bbox-midpoints="true"
     inkscape:document-rotation="0"
     inkscape:snap-global="false" />
  <metadata
     id="metadata5">
    <rdf:RDF>
      <cc:Work
         rdf:about="">
        <dc:format>image/svg+xml</dc:format>
        <dc:type
           rdf:resource="http://purl.org/dc/dcmitype/StillImage" />
        <dc:title></dc:title>
      </cc:Work>
    </rdf:RDF>
  </metadata>
  <g
     transform="translate(-293.37152,-116.6327)"
     inkscape:label="Layer 1"
     inkscape:groupmode="layer"
     id="layer1">
    <g
       id="g1399"
       transform="translate(0.04622687,-0.80180859)">
      <g
         id="g1222">
        <g
           transform="translate(-0.36620442,0.40535408)"
           id="g873">
          <path
             d="m 302.59023,121.31122 c -1.18799,0.0376 -2.15686,0.38742 -2.90718,1.0502 -0.7378,0.65026 -1.10613,1.50759 -1.10613,2.57053 0,0.72529 0.181,1.33198 0.54375,1.81968 0.36265,0.47519 0.79337,0.84965 1.29359,1.12478 0.51272,0.27512 1.15109,0.55646 1.9139,0.84409 0.82534,0.32512 1.46275,0.67602 1.91292,1.05117 0.46269,0.36265 0.69393,0.85582 0.69393,1.48107 0,0.7378 -0.27521,1.29435 -0.82544,1.66952 -0.53773,0.37513 -1.16898,0.56337 -1.89428,0.56337 -0.56273,0 -1.1694,-0.11965 -1.81968,-0.35728 -0.65026,-0.2501 -1.20682,-0.54986 -1.6695,-0.90002 l -0.80582,1.44476 c 0.58776,0.41268 1.26913,0.75644 2.04444,1.03155 0.77534,0.26261 1.58153,0.39357 2.41939,0.39357 0.90036,0 1.682,-0.16885 2.34478,-0.50645 0.67527,-0.33763 1.19397,-0.80008 1.55662,-1.38781 0.36266,-0.58776 0.54474,-1.24458 0.54474,-1.96986 0,-0.80035 -0.16258,-1.45616 -0.4878,-1.96887 -0.31262,-0.52521 -0.71267,-0.93237 -1.20037,-1.22 -0.47519,-0.3001 -1.06344,-0.57533 -1.76373,-0.82543 -0.93787,-0.35016 -1.66323,-0.70004 -2.17597,-1.05018 -0.5002,-0.36265 -0.74986,-0.82511 -0.74986,-1.38784 0,-0.57522 0.21181,-1.02539 0.63699,-1.35053 0.43767,-0.33764 1.02594,-0.50645 1.76374,-0.50645 0.48771,0 1.00642,0.0809 1.55665,0.24342 0.55023,0.16258 1.06894,0.37535 1.55665,0.63797 l 0.69489,-1.40649 c -1.25053,-0.72528 -2.60813,-1.08847 -4.07122,-1.08847 z m 9.75109,0.0756 v 13.56125 h 9.07878 v -1.76276 h -7.26009 v -4.18311 h 6.2472 v -1.7441 h -6.2472 v -4.12718 h 6.99706 v -1.7441 z m 13.72712,0 v 1.7441 h 3.54514 v 11.81715 h 1.81869 v -11.81715 h 3.63938 v -1.7441 z m 14.21394,0 v 8.81574 c 0,0.96289 0.21893,1.81923 0.6566,2.56954 0.45019,0.7378 1.06302,1.31379 1.83833,1.72645 0.77532,0.40016 1.63167,0.59968 2.56955,0.59968 0.95039,0 1.81384,-0.19952 2.58918,-0.59968 0.77531,-0.41266 1.38814,-0.98865 1.83833,-1.72645 0.45017,-0.75031 0.67525,-1.60665 0.67525,-2.56954 v -8.81574 h -1.78239 v 8.75981 c 0,0.60023 -0.14321,1.14353 -0.43088,1.63123 -0.28761,0.4877 -0.68762,0.86929 -1.20035,1.14442 -0.5002,0.27509 -1.06388,0.41319 -1.68914,0.41319 -0.60024,0 -1.14967,-0.13808 -1.64989,-0.41319 -0.4877,-0.28763 -0.87544,-0.66922 -1.16305,-1.14442 -0.28763,-0.4877 -0.43186,-1.031 -0.43186,-1.63123 v -8.75981 z m 16.37221,0 v 13.56125 h 1.81968 v -4.98892 h 2.00716 c 1.03793,0 1.89427,-0.20665 2.56955,-0.61933 0.68777,-0.41266 1.18191,-0.95077 1.48204,-1.61356 0.31262,-0.66276 0.46914,-1.37487 0.46914,-2.13768 0,-1.32554 -0.41944,-2.35781 -1.25728,-3.09561 -0.82534,-0.7378 -1.9753,-1.10615 -3.45093,-1.10615 z m 1.81968,1.7441 h 2.1004 c 0.90036,0 1.56331,0.25679 1.98849,0.7695 0.42518,0.5002 0.63797,1.0752 0.63797,1.72546 0,0.37515 -0.0879,0.76291 -0.26303,1.16305 -0.17511,0.38767 -0.46871,0.71913 -0.88139,0.99427 -0.40016,0.27509 -0.92501,0.41222 -1.57528,0.41222 h -2.00716 z"
             style="font-style:normal;font-variant:normal;font-weight:normal;font-stretch:normal;font-size:9.87613px;line-height:1.25;font-family:'Josefin Sans';-inkscape-font-specification:'Josefin Sans Bold';letter-spacing:1.30175px;fill:#376d9c;fill-opacity:1;stroke:none;stroke-width:0.468944"
             id="path1059" />
          <path
             d="m 389.51096,121.27344 c -1.25052,0 -2.40664,0.31919 -3.46958,0.95696 -1.05043,0.62526 -1.88833,1.46929 -2.51359,2.53224 -0.62525,1.06294 -0.93831,2.21388 -0.93831,3.4519 0,1.27551 0.30592,2.44491 0.91867,3.50785 0.62527,1.05042 1.4703,1.8812 2.53323,2.49395 1.06294,0.61277 2.21906,0.91966 3.46958,0.91966 1.238,0 2.38895,-0.30689 3.4519,-0.91966 1.07544,-0.62525 1.92564,-1.4693 2.55089,-2.53224 0.62525,-1.06293 0.9373,-2.21905 0.9373,-3.46956 0,-1.23802 -0.31821,-2.38896 -0.95595,-3.4519 -0.62527,-1.06295 -1.46932,-1.90698 -2.53224,-2.53224 -1.06295,-0.63777 -2.2139,-0.95696 -3.4519,-0.95696 z m 18.54818,0 c -1.25051,0 -2.40762,0.31919 -3.47055,0.95696 -1.05044,0.62526 -1.88834,1.46929 -2.5136,2.53224 -0.62523,1.06294 -0.93731,2.21388 -0.93731,3.4519 0,1.27551 0.30592,2.44491 0.91867,3.50785 0.62525,1.05042 1.4693,1.8812 2.53224,2.49395 1.06293,0.61277 2.22004,0.91966 3.47055,0.91966 1.238,0 2.38797,-0.30689 3.45092,-0.91966 1.07544,-0.62525 1.92562,-1.4693 2.55089,-2.53224 0.62526,-1.06293 0.93831,-2.21905 0.93831,-3.46956 0,-1.23802 -0.3192,-2.38896 -0.95697,-3.4519 -0.62524,-1.06295 -1.46929,-1.90698 -2.53223,-2.53224 -1.06295,-0.63777 -2.21292,-0.95696 -3.45092,-0.95696 z m 30.24853,0.0756 c -1.18799,0.0374 -2.15686,0.38742 -2.90718,1.05018 -0.7378,0.65028 -1.10712,1.5066 -1.10712,2.56954 0,0.7253 0.18101,1.33198 0.54375,1.81968 0.36264,0.4752 0.79437,0.85066 1.29459,1.12577 0.51271,0.27511 1.15108,0.55646 1.9139,0.84409 0.82536,0.32512 1.46274,0.67503 1.91292,1.05019 0.4627,0.36264 0.69392,0.85678 0.69392,1.48205 0,0.7378 -0.27521,1.29435 -0.82543,1.66952 -0.53773,0.37515 -1.16898,0.56238 -1.89429,0.56238 -0.56272,0 -1.16939,-0.11871 -1.81968,-0.35627 -0.65026,-0.2501 -1.20683,-0.54989 -1.6695,-0.90004 l -0.8068,1.44377 c 0.58776,0.41268 1.26913,0.75742 2.04446,1.03253 0.77531,0.26262 1.5825,0.39358 2.42035,0.39358 0.90037,0 1.682,-0.16885 2.34478,-0.50645 0.67528,-0.33762 1.194,-0.80008 1.55663,-1.38782 0.36265,-0.58776 0.54375,-1.24455 0.54375,-1.96986 0,-0.80032 -0.16258,-1.45714 -0.4878,-1.96983 -0.31264,-0.52524 -0.71265,-0.9314 -1.20035,-1.21901 -0.47521,-0.30013 -1.06247,-0.57534 -1.76276,-0.82544 -0.9379,-0.35015 -1.66326,-0.70006 -2.17597,-1.0502 -0.50022,-0.36265 -0.75083,-0.82511 -0.75083,-1.38783 0,-0.57524 0.21278,-1.02539 0.63795,-1.35052 0.43768,-0.33764 1.02593,-0.50646 1.76375,-0.50646 0.4877,0 1.00642,0.0809 1.55664,0.24341 0.55023,0.16258 1.06895,0.37536 1.55663,0.63797 l 0.69393,-1.40745 c -1.25052,-0.72531 -2.60713,-1.08748 -4.07024,-1.08748 z m -68.67582,0.0746 v 1.74509 h 3.54514 v 11.81714 h 1.81968 v -11.81714 h 3.63839 v -1.74509 z m 50.89712,0 v 13.56223 h 8.72249 v -1.76375 h -6.90281 v -11.79848 z m -31.01801,1.59492 c 0.92537,0 1.77556,0.23124 2.55089,0.69391 0.77531,0.4627 1.38814,1.09395 1.83831,1.89428 0.45021,0.80033 0.67528,1.66992 0.67528,2.60781 0,0.93789 -0.22507,1.80652 -0.67528,2.60685 -0.43766,0.78781 -1.04435,1.41391 -1.81968,1.8766 -0.7628,0.45019 -1.60685,0.67526 -2.53224,0.67526 -0.92538,0 -1.78171,-0.23122 -2.56954,-0.69391 -0.77531,-0.46269 -1.38814,-1.08878 -1.83833,-1.8766 -0.45017,-0.78783 -0.67526,-1.64415 -0.67526,-2.56955 0,-0.93789 0.21893,-1.80651 0.65661,-2.60684 0.45019,-0.80033 1.06301,-1.43257 1.83835,-1.89525 0.77531,-0.47519 1.62551,-0.71256 2.55089,-0.71256 z m 18.54818,0 c 0.92538,0 1.77556,0.23124 2.55089,0.69391 0.77532,0.4627 1.38814,1.09395 1.83834,1.89428 0.45017,0.80033 0.67525,1.66992 0.67525,2.60781 0,0.93789 -0.22508,1.80652 -0.67525,2.60685 -0.43768,0.78781 -1.04437,1.41391 -1.81968,1.8766 -0.76282,0.45019 -1.60687,0.67526 -2.53226,0.67526 -0.92538,0 -1.7817,-0.23122 -2.56954,-0.69391 -0.77532,-0.46269 -1.38814,-1.08878 -1.83832,-1.8766 -0.45019,-0.78783 -0.67527,-1.64415 -0.67527,-2.56955 0,-0.93789 0.21893,-1.80651 0.65662,-2.60684 0.45017,-0.80033 1.063,-1.43257 1.83833,-1.89525 0.77532,-0.47519 1.62552,-0.71256 2.55089,-0.71256 z"
             style="font-style:normal;font-variant:normal;font-weight:normal;font-stretch:normal;font-size:9.87613px;line-height:1.25;font-family:'Josefin Sans';-inkscape-font-specification:'Josefin Sans';font-variation-settings:normal;letter-spacing:1.30175px;vector-effect:none;fill:url(#linearGradient1224);fill-opacity:1;stroke:none;stroke-width:1.11694;stroke-linecap:butt;stroke-linejoin:miter;stroke-miterlimit:4;stroke-dasharray:none;stroke-dashoffset:0;stroke-opacity:1;stop-color:#000000"
             id="path1070" />
        </g>
      </g>
    </g>
  </g>
</svg>
