<?xml version="1.0" encoding="UTF-8" standalone="no"?>
<svg
   xmlns:dc="http://purl.org/dc/elements/1.1/"
   xmlns:cc="http://creativecommons.org/ns#"
   xmlns:rdf="http://www.w3.org/1999/02/22-rdf-syntax-ns#"
   xmlns:svg="http://www.w3.org/2000/svg"
   xmlns="http://www.w3.org/2000/svg"
   xmlns:xlink="http://www.w3.org/1999/xlink"
   xmlns:sodipodi="http://sodipodi.sourceforge.net/DTD/sodipodi-0.dtd"
   xmlns:inkscape="http://www.inkscape.org/namespaces/inkscape"
   inkscape:export-ydpi="199.66046"
   inkscape:export-xdpi="199.66046"
   inkscape:export-filename="/home/crogers/Dropbox/current_projects/floss_for_science_podcast/setuptools_logo/setup_tools_logo_colour_banner_1line_1000px.png"
   sodipodi:docname="setup_tools_logo_colour_banner_1line.svg"
   inkscape:version="1.0 (1.0+r73+1)"
   id="svg8"
   version="1.1"
   viewBox="0 0 127.21598 34.281804"
   height="34.281803mm"
   width="127.21597mm">
  <defs
     id="defs2">
    <linearGradient
       id="linearGradient1362"
       inkscape:collect="always">
      <stop
         id="stop1358"
         offset="0"
         style="stop-color:#336790;stop-opacity:1" />
      <stop
         id="stop1360"
         offset="1"
         style="stop-color:#396f9e;stop-opacity:1" />
    </linearGradient>
    <linearGradient
       inkscape:collect="always"
       id="linearGradient1356">
      <stop
         style="stop-color:#ffd040;stop-opacity:1;"
         offset="0"
         id="stop1352" />
      <stop
         style="stop-color:#c59500;stop-opacity:1"
         offset="1"
         id="stop1354" />
    </linearGradient>
    <linearGradient
       id="linearGradient1346"
       inkscape:collect="always">
      <stop
         id="stop1342"
         offset="0"
         style="stop-color:#ffd040;stop-opacity:1;" />
      <stop
         id="stop1344"
         offset="1"
         style="stop-color:#c59500;stop-opacity:1" />
    </linearGradient>
    <linearGradient
       gradientTransform="translate(-1.5091231)"
       gradientUnits="userSpaceOnUse"
       y2="119.1796"
       x2="380.39404"
       y1="103.99801"
       x1="364.9838"
       id="linearGradient1348"
       xlink:href="#linearGradient1346"
       inkscape:collect="always" />
    <linearGradient
       gradientTransform="matrix(3.0856143,0,0,3.0856143,-977.53344,-249.20723)"
       gradientUnits="userSpaceOnUse"
       y2="119.1796"
       x2="380.39404"
       y1="103.99801"
       x1="364.9838"
       id="linearGradient1350"
       xlink:href="#linearGradient1356"
       inkscape:collect="always" />
    <linearGradient
       gradientTransform="matrix(3.7795276,0,0,3.7795276,-1370.9942,-384.33468)"
       inkscape:collect="always"
       xlink:href="#linearGradient1356"
       id="linearGradient1348-1"
       x1="364.9838"
       y1="103.99801"
       x2="380.39404"
       y2="119.1796"
       gradientUnits="userSpaceOnUse" />
    <linearGradient
       gradientTransform="translate(-0.09428005)"
       y2="166.39952"
       x2="425.11826"
       y1="110.35148"
       x1="383.75778"
       gradientUnits="userSpaceOnUse"
       id="linearGradient1389"
       xlink:href="#linearGradient1346"
       inkscape:collect="always" />
    <linearGradient
       inkscape:collect="always"
       xlink:href="#linearGradient1346"
       id="linearGradient1086"
       gradientUnits="userSpaceOnUse"
       gradientTransform="matrix(3.7795276,0,0,3.7795276,-1227.377,-330.32486)"
       x1="383.75778"
       y1="110.35148"
       x2="425.11826"
       y2="166.39952" />
    <linearGradient
       inkscape:collect="always"
       xlink:href="#linearGradient1346"
       id="linearGradient1109"
       gradientUnits="userSpaceOnUse"
       gradientTransform="translate(-50.518893,20.912766)"
       x1="364.9838"
       y1="103.99801"
       x2="380.39404"
       y2="119.1796" />
    <linearGradient
       inkscape:collect="always"
       xlink:href="#linearGradient1362"
       id="linearGradient1203"
       gradientUnits="userSpaceOnUse"
       gradientTransform="translate(-50.613405,20.912779)"
       x1="372.85818"
       y1="111.95531"
       x2="360.05417"
       y2="101.13023" />
    <linearGradient
       inkscape:collect="always"
       xlink:href="#linearGradient1356"
       id="linearGradient1214"
       gradientUnits="userSpaceOnUse"
       gradientTransform="matrix(3.6691687,0,0,3.6691687,-1309.7068,-327.43974)"
       x1="364.9838"
       y1="103.99801"
       x2="380.39404"
       y2="119.1796" />
    <linearGradient
       inkscape:collect="always"
       xlink:href="#linearGradient1346"
       id="linearGradient1224"
       gradientUnits="userSpaceOnUse"
       gradientTransform="matrix(1.2136807,0,0,1.2136807,-68.746066,-31.825309)"
       x1="383.75778"
       y1="110.35148"
       x2="425.11826"
       y2="166.39952" />
  </defs>
  <sodipodi:namedview
     inkscape:snap-global="false"
     inkscape:document-rotation="0"
     inkscape:snap-bbox-midpoints="true"
     inkscape:snap-bbox-edge-midpoints="true"
     inkscape:bbox-paths="true"
     inkscape:bbox-nodes="true"
     inkscape:snap-bbox="true"
     inkscape:window-maximized="1"
     inkscape:window-y="27"
     inkscape:window-x="0"
     inkscape:window-height="1016"
     inkscape:window-width="1920"
     showgrid="false"
     inkscape:current-layer="g1222"
     inkscape:document-units="mm"
     inkscape:cy="-45.136828"
     inkscape:cx="193.79166"
     inkscape:zoom="1.027839"
     inkscape:pageshadow="2"
     inkscape:pageopacity="0.0"
     borderopacity="1.0"
     bordercolor="#666666"
     pagecolor="#ffffff"
     id="base"
     showguides="true"
     inkscape:guide-bbox="true" />
  <metadata
     id="metadata5">
    <rdf:RDF>
      <cc:Work
         rdf:about="">
        <dc:format>image/svg+xml</dc:format>
        <dc:type
           rdf:resource="http://purl.org/dc/dcmitype/StillImage" />
        <dc:title />
      </cc:Work>
    </rdf:RDF>
  </metadata>
  <g
     id="layer1"
     inkscape:groupmode="layer"
     inkscape:label="Layer 1"
     transform="translate(-306.41189,-109.96025)">
    <g
       transform="translate(0.04622687,-0.80180859)"
       id="g1399">
      <g
         id="g1222">
        <path
           transform="matrix(0.26458333,0,0,0.26458333,306.36566,110.76206)"
           d="M 41.09375 106.27539 L 41.09375 110.1875 C 41.09375 115.6174 45.444915 119.96875 50.875 119.96875 L 51.103516 119.96875 C 56.533449 119.96875 60.858309 115.6208 60.884766 110.1875 L 60.884766 106.27539 L 41.09375 106.27539 z "
           style="color:#000000;font-style:normal;font-variant:normal;font-weight:normal;font-stretch:normal;font-size:medium;line-height:normal;font-family:sans-serif;font-variant-ligatures:normal;font-variant-position:normal;font-variant-caps:normal;font-variant-numeric:normal;font-variant-alternates:normal;font-variant-east-asian:normal;font-feature-settings:normal;font-variation-settings:normal;text-indent:0;text-align:start;text-decoration:none;text-decoration-line:none;text-decoration-style:solid;text-decoration-color:#000000;letter-spacing:normal;word-spacing:normal;text-transform:none;writing-mode:lr-tb;direction:ltr;text-orientation:mixed;dominant-baseline:auto;baseline-shift:baseline;text-anchor:start;white-space:normal;shape-padding:0;shape-margin:0;inline-size:0;clip-rule:nonzero;display:inline;overflow:visible;visibility:visible;isolation:auto;mix-blend-mode:normal;color-interpolation:sRGB;color-interpolation-filters:linearRGB;solid-color:#000000;solid-opacity:1;vector-effect:none;fill:url(#linearGradient1214);fill-opacity:1;fill-rule:nonzero;stroke:none;stroke-width:1.204;stroke-linecap:butt;stroke-linejoin:miter;stroke-miterlimit:4;stroke-dasharray:none;stroke-dashoffset:0;stroke-opacity:1;color-rendering:auto;image-rendering:auto;shape-rendering:auto;text-rendering:auto;enable-background:accumulate;stop-color:#000000"
           id="path857" />
        <path
           d="m 317.41596,115.74629 c -0.46489,0 -0.98563,0.0832 -1.50172,0.24081 -0.12901,0.0394 -0.25805,0.0832 -0.3855,0.13178 -0.12731,0.0485 -0.25339,0.10179 -0.37724,0.15916 -0.24798,0.11485 -0.48734,0.24713 -0.71003,0.39584 -0.22268,0.14871 -0.42823,0.31194 -0.61134,0.48886 -0.18311,0.17692 -0.34365,0.36771 -0.47645,0.57154 -0.13281,0.20383 -0.23778,0.42065 -0.30955,0.65009 -0.0179,0.0574 -0.0338,0.11524 -0.0475,0.17415 -0.0412,0.17688 -0.063,0.36038 -0.063,0.55087 0,0.9951 -0.0661,1.68959 -0.0661,3.6034 2.6e-4,0.0568 5.6e-4,0.82689 0.001,1.41128 0.6498,-0.91281 1.72602,-1.50843 2.93057,-1.50843 h 2.86701 v -0.89659 l 4.05092,-0.0155 2.64066,-0.0114 v -2.70319 c 0,-0.11518 -0.0109,-0.22887 -0.0315,-0.34004 v -5.2e-4 c -0.0103,-0.0555 -0.023,-0.11041 -0.0382,-0.16485 v -5.3e-4 c -0.0758,-0.27295 -0.21051,-0.53194 -0.39067,-0.77463 -0.0721,-0.0971 -0.15151,-0.19159 -0.2372,-0.28319 -0.25707,-0.2748 -0.57116,-0.52409 -0.91932,-0.7431 -0.11592,-0.0729 -0.23554,-0.14215 -0.35709,-0.20723 h -5.3e-4 c -0.24324,-0.13021 -0.49511,-0.24455 -0.74517,-0.34158 h -5.3e-4 c -0.12492,-0.0485 -0.24931,-0.0931 -0.37204,-0.13278 h -5.3e-4 c -0.36843,-0.11927 -0.72086,-0.19839 -1.02215,-0.23358 h -5.3e-4 c -0.10046,-0.0117 -0.19492,-0.0183 -0.28267,-0.0202 h -3.54292 z m 4.70411,2.31304 c 0.59472,0 1.07642,0.48221 1.07642,1.07693 0,0.59473 -0.48168,1.07642 -1.07642,1.07642 -0.59472,0 -1.07694,-0.48169 -1.07694,-1.07642 0,-0.59473 0.48222,-1.07694 1.07694,-1.07693 z m -7.0125,9.74514 -0.002,5.3e-4 c -0.85439,-6e-5 -1.5704,0.56504 -1.79937,1.34307 0.0126,0.0215 0.0231,0.0458 0.0362,0.0667 0.0578,0.0925 0.1198,0.17911 0.18552,0.26045 0.0657,0.0814 0.13527,0.15735 0.20774,0.22841 0.0724,0.071 0.14791,0.13739 0.22582,0.19895 0.15603,0.12328 0.32321,0.22767 0.49713,0.31523 h 5.3e-4 c 0.26075,0.13124 0.53596,0.2246 0.8077,0.28474 0.17147,0.0379 0.34092,0.0617 0.5054,0.0749 0.009,7.4e-4 0.0191,0.002 0.0284,0.003 0.0867,0.006 0.17149,0.009 0.25425,0.009 l 0.92707,0.002 -0.001,-0.79633 v -0.01 c 0.002,-0.0307 0.003,-0.066 0.004,-0.10336 5e-5,-1.04029 -0.83662,-1.87746 -1.87689,-1.8774 z m 8.6155,0.4656 c -0.64896,0.0113 -1.21136,0.54677 -1.2113,1.18391 v 0.3514 2.6603 h -0.0181 l -0.001,0.0951 -6.12521,0.0134 c -0.24235,0.0162 -0.4773,0.0149 -0.70435,-0.005 -0.22705,-0.0198 -0.446,-0.0574 -0.65629,-0.11317 -0.21028,-0.0558 -0.41204,-0.12982 -0.6041,-0.22169 -0.19205,-0.0919 -0.37437,-0.20174 -0.54674,-0.3297 -0.43857,-0.32558 -0.6956,-0.93934 -0.99994,-1.47846 v 3.82199 c 0,0.0727 0.002,0.14482 0.007,0.21601 0.005,0.0712 0.0112,0.14125 0.0202,0.21084 v 5.2e-4 c 0.0179,0.139 0.0446,0.27483 0.0791,0.40722 v 5.2e-4 c 0.069,0.26491 0.1701,0.51618 0.29817,0.75293 0.0641,0.11856 0.13478,0.2331 0.21188,0.34417 v 5.2e-4 c 0.23101,0.33272 0.51767,0.63144 0.84284,0.89194 0.10842,0.0869 0.22126,0.16895 0.33745,0.2465 0.23238,0.15509 0.47858,0.29119 0.73277,0.40669 0.2542,0.1155 0.5161,0.21041 0.7798,0.28319 0.26369,0.0727 0.52925,0.12346 0.79013,0.15037 0.13045,0.0135 0.25961,0.0208 0.38705,0.0222 h 0.004 0.002 c 0.10334,0.003 0.95868,0.007 1.78697,0.008 0.69206,10e-4 1.20706,0.002 1.48829,0.002 0.0553,-4e-5 0.2728,8e-5 0.293,0 1.15473,-0.005 2.16001,-0.0931 3.03547,-0.26045 0.4703,-0.0899 0.90462,-0.20151 1.3007,-0.33745 0.38381,-0.13172 0.73108,-0.28624 1.04076,-0.46043 0.92918,-0.5226 1.5179,-1.22179 1.72445,-2.01022 0.0974,-0.71835 0.0707,-2.41111 0.0667,-3.59358 v -0.002 c 0.004,-1.07228 0.007,-1.20598 0.008,-1.3162 h -0.0253 l -0.002,-0.14779 -3.13314,0.015 -0.004,-0.62476 c -2e-5,-0.65702 -0.5269,-1.18388 -1.1839,-1.18391 h -0.002 c -0.006,-5e-5 -0.0141,-4e-5 -0.0191,0 z"
           style="color:#000000;font-style:normal;font-variant:normal;font-weight:normal;font-stretch:normal;font-size:medium;line-height:normal;font-family:sans-serif;font-variant-ligatures:normal;font-variant-position:normal;font-variant-caps:normal;font-variant-numeric:normal;font-variant-alternates:normal;font-variant-east-asian:normal;font-feature-settings:normal;font-variation-settings:normal;text-indent:0;text-align:start;text-decoration:none;text-decoration-line:none;text-decoration-style:solid;text-decoration-color:#000000;letter-spacing:normal;word-spacing:normal;text-transform:none;writing-mode:lr-tb;direction:ltr;text-orientation:mixed;dominant-baseline:auto;baseline-shift:baseline;text-anchor:start;white-space:normal;shape-padding:0;shape-margin:0;inline-size:0;clip-rule:nonzero;display:inline;overflow:visible;visibility:visible;isolation:auto;mix-blend-mode:normal;color-interpolation:sRGB;color-interpolation-filters:linearRGB;solid-color:#000000;solid-opacity:1;vector-effect:none;fill:url(#linearGradient1203);fill-opacity:1;fill-rule:nonzero;stroke:none;stroke-width:0.588079;stroke-linecap:butt;stroke-linejoin:miter;stroke-miterlimit:4;stroke-dasharray:none;stroke-dashoffset:0;stroke-opacity:1;color-rendering:auto;image-rendering:auto;shape-rendering:auto;text-rendering:auto;enable-background:accumulate;stop-color:#000000"
           id="path1185" />
        <path
           d="m 320.69357,123.18993 v 0.014 h -4.8948 c -1.66007,0 -3.01858,1.32715 -2.98638,2.98018 v 0.004 1.25987 1.82004 c 0.22102,-1.13301 1.09696,-2.04967 2.29289,-2.05052 h 0.002 c 1.35724,9.8e-4 2.46504,1.10697 2.46497,2.46445 0,0.0448 -0.002,0.0932 -0.006,0.14469 l 0.002,-0.0212 0.004,2.07222 h 4.35168 v -2.07067 -0.35347 c -9e-5,-0.97613 0.82874,-1.75627 1.79265,-1.77147 h 0.002 c 0.009,-8e-5 0.0184,-7e-5 0.0274,0 0.97328,10e-4 1.7684,0.7961 1.76941,1.7694 v 0.0357 l 2.51767,-0.0119 v -0.12505 h 0.0119 v -6.16035 h -2.65462 c -0.17114,0.80057 -0.79979,1.44313 -1.64641,1.44332 -0.84657,-1.9e-4 -1.47321,-0.64281 -1.64434,-1.44332 z"
           style="color:#000000;font-style:normal;font-variant:normal;font-weight:normal;font-stretch:normal;font-size:medium;line-height:normal;font-family:sans-serif;font-variant-ligatures:normal;font-variant-position:normal;font-variant-caps:normal;font-variant-numeric:normal;font-variant-alternates:normal;font-variant-east-asian:normal;font-feature-settings:normal;font-variation-settings:normal;text-indent:0;text-align:start;text-decoration:none;text-decoration-line:none;text-decoration-style:solid;text-decoration-color:#000000;letter-spacing:normal;word-spacing:normal;text-transform:none;writing-mode:lr-tb;direction:ltr;text-orientation:mixed;dominant-baseline:auto;baseline-shift:baseline;text-anchor:start;white-space:normal;shape-padding:0;shape-margin:0;inline-size:0;clip-rule:nonzero;display:inline;overflow:visible;visibility:visible;isolation:auto;mix-blend-mode:normal;color-interpolation:sRGB;color-interpolation-filters:linearRGB;solid-color:#000000;solid-opacity:1;vector-effect:none;fill:url(#linearGradient1109);fill-opacity:1;fill-rule:nonzero;stroke:none;stroke-width:0.588079;stroke-linecap:butt;stroke-linejoin:miter;stroke-miterlimit:4;stroke-dasharray:none;stroke-dashoffset:0;stroke-opacity:1;color-rendering:auto;image-rendering:auto;shape-rendering:auto;text-rendering:auto;enable-background:accumulate;stop-color:#000000"
           id="path1105" />
        <path
           d="m 337.48857,123.28851 c -0.75916,0.0241 -1.37827,0.24756 -1.85773,0.6711 -0.47147,0.41552 -0.70685,0.96335 -0.70685,1.6426 0,0.46347 0.11567,0.85115 0.34746,1.16281 0.23175,0.30365 0.50698,0.54294 0.82663,0.71874 0.32763,0.17581 0.73557,0.35559 1.22302,0.53939 0.52741,0.20776 0.93471,0.43198 1.22238,0.67171 0.29567,0.23174 0.44343,0.54688 0.44343,0.94643 0,0.47146 -0.17586,0.82712 -0.52747,1.06685 -0.34361,0.23972 -0.74699,0.36 -1.21047,0.36 -0.35959,0 -0.74727,-0.0764 -1.16281,-0.2283 -0.41553,-0.15982 -0.77117,-0.35137 -1.06684,-0.57513 l -0.51492,0.92322 c 0.37559,0.26371 0.811,0.48337 1.30643,0.65917 0.49545,0.16782 1.01062,0.2515 1.54603,0.2515 0.57534,0 1.07482,-0.10788 1.49834,-0.32361 0.43152,-0.21577 0.76297,-0.51128 0.99471,-0.88685 0.23174,-0.37559 0.3481,-0.7953 0.3481,-1.25876 0,-0.51143 -0.10389,-0.93051 -0.31172,-1.25815 -0.19976,-0.33561 -0.4554,-0.59579 -0.76705,-0.77959 -0.30365,-0.19178 -0.67955,-0.36765 -1.12704,-0.52747 -0.59932,-0.22375 -1.06284,-0.44733 -1.39049,-0.67107 -0.31964,-0.23175 -0.47917,-0.52727 -0.47917,-0.88686 0,-0.36757 0.13534,-0.65523 0.40704,-0.863 0.27968,-0.21576 0.65559,-0.32364 1.12706,-0.32364 0.31165,0 0.64313,0.0517 0.99473,0.15554 0.3516,0.1039 0.68307,0.23987 0.99472,0.40769 l 0.44405,-0.89877 c -0.79912,-0.46347 -1.66664,-0.69555 -2.60157,-0.69555 z m 6.23109,0.0483 v 8.66585 h 5.80147 v -1.12643 h -4.6393 v -2.67308 h 3.99205 v -1.11451 h -3.99205 v -2.63733 h 4.47123 v -1.1145 z m 8.77184,0 v 1.1145 h 2.2654 v 7.55135 h 1.16217 v -7.55135 h 2.32561 v -1.1145 z m 9.08292,0 v 5.63339 c 0,0.61531 0.1399,1.16251 0.41958,1.64198 0.28768,0.47147 0.67928,0.83952 1.17472,1.10322 0.49543,0.25571 1.04267,0.3832 1.64199,0.3832 0.60731,0 1.15907,-0.12749 1.65451,-0.3832 0.49544,-0.2637 0.88705,-0.63175 1.17473,-1.10322 0.28766,-0.47947 0.4315,-1.02667 0.4315,-1.64198 v -5.63339 h -1.13899 v 5.59764 c 0,0.38357 -0.0915,0.73074 -0.27533,1.04239 -0.18379,0.31165 -0.4394,0.5555 -0.76705,0.73131 -0.31962,0.17578 -0.67982,0.26403 -1.07937,0.26403 -0.38357,0 -0.73466,-0.0882 -1.05431,-0.26403 -0.31165,-0.18381 -0.55943,-0.42764 -0.74322,-0.73131 -0.18379,-0.31165 -0.27597,-0.65882 -0.27597,-1.04239 v -5.59764 z m 10.4621,0 v 8.66585 h 1.1628 v -3.188 h 1.28261 c 0.66325,0 1.21046,-0.13206 1.64197,-0.39576 0.4395,-0.2637 0.75527,-0.60756 0.94705,-1.0311 0.19977,-0.42351 0.29979,-0.87855 0.29979,-1.36601 0,-0.84703 -0.26803,-1.50666 -0.80342,-1.97813 -0.5274,-0.47147 -1.26226,-0.70685 -2.20519,-0.70685 z m 1.1628,1.1145 h 1.34218 c 0.57534,0 0.99899,0.1641 1.27068,0.49173 0.2717,0.31964 0.40768,0.68706 0.40768,1.10259 0,0.23972 -0.0562,0.48751 -0.16809,0.74321 -0.1119,0.24773 -0.29951,0.45953 -0.56322,0.63535 -0.25571,0.17579 -0.5911,0.26342 -1.00662,0.26342 h -1.28261 z"
           style="font-style:normal;font-variant:normal;font-weight:normal;font-stretch:normal;font-size:9.87613px;line-height:1.25;font-family:'Josefin Sans';-inkscape-font-specification:'Josefin Sans Bold';letter-spacing:1.30175px;fill:#376d9c;fill-opacity:1;stroke:none;stroke-width:0.299663"
           id="path1059" />
        <path
           d="m 393.03224,123.26436 c -0.7991,0 -1.53788,0.20397 -2.21712,0.6115 -0.67124,0.39957 -1.20667,0.93891 -1.60623,1.61815 -0.39954,0.67924 -0.59958,1.4147 -0.59958,2.20581 0,0.81508 0.19547,1.56233 0.58703,2.24157 0.39956,0.67124 0.93955,1.20212 1.61878,1.59368 0.67924,0.39157 1.41802,0.58768 2.21712,0.58768 0.79109,0 1.52658,-0.19611 2.2058,-0.58768 0.68723,-0.39954 1.23053,-0.9389 1.63007,-1.61814 0.39954,-0.67923 0.59895,-1.418 0.59895,-2.21711 0,-0.79111 -0.20334,-1.52657 -0.61087,-2.20581 -0.39955,-0.67924 -0.93892,-1.21858 -1.61815,-1.61815 -0.67922,-0.40753 -1.41471,-0.6115 -2.2058,-0.6115 z m 11.85257,0 c -0.7991,0 -1.53851,0.20397 -2.21773,0.6115 -0.67126,0.39957 -1.20668,0.93891 -1.60624,1.61815 -0.39953,0.67924 -0.59895,1.4147 -0.59895,2.20581 0,0.81508 0.19549,1.56233 0.58704,2.24157 0.39955,0.67124 0.93891,1.20212 1.61815,1.59368 0.67922,0.39157 1.41863,0.58768 2.21773,0.58768 0.7911,0 1.52594,-0.19611 2.20519,-0.58768 0.68722,-0.39954 1.2305,-0.9389 1.63006,-1.61814 0.39955,-0.67923 0.59959,-1.418 0.59959,-2.21711 0,-0.79111 -0.20397,-1.52657 -0.61151,-2.20581 -0.39955,-0.67924 -0.93891,-1.21858 -1.61814,-1.61815 -0.67925,-0.40753 -1.41409,-0.6115 -2.20519,-0.6115 z m 19.32927,0.0483 c -0.75914,0.024 -1.37826,0.24756 -1.85773,0.67109 -0.47147,0.41553 -0.70747,0.96273 -0.70747,1.64196 0,0.46349 0.11567,0.85116 0.34747,1.16281 0.23173,0.30366 0.5076,0.54359 0.82726,0.71939 0.32763,0.1758 0.73556,0.35558 1.223,0.53938 0.52742,0.20776 0.93473,0.43135 1.2224,0.6711 0.29568,0.23172 0.44343,0.54748 0.44343,0.94704 0,0.47146 -0.17587,0.82712 -0.52747,1.06685 -0.34362,0.23973 -0.747,0.35937 -1.21047,0.35937 -0.35959,0 -0.74727,-0.0758 -1.16281,-0.22767 -0.41553,-0.15981 -0.77119,-0.35137 -1.06684,-0.57513 l -0.51556,0.92259 c 0.37559,0.26371 0.81099,0.484 1.30644,0.65981 0.49544,0.16782 1.01124,0.25149 1.54664,0.25149 0.57534,0 1.07482,-0.10789 1.49836,-0.32362 0.43151,-0.21575 0.76298,-0.51127 0.99471,-0.88684 0.23173,-0.37559 0.34745,-0.79529 0.34745,-1.25876 0,-0.51143 -0.10388,-0.93114 -0.3117,-1.25877 -0.19979,-0.33563 -0.4554,-0.59517 -0.76704,-0.77896 -0.30368,-0.19179 -0.67894,-0.36764 -1.12644,-0.52746 -0.59933,-0.22376 -1.06284,-0.44735 -1.39047,-0.6711 -0.31965,-0.23174 -0.4798,-0.52726 -0.4798,-0.88684 0,-0.3676 0.13597,-0.65525 0.40766,-0.86301 0.27969,-0.21575 0.65559,-0.32363 1.12707,-0.32363 0.31164,0 0.64312,0.0517 0.99471,0.15555 0.35161,0.10388 0.68307,0.23985 0.99471,0.40767 l 0.44343,-0.89939 c -0.7991,-0.46348 -1.66599,-0.69492 -2.60094,-0.69492 z m -43.8849,0.0477 v 1.11515 h 2.2654 v 7.55132 h 1.1628 v -7.55132 h 2.325 v -1.11515 z m 32.52403,0 v 8.66647 h 5.57382 v -1.12706 h -4.41101 v -7.53941 z m -19.82097,1.01917 c 0.59132,0 1.1346,0.14777 1.63006,0.44342 0.49543,0.29568 0.88704,0.69906 1.17471,1.21048 0.28768,0.51142 0.4315,1.0671 0.4315,1.66643 0,0.59933 -0.14382,1.15439 -0.4315,1.66581 -0.27968,0.50343 -0.66736,0.90352 -1.1628,1.19918 -0.48745,0.28768 -1.02682,0.43151 -1.61815,0.43151 -0.59133,0 -1.13854,-0.14776 -1.64198,-0.44343 -0.49544,-0.29566 -0.88705,-0.69574 -1.17472,-1.19917 -0.28767,-0.50344 -0.4315,-1.05064 -0.4315,-1.64198 0,-0.59933 0.1399,-1.15439 0.41958,-1.66581 0.28769,-0.51143 0.67928,-0.91544 1.17474,-1.2111 0.49544,-0.30365 1.03873,-0.45534 1.63006,-0.45534 z m 11.85257,0 c 0.59133,0 1.13461,0.14777 1.63006,0.44342 0.49543,0.29568 0.88705,0.69906 1.17472,1.21048 0.28767,0.51142 0.43151,1.0671 0.43151,1.66643 0,0.59933 -0.14384,1.15439 -0.43151,1.66581 -0.27968,0.50343 -0.66737,0.90352 -1.1628,1.19918 -0.48745,0.28768 -1.02681,0.43151 -1.61816,0.43151 -0.59133,0 -1.13853,-0.14776 -1.64198,-0.44343 -0.49543,-0.29566 -0.88704,-0.69574 -1.1747,-1.19917 -0.28768,-0.50344 -0.43151,-1.05064 -0.43151,-1.64198 0,-0.59933 0.1399,-1.15439 0.4196,-1.66581 0.28766,-0.51143 0.67926,-0.91544 1.17471,-1.2111 0.49544,-0.30365 1.03873,-0.45534 1.63006,-0.45534 z"
           style="font-style:normal;font-variant:normal;font-weight:normal;font-stretch:normal;font-size:9.87613px;line-height:1.25;font-family:'Josefin Sans';-inkscape-font-specification:'Josefin Sans';font-variation-settings:normal;letter-spacing:1.30175px;vector-effect:none;fill:url(#linearGradient1224);fill-opacity:1;stroke:none;stroke-width:0.71374;stroke-linecap:butt;stroke-linejoin:miter;stroke-miterlimit:4;stroke-dasharray:none;stroke-dashoffset:0;stroke-opacity:1;stop-color:#000000"
           id="path1070" />
      </g>
    </g>
  </g>
</svg>
