<?xml version="1.0" encoding="UTF-8" standalone="no"?>
<svg
   xmlns:dc="http://purl.org/dc/elements/1.1/"
   xmlns:cc="http://creativecommons.org/ns#"
   xmlns:rdf="http://www.w3.org/1999/02/22-rdf-syntax-ns#"
   xmlns:svg="http://www.w3.org/2000/svg"
   xmlns="http://www.w3.org/2000/svg"
   width="32"
   height="32"
   viewBox="0 0 8.4666666 8.4666664"
   version="1.1"
   id="svg1021">
  <style>
    #snake { fill: #336790 }
    #background { fill: none }
    #hammer { fill:#e5b62f }

    @media (prefers-color-scheme: dark) {
      #snake { fill: #FFFFFF }
      #background { fill: #336790 }
    }
  </style>
  <defs
     id="defs1015" />
  <metadata
     id="metadata1018">
    <rdf:RDF>
      <cc:Work
         rdf:about="">
        <dc:format>image/svg+xml</dc:format>
        <dc:type
           rdf:resource="http://purl.org/dc/dcmitype/StillImage" />
        <dc:title></dc:title>
      </cc:Work>
    </rdf:RDF>
  </metadata>
  <rect
     ry="0.50735909"
     y="2.7838135e-07"
     x="0"
     height="8.4666662"
     width="8.4666662"
     id="background"
     style="fill-opacity:1;fill-rule:nonzero;stroke:none;stroke-width:0.40613541;stroke-linecap:round;stroke-linejoin:round;stroke-miterlimit:4;stroke-dasharray:none;stroke-dashoffset:0;stroke-opacity:1;paint-order:normal" />
  <path
     transform="scale(0.26458333)"
     id="snake"
     d="m 19.164062,0.02929688 c -0.881935,0.01466502 -1.571827,0.37352651 -1.99414,0.6875 C 16.907205,0.91211867 16.752096,1.0429315 16.609375,1.1152344 16.466654,1.1875372 16.31191,1.2315625 15.966797,1.2324219 15.621764,1.2332969 15.46711,1.1927388 15.324219,1.1210938 15.181328,1.0494487 15.01967,0.91676115 14.755859,0.72265625 14.190346,0.30656609 13.13376,-0.19174342 11.826172,0.16210938 10.518579,0.51596429 9.8526853,1.4825431 9.5742188,2.1269531 9.4443428,2.4275046 9.3803892,2.6198969 9.2929688,2.7539062 9.2055521,2.8879154 9.0894301,3.0005473 8.7910156,3.1738281 8.4925766,3.3471244 8.3394228,3.3869479 8.1796875,3.3964844 8.0199533,3.4060201 7.817558,3.3721151 7.4921875,3.3359375 6.7946621,3.2583778 5.6274847,3.3579602 4.671875,4.3183594 3.7163191,5.2786708 3.6240093,6.4410954 3.7050781,7.1386719 3.7428658,7.4638927 3.7801962,7.6645254 3.7714844,7.8242188 3.7627726,7.9839114 3.7225861,8.1382015 3.5507812,8.4375 3.3789212,8.7368839 3.2640613,8.8515655 3.1308594,8.9394531 2.9976575,9.0273423 2.8096693,9.0951899 2.5097656,9.2265625 1.8671081,9.5080729 0.9001495,10.17675 0.55273438,11.486328 c -0.34741581,1.309585 0.15757059,2.366613 0.57617182,2.929688 0.1953185,0.262718 0.3261338,0.419778 0.3984376,0.5625 0.072304,0.142722 0.1182822,0.295513 0.1191406,0.640625 8.427e-4,0.345044 -0.039708,0.49979 -0.1113282,0.642578 -0.071621,0.142787 -0.2043154,0.298664 -0.3984374,0.5625 -0.41616724,0.565615 -0.91437965,1.629985 -0.56054692,2.9375 0.35382917,1.307501 1.31830112,1.965598 1.96289062,2.24414 0.3005507,0.12988 0.4929425,0.199689 0.6269531,0.28711 0.1340107,0.08742 0.2485919,0.203538 0.421875,0.501953 0.1733076,0.298465 0.2111682,0.453661 0.2207032,0.613281 0.00952,0.159621 -0.022405,0.360177 -0.058594,0.685547 -0.07756,0.697526 0.021947,1.864663 0.9824219,2.820312 0.9605356,0.955764 2.1216246,1.047773 2.8183593,0.966797 0.32479,-0.03776 0.5277723,-0.07552 0.6875,-0.06641 0.1597267,0.0091 0.3195734,0.05069 0.6191407,0.222656 0.2993839,0.171859 0.4082065,0.278908 0.4960937,0.41211 0.087889,0.133202 0.1557368,0.329002 0.2871094,0.628906 0.281537,0.642705 0.9502582,1.599867 2.2597662,1.947266 0.680971,0.180653 1.392901,0.100853 1.947265,-0.05078 0.277183,-0.07582 0.513828,-0.171379 0.701172,-0.273437 0.09367,-0.05103 0.176325,-0.100802 0.251953,-0.169922 0.07563,-0.06912 0.183975,-0.159093 0.177735,-0.382812 -0.0045,-0.159285 -0.156589,-0.338321 -0.265625,-0.384766 -0.109037,-0.04644 -0.180796,-0.04758 -0.251953,-0.05078 -0.142315,-0.0064 -0.282626,0.0029 -0.449219,0 -0.333183,-0.0058 -0.736522,-0.05383 -1.144531,-0.310547 C 11.961972,28.832785 12.146017,28.67427 11.892578,28.095702 11.682008,27.615009 11.24737,26.574655 10.076172,25.902344 8.9048936,25.22998 7.7923475,25.376961 7.2714844,25.4375 6.9834745,25.47098 6.8742171,25.49598 6.8496094,25.49023 6.8250014,25.48453 6.7206857,25.43228 6.4589844,25.171871 6.1973439,24.911525 6.1482043,24.81292 6.1425781,24.789058 6.1369481,24.765208 6.1534621,24.647992 6.1855471,24.359371 6.2435513,23.837725 6.3909265,22.730177 5.7128906,21.5625 5.0348608,20.39483 3.9957419,19.962224 3.5136719,19.753906 3.24718,19.638746 3.140894,19.600646 3.1230469,19.583984 3.1051998,19.567322 3.0417536,19.475517 2.9453125,19.119141 2.8488238,18.762589 2.8560221,18.64966 2.8632812,18.625 c 0.00726,-0.02464 0.080382,-0.114475 0.2519532,-0.347656 0.3105092,-0.422022 0.9916454,-1.313449 0.9882812,-2.664063 -0.00329,-1.35063 -0.6909248,-2.237226 -1.0039062,-2.658203 -0.1730139,-0.232717 -0.2427543,-0.323747 -0.25,-0.347656 -0.00725,-0.02393 -0.014608,-0.137235 0.080078,-0.494141 0.094621,-0.356685 0.1519442,-0.44794 0.1699219,-0.464843 0.017979,-0.01689 0.1265424,-0.05338 0.3925781,-0.169922 C 3.9728946,11.267948 5.0112797,10.833303 5.6835938,9.6621094 6.355949,8.4908288 6.2089761,7.378288 6.1484375,6.8574219 6.1149868,6.569485 6.0918872,6.4621641 6.0976562,6.4375 6.1034389,6.4128197 6.1536341,6.3066527 6.4140625,6.0449219 6.6746118,5.7830724 6.7748036,5.7342756 6.7988281,5.7285156 c 0.024038,-0.00574 0.131793,0.012875 0.4199219,0.044922 0.5206322,0.057887 1.6386324,0.1977607 2.806641,-0.4804687 1.167821,-0.6781221 1.59277,-1.7120003 1.800781,-2.1933594 0.114973,-0.2660648 0.160492,-0.3722564 0.177734,-0.390625 0.01723,-0.018368 0.108378,-0.081269 0.464844,-0.1777344 0.356564,-0.096492 0.469639,-0.087296 0.494141,-0.080078 0.02449,0.00722 0.10662,0.078405 0.339843,0.25 0.422026,0.3105082 1.313454,0.9857845 2.664063,0.9824219 1.350536,-0.00337 2.245394,-0.6833784 2.666015,-0.9960938 0.232729,-0.1730249 0.313793,-0.2446401 0.337891,-0.2519531 0.02411,-0.00731 0.139256,-0.012632 0.496094,0.082031 0.356761,0.094642 0.447453,0.1515103 0.464844,0.1699219 0.01739,0.01841 0.0594,0.1249453 0.175781,0.390625 0.210633,0.4808426 0.645245,1.5132539 1.816406,2.1855469 1.171199,0.6723126 2.283682,0.5253967 2.804688,0.4648437 0.288015,-0.033487 0.397268,-0.050663 0.421875,-0.044922 0.0246,0.00574 0.12892,0.057957 0.390625,0.3183593 0.261702,0.2604019 0.312739,0.3590525 0.318359,0.3828125 0.0056,0.023773 -0.02064,0.1333266 -0.05273,0.421875 -0.05798,0.5214747 -0.197598,1.636956 0.480468,2.8046875 0.67812,1.1678251 1.717856,1.5927721 2.199219,1.8007811 0.266094,0.114985 0.374121,0.152612 0.392578,0.169922 0.01844,0.01731 0.07933,0.116243 0.175782,0.472657 0.09648,0.356507 0.08927,0.469616 0.08203,0.49414 -0.0073,0.02453 -0.08032,0.106568 -0.251953,0.339844 -0.310507,0.422024 -0.991642,1.313451 -0.988282,2.664062 0.0034,1.35061 0.691271,2.245503 1.003907,2.666016 0.172981,0.232672 0.242709,0.315768 0.25,0.339844 0.0073,0.02407 0.01461,0.137249 -0.08008,0.49414 -0.09465,0.356776 -0.159233,0.447355 -0.177734,0.464844 -0.01848,0.0175 -0.117205,0.06139 -0.382812,0.177734 -0.480712,0.210566 -1.521049,0.645216 -2.19336,1.816407 -0.672341,1.171256 -0.525378,2.283848 -0.464844,2.804687 0.03349,0.288015 0.05652,0.395314 0.05078,0.419922 -0.0057,0.02461 -0.056,0.123066 -0.316406,0.384766 -0.260376,0.261672 -0.360852,0.310752 -0.384766,0.316406 -0.02392,0.0057 -0.131385,-0.01088 -0.419922,-0.04297 -0.521658,-0.05801 -1.637009,-0.19952 -2.804688,0.478516 -1.167626,0.678015 -1.600215,1.718958 -1.808593,2.201172 -0.09505,0.219968 -0.141462,0.345002 -0.16211,0.375 -0.0078,0.01134 -0.06163,0.02709 -0.07422,0.03711 -0.02506,-0.01043 -0.04775,-0.01936 -0.07422,-0.0293 -0.399013,-0.150123 -0.773529,-0.126862 -1.033203,0.0293 -0.259676,0.156166 -0.408366,0.345158 -0.658203,0.53125 -0.224973,0.167577 -0.423343,0.259767 -0.626954,0.421875 -0.107803,0.08583 -0.131342,0.277429 -0.199218,0.427735 -0.01406,0.0015 -0.03043,0.0072 -0.0293,0.0078 0.0011,-5.19e-4 0.0011,-0.0012 -0.02148,-0.05273 -0.07693,-0.175599 -0.263313,-0.438408 -0.613281,-0.53125 -0.201044,-0.05332 -0.376799,-0.0307 -0.517578,0.0078 -0.07039,0.01924 -0.128681,0.04787 -0.191406,0.08203 -0.03137,0.01708 -0.06926,0.03382 -0.111328,0.07227 -0.02105,0.0192 -0.06446,0.07891 -0.06641,0.08203 -9.72e-4,0.0016 -0.04249,0.08644 -0.04297,0.08789 -4.78e-4,0.0015 -0.01566,0.123677 -0.01563,0.125 3.5e-5,0.0013 0.01525,0.110221 0.01563,0.111328 3.77e-4,0.0011 0.0657,0.110417 0.06641,0.111328 0.0014,0.0018 0.143808,0.116046 0.146484,0.117188 0.0027,0.0011 0.0723,0.02559 0.0957,0.0293 0.0234,0.0037 0.04672,0.0072 0.06055,0.0078 0.05531,0.0025 0.06953,-3.35e-4 0.08789,0 0.03674,6.71e-4 0.04558,-3.61e-4 0.05859,0.0078 0.114878,0.07228 -0.01299,-0.06995 0.06641,0.111329 0.03659,0.08358 0.157315,0.371742 0.458984,0.544921 0.285797,0.164047 0.557684,0.123427 0.664063,0.111329 0.122234,0.17551 0.227075,0.381926 0.390625,0.451171 0.249607,0.10568 0.48318,0.143002 0.767578,0.25 0.309048,0.116278 0.511479,0.259046 0.804687,0.339844 0.293209,0.0808 0.670046,0.01236 1.003907,-0.236328 0.244935,-0.182387 0.41372,-0.403082 0.464843,-0.65039 0.03446,-0.166685 -0.0068,-0.292449 -0.03711,-0.427735 0.788892,-0.450955 1.365971,-1.084607 1.580078,-1.580078 0.129867,-0.300526 0.193854,-0.493042 0.28125,-0.626953 0.0874,-0.133911 0.203495,-0.246614 0.501953,-0.419922 0.298507,-0.173333 0.453654,-0.218916 0.613282,-0.228516 0.159628,-0.0096 0.360244,0.03024 0.685546,0.06641 0.697397,0.07753 1.864628,-0.02197 2.820313,-0.982422 0.955619,-0.960381 1.047858,-2.130661 0.966797,-2.828125 -0.03779,-0.325153 -0.07518,-0.525968 -0.06641,-0.685547 0.0088,-0.159579 0.04885,-0.313911 0.220703,-0.613281 0.171874,-0.299407 0.288646,-0.413982 0.421875,-0.501954 0.133228,-0.08797 0.319297,-0.155763 0.61914,-0.287109 0.642596,-0.281476 1.60182,-0.950241 1.949219,-2.259765 0.347411,-1.30958 -0.149729,-2.358792 -0.568359,-2.921876 -0.195287,-0.262669 -0.326211,-0.419796 -0.398438,-0.5625 -0.07223,-0.142702 -0.118282,-0.297402 -0.11914,-0.642578 -8.43e-4,-0.345046 0.03969,-0.497728 0.111328,-0.640625 0.07164,-0.142896 0.204339,-0.304554 0.398437,-0.568359 0.416158,-0.565608 0.914385,-1.624126 0.560547,-2.931641 C 31.069974,10.104522 30.10535,9.4386232 29.460938,9.1601562 29.160411,9.0302905 28.967893,8.9682545 28.833984,8.8808594 28.700076,8.7934642 28.585417,8.6773669 28.412109,8.3789062 28.23879,8.0804241 28.20101,7.9253694 28.191406,7.765625 28.181803,7.6058806 28.213832,7.4053715 28.25,7.0800781 28.327543,6.3826808 28.22993,5.2154139 27.269531,4.2597656 26.309184,3.304186 25.139011,3.2118898 24.441406,3.2929688 24.116184,3.3307703 23.921292,3.3680852 23.761719,3.359375 23.602146,3.3506648 23.441903,3.308541 23.142578,3.1367188 22.843169,2.9648464 22.736409,2.8500263 22.648438,2.7167969 22.560466,2.5835674 22.490719,2.3955447 22.359375,2.0957031 22.077917,1.4532062 21.403348,0.48804519 20.09375,0.140625 19.80783,0.06477419 19.542151,0.04950523 19.28125,0.04492187 19.2527,0.03616177 19.22318,0.03091475 19.19336,0.02929688 c -0.0092,7.604e-5 -0.02011,-1.5289e-4 -0.0293,0 z"
     style="color:#000000;font-style:normal;font-variant:normal;font-weight:normal;font-stretch:normal;font-size:medium;line-height:normal;font-family:sans-serif;font-variant-ligatures:normal;font-variant-position:normal;font-variant-caps:normal;font-variant-numeric:normal;font-variant-alternates:normal;font-feature-settings:normal;text-indent:0;text-align:start;text-decoration:none;text-decoration-line:none;text-decoration-style:solid;text-decoration-color:#000000;letter-spacing:normal;word-spacing:normal;text-transform:none;writing-mode:lr-tb;direction:ltr;text-orientation:mixed;dominant-baseline:auto;baseline-shift:baseline;text-anchor:start;white-space:normal;shape-padding:0;clip-rule:nonzero;display:inline;overflow:visible;visibility:visible;opacity:1;isolation:auto;mix-blend-mode:normal;color-interpolation:sRGB;color-interpolation-filters:linearRGB;solid-color:#000000;solid-opacity:1;vector-effect:none;fill-opacity:1;fill-rule:nonzero;stroke:none;stroke-width:0.73499995;stroke-linecap:round;stroke-linejoin:round;stroke-miterlimit:4;stroke-dasharray:none;stroke-dashoffset:0;stroke-opacity:1;paint-order:normal;color-rendering:auto;image-rendering:auto;shape-rendering:auto;text-rendering:auto;enable-background:accumulate" />
  <path
     transform="scale(0.26458333)"
     id="hammer"
     d="m 17.177734,5.8535156 c -0.90458,-0.00858 -2.566643,0.023249 -2.576172,0.023437 -0.369531,0 -0.656249,0.3200684 -0.65625,0.6699219 V 7.0722656 H 13.443359 V 6.546875 c 0,-0.3498217 -0.296513,-0.6699219 -0.666015,-0.6699219 h -1.822266 c -0.369543,0 -0.664062,0.3185831 -0.664062,0.6699219 v 3.861328 c 0,0.351137 0.294665,0.671875 0.664062,0.671875 h 1.822266 c 0.369467,0 0.666015,-0.322067 0.666015,-0.671875 V 9.8847656 h 0.501953 v 0.5234374 c 0,0.349856 0.286741,0.671875 0.65625,0.671875 h 0.40625 v 4.400391 c -0.429509,0.35793 -0.90039,0.728801 -0.90039,1.328125 v 7.449218 c 0,1.069969 0.877293,1.947266 1.947266,1.947266 1.069971,0 1.949218,-0.877137 1.949218,-1.947266 v -7.449218 c 0,-0.600462 -0.469465,-0.970206 -0.90039,-1.328125 v -4.400391 h 0.679687 l 0.140625,-0.132812 c 0.274298,-0.241496 0.262144,-0.358095 0.390625,-0.523438 0.121344,-0.156157 0.30876,-0.331513 0.626953,-0.501953 0.977923,-0.3263244 1.58437,-0.096178 2.015625,0.191406 0.217977,0.145361 0.38435,0.304544 0.501953,0.427735 0.0588,0.06159 0.0867,0.105594 0.169922,0.177734 0.02079,0.01803 0.04559,0.03682 0.0957,0.06641 0.02506,0.01482 0.10911,0.05004 0.111329,0.05078 0.0022,7.36e-4 0.21117,0.02363 0.21289,0.02344 8.58e-4,-8.7e-5 0.163329,-0.03677 0.164063,-0.03711 7.33e-4,-3.22e-4 0.138067,-0.09514 0.138671,-0.0957 0.0012,-0.0011 0.139907,-0.220547 0.140626,-0.222656 7.18e-4,-0.0021 0.02688,-0.09873 0.0293,-0.132812 0.0024,-0.03409 0.0014,-0.05869 0,-0.08008 -0.0126,-0.208885 -0.08797,-0.3220522 -0.11524,-0.421875 C 22.080106,9.10767 22.046876,7.7572994 20.107422,6.7324219 l -0.01367,-0.00781 -0.01563,-0.00781 C 19.632346,6.5163047 19.154576,6.3159935 18.742188,6.1640625 18.535993,6.088097 18.345241,6.0274915 18.181641,5.9785156 18.061144,5.9424434 17.959243,5.9233384 17.849609,5.90625 c -0.0052,-8.054e-4 -0.01037,-0.00706 -0.01563,-0.00781 -0.0243,-0.00677 -0.04332,-0.01279 -0.05859,-0.015625 -0.01822,-0.00334 -0.03075,-0.00412 -0.04492,-0.00586 -0.0096,-0.00119 -0.02019,-0.00691 -0.0293,-0.00781 -0.04519,-0.00461 -0.08879,-0.00551 -0.140625,-0.00781 -0.103688,-0.00461 -0.231577,-0.00638 -0.382813,-0.00781 z"
     style="fill-opacity:1;fill-rule:nonzero;stroke:none;stroke-width:1.03000009;stroke-linecap:butt;stroke-linejoin:miter;stroke-miterlimit:4;stroke-dasharray:none;stroke-dashoffset:0;stroke-opacity:1;paint-order:markers fill stroke" />
</svg>
