<?xml version="1.0" encoding="UTF-8"?>
<svg id="svg1021" width="32" height="32" version="1.1" viewBox="0 0 8.4667 8.4667" xmlns="http://www.w3.org/2000/svg" xmlns:cc="http://creativecommons.org/ns#" xmlns:dc="http://purl.org/dc/elements/1.1/" xmlns:rdf="http://www.w3.org/1999/02/22-rdf-syntax-ns#">
 <style>#snake { fill: #336790 }
    #background { fill: none }
    #hammer { fill:#e5b62f }

    @media (prefers-color-scheme: dark) {
      #snake { fill: #FFFFFF }
      #background { fill: #336790 }
    }</style>
 <metadata id="metadata1018">
  <rdf:RDF>
   <cc:Work rdf:about="">
    <dc:format>image/svg+xml</dc:format>
    <dc:type rdf:resource="http://purl.org/dc/dcmitype/StillImage"/>
    <dc:title/>
   </cc:Work>
  </rdf:RDF>
 </metadata>
 <rect id="background" y="2.7838e-7" width="8.4667" height="8.4667" ry=".50736" style="paint-order:normal"/>
 <path id="snake" transform="scale(.26458)" d="m19.164 0.029297c-0.88194 0.014665-1.5718 0.37353-1.9941 0.6875-0.26272 0.19532-0.41783 0.32613-0.56055 0.39844-0.14272 0.072303-0.29746 0.11633-0.64258 0.11719-0.34503 8.75e-4 -0.49969-0.039683-0.64258-0.11133-0.14289-0.071645-0.30455-0.20433-0.56836-0.39844-0.56551-0.41609-1.6221-0.9144-2.9297-0.56055-1.3076 0.35385-1.9735 1.3204-2.252 1.9648-0.12988 0.30055-0.19383 0.49294-0.28125 0.62695-0.087417 0.13401-0.20354 0.24664-0.50195 0.41992-0.29844 0.1733-0.45159 0.21312-0.61133 0.22266-0.15973 0.0095357-0.36213-0.024369-0.6875-0.060547-0.69753-0.07756-1.8647 0.022023-2.8203 0.98242-0.95556 0.96031-1.0479 2.1227-0.9668 2.8203 0.037788 0.32522 0.075118 0.52585 0.066406 0.68555-0.0087118 0.15969-0.048898 0.31398-0.2207 0.61328-0.17186 0.29938-0.28672 0.41407-0.41992 0.50195-0.1332 0.087889-0.32119 0.15574-0.62109 0.28711-0.64266 0.28151-1.6096 0.95019-1.957 2.2598-0.34742 1.3096 0.15757 2.3666 0.57617 2.9297 0.19532 0.26272 0.32613 0.41978 0.39844 0.5625 0.072304 0.14272 0.11828 0.29551 0.11914 0.64062 8.427e-4 0.34504-0.039708 0.49979-0.11133 0.64258-0.071621 0.14279-0.20432 0.29866-0.39844 0.5625-0.41617 0.56562-0.91438 1.63-0.56055 2.9375 0.35383 1.3075 1.3183 1.9656 1.9629 2.2441 0.30055 0.12988 0.49294 0.19969 0.62695 0.28711 0.13401 0.08742 0.24859 0.20354 0.42188 0.50195 0.17331 0.29846 0.21117 0.45366 0.2207 0.61328 0.00952 0.15962-0.022405 0.36018-0.058594 0.68555-0.07756 0.69753 0.021947 1.8647 0.98242 2.8203 0.96054 0.95576 2.1216 1.0478 2.8184 0.9668 0.32479-0.03776 0.52777-0.07552 0.6875-0.06641 0.15973 0.0091 0.31957 0.05069 0.61914 0.22266 0.29938 0.17186 0.40821 0.27891 0.49609 0.41211 0.087889 0.1332 0.15574 0.329 0.28711 0.62891 0.28154 0.6427 0.95026 1.5999 2.2598 1.9473 0.68097 0.18065 1.3929 0.10085 1.9473-0.05078 0.27718-0.07582 0.51383-0.17138 0.70117-0.27344 0.09367-0.05103 0.17632-0.1008 0.25195-0.16992 0.07563-0.06912 0.18398-0.15909 0.17774-0.38281-0.0045-0.15928-0.15659-0.33832-0.26562-0.38477-0.10904-0.04644-0.1808-0.04758-0.25195-0.05078-0.14232-0.0064-0.28263 0.0029-0.44922 0-0.33318-0.0058-0.73652-0.05383-1.1445-0.31055-0.90522-0.56956-0.72117-0.72807-0.97461-1.3066-0.21057-0.48069-0.64521-1.521-1.8164-2.1934-1.1713-0.67236-2.2838-0.52538-2.8047-0.46484-0.28801 0.03348-0.39727 0.05848-0.42188 0.05273-0.024608-0.0057-0.12892-0.05795-0.39062-0.31836-0.26164-0.26035-0.31078-0.35895-0.31641-0.38281-0.00563-0.02385 0.010884-0.14107 0.042969-0.42969 0.058004-0.52165 0.20538-1.6292-0.47266-2.7969-0.67803-1.1677-1.7171-1.6003-2.1992-1.8086-0.26649-0.11516-0.37278-0.15326-0.39062-0.16992s-0.081293-0.10847-0.17773-0.46484c-0.096489-0.35655-0.08929-0.46948-0.082031-0.49414 0.00726-0.02464 0.080382-0.11448 0.25195-0.34766 0.31051-0.42202 0.99165-1.3134 0.98828-2.6641-0.00329-1.3506-0.69092-2.2372-1.0039-2.6582-0.17301-0.23272-0.24275-0.32375-0.25-0.34766-0.00725-0.02393-0.014608-0.13724 0.080078-0.49414 0.094621-0.35668 0.15194-0.44794 0.16992-0.46484 0.017979-0.01689 0.12654-0.05338 0.39258-0.16992 0.48071-0.21057 1.5191-0.64521 2.1914-1.8164 0.67236-1.1713 0.52538-2.2838 0.46484-2.8047-0.033451-0.28794-0.05655-0.39526-0.050781-0.41992 0.0057827-0.02468 0.055978-0.13085 0.31641-0.39258 0.26055-0.26185 0.36074-0.31065 0.38477-0.31641 0.024038-0.00574 0.13179 0.012875 0.41992 0.044922 0.52063 0.057887 1.6386 0.19776 2.8066-0.48047 1.1678-0.67812 1.5928-1.712 1.8008-2.1934 0.11497-0.26606 0.16049-0.37226 0.17773-0.39062 0.01723-0.018368 0.10838-0.081269 0.46484-0.17773 0.35656-0.096492 0.46964-0.087296 0.49414-0.080078 0.02449 0.00722 0.10662 0.078405 0.33984 0.25 0.42203 0.31051 1.3135 0.98578 2.6641 0.98242 1.3505-0.00337 2.2454-0.68338 2.666-0.99609 0.23273-0.17302 0.31379-0.24464 0.33789-0.25195 0.02411-0.00731 0.13926-0.012632 0.49609 0.082031 0.35676 0.094642 0.44745 0.15151 0.46484 0.16992 0.01739 0.01841 0.0594 0.12495 0.17578 0.39062 0.21063 0.48084 0.64524 1.5133 1.8164 2.1855 1.1712 0.67231 2.2837 0.5254 2.8047 0.46484 0.28802-0.033487 0.39727-0.050663 0.42188-0.044922 0.0246 0.00574 0.12892 0.057957 0.39062 0.31836 0.2617 0.2604 0.31274 0.35905 0.31836 0.38281 0.0056 0.023773-0.02064 0.13333-0.05273 0.42188-0.05798 0.52147-0.1976 1.637 0.48047 2.8047 0.67812 1.1678 1.7179 1.5928 2.1992 1.8008 0.26609 0.11498 0.37412 0.15261 0.39258 0.16992 0.01844 0.01731 0.07933 0.11624 0.17578 0.47266 0.09648 0.35651 0.08927 0.46962 0.08203 0.49414-0.0073 0.02453-0.08032 0.10657-0.25195 0.33984-0.31051 0.42202-0.99164 1.3135-0.98828 2.6641 0.0034 1.3506 0.69127 2.2455 1.0039 2.666 0.17298 0.23267 0.24271 0.31577 0.25 0.33984 0.0073 0.02407 0.01461 0.13725-0.08008 0.49414-0.09465 0.35678-0.15923 0.44736-0.17773 0.46484-0.01848 0.0175-0.1172 0.06139-0.38281 0.17773-0.48071 0.21057-1.521 0.64522-2.1934 1.8164-0.67234 1.1713-0.52538 2.2838-0.46484 2.8047 0.03349 0.28802 0.05652 0.39531 0.05078 0.41992-0.0057 0.02461-0.056 0.12307-0.31641 0.38477-0.26038 0.26167-0.36085 0.31075-0.38477 0.31641-0.02392 0.0057-0.13138-0.01088-0.41992-0.04297-0.52166-0.05801-1.637-0.19952-2.8047 0.47852-1.1676 0.67802-1.6002 1.719-1.8086 2.2012-0.09505 0.21997-0.14146 0.345-0.16211 0.375-0.0078 0.01134-0.06163 0.02709-0.07422 0.03711-0.02506-0.01043-0.04775-0.01936-0.07422-0.0293-0.39901-0.15012-0.77353-0.12686-1.0332 0.0293-0.25968 0.15617-0.40837 0.34516-0.6582 0.53125-0.22497 0.16758-0.42334 0.25977-0.62695 0.42188-0.1078 0.08583-0.13134 0.27743-0.19922 0.42774-0.01406 0.0015-0.03043 0.0072-0.0293 0.0078 0.0011-5.19e-4 0.0011-0.0012-0.02148-0.05273-0.07693-0.1756-0.26331-0.43841-0.61328-0.53125-0.20104-0.05332-0.3768-0.0307-0.51758 0.0078-0.07039 0.01924-0.12868 0.04787-0.19141 0.08203-0.03137 0.01708-0.06926 0.03382-0.11133 0.07227-0.02105 0.0192-0.06446 0.07891-0.06641 0.08203-9.72e-4 0.0016-0.04249 0.08644-0.04297 0.08789-4.78e-4 0.0015-0.01566 0.12368-0.01563 0.125 3.5e-5 0.0013 0.01525 0.11022 0.01563 0.11133 3.77e-4 0.0011 0.0657 0.11042 0.06641 0.11133 0.0014 0.0018 0.14381 0.11605 0.14648 0.11719 0.0027 0.0011 0.0723 0.02559 0.0957 0.0293 0.0234 0.0037 0.04672 0.0072 0.06055 0.0078 0.05531 0.0025 0.06953-3.35e-4 0.08789 0 0.03674 6.71e-4 0.04558-3.61e-4 0.05859 0.0078 0.11488 0.07228-0.01299-0.06995 0.06641 0.11133 0.03659 0.08358 0.15732 0.37174 0.45898 0.54492 0.2858 0.16405 0.55768 0.12343 0.66406 0.11133 0.12223 0.17551 0.22708 0.38193 0.39062 0.45117 0.24961 0.10568 0.48318 0.143 0.76758 0.25 0.30905 0.11628 0.51148 0.25905 0.80469 0.33984 0.29321 0.0808 0.67005 0.01236 1.0039-0.23633 0.24494-0.18239 0.41372-0.40308 0.46484-0.65039 0.03446-0.16668-0.0068-0.29245-0.03711-0.42774 0.78889-0.45096 1.366-1.0846 1.5801-1.5801 0.12987-0.30053 0.19385-0.49304 0.28125-0.62695 0.0874-0.13391 0.2035-0.24661 0.50195-0.41992 0.29851-0.17333 0.45365-0.21892 0.61328-0.22852s0.36024 0.03024 0.68555 0.06641c0.6974 0.07753 1.8646-0.02197 2.8203-0.98242 0.95562-0.96038 1.0479-2.1307 0.9668-2.8281-0.03779-0.32515-0.07518-0.52597-0.06641-0.68555 0.0088-0.15958 0.04885-0.31391 0.2207-0.61328 0.17187-0.29941 0.28865-0.41398 0.42188-0.50195 0.13323-0.08797 0.3193-0.15576 0.61914-0.28711 0.6426-0.28148 1.6018-0.95024 1.9492-2.2598 0.34741-1.3096-0.14973-2.3588-0.56836-2.9219-0.19529-0.26267-0.32621-0.4198-0.39844-0.5625-0.07223-0.1427-0.11828-0.2974-0.11914-0.64258-8.43e-4 -0.34505 0.03969-0.49773 0.11133-0.64062 0.07164-0.1429 0.20434-0.30455 0.39844-0.56836 0.41616-0.56561 0.91438-1.6241 0.56055-2.9316-0.35385-1.3076-1.3185-1.9734-1.9629-2.2519-0.30053-0.12987-0.49304-0.1919-0.62695-0.2793-0.13391-0.087395-0.24857-0.20349-0.42188-0.50195-0.17332-0.29848-0.2111-0.45354-0.2207-0.61328-0.009603-0.15974 0.022426-0.36025 0.058594-0.68555 0.077543-0.6974-0.02007-1.8647-0.98047-2.8203-0.96035-0.95558-2.1305-1.0479-2.8281-0.9668-0.32522 0.037802-0.52011 0.075116-0.67969 0.066406s-0.31982-0.050834-0.61914-0.22266c-0.29941-0.17187-0.40617-0.28669-0.49414-0.41992-0.087972-0.13323-0.15772-0.32125-0.28906-0.62109-0.28146-0.6425-0.95603-1.6077-2.2656-1.9551-0.28592-0.075851-0.5516-0.09112-0.8125-0.095703-0.02855-0.0087601-0.05807-0.014007-0.08789-0.015625-0.0092 7.604e-5 -0.02011-1.5289e-4 -0.0293 0z" color="#000000" color-rendering="auto" dominant-baseline="auto" image-rendering="auto" shape-rendering="auto" solid-color="#000000" style="font-feature-settings:normal;font-variant-alternates:normal;font-variant-caps:normal;font-variant-ligatures:normal;font-variant-numeric:normal;font-variant-position:normal;isolation:auto;mix-blend-mode:normal;paint-order:normal;shape-padding:0;text-decoration-color:#000000;text-decoration-line:none;text-decoration-style:solid;text-indent:0;text-orientation:mixed;text-transform:none;white-space:normal"/>
 <path id="hammer" transform="scale(.26458)" d="m17.178 5.8535c-0.90458-0.00858-2.5666 0.023249-2.5762 0.023437-0.36953 0-0.65625 0.32007-0.65625 0.66992v0.52539h-0.50195v-0.52539c0-0.34982-0.29651-0.66992-0.66602-0.66992h-1.8223c-0.36954 0-0.66406 0.31858-0.66406 0.66992v3.8613c0 0.35114 0.29466 0.67188 0.66406 0.67188h1.8223c0.36947 0 0.66602-0.32207 0.66602-0.67188v-0.52344h0.50195v0.52344c0 0.34986 0.28674 0.67188 0.65625 0.67188h0.40625v4.4004c-0.42951 0.35793-0.90039 0.7288-0.90039 1.3281v7.4492c0 1.07 0.87729 1.9473 1.9473 1.9473 1.07 0 1.9492-0.87714 1.9492-1.9473v-7.4492c0-0.60046-0.46946-0.97021-0.90039-1.3281v-4.4004h0.67969l0.14062-0.13281c0.2743-0.2415 0.26214-0.3581 0.39062-0.52344 0.12134-0.15616 0.30876-0.33151 0.62695-0.50195 0.97792-0.32632 1.5844-0.096178 2.0156 0.19141 0.21798 0.14536 0.38435 0.30454 0.50195 0.42774 0.0588 0.06159 0.0867 0.10559 0.16992 0.17773 0.02079 0.01803 0.04559 0.03682 0.0957 0.06641 0.02506 0.01482 0.10911 0.05004 0.11133 0.05078 0.0022 7.36e-4 0.21117 0.02363 0.21289 0.02344 8.58e-4 -8.7e-5 0.16333-0.03677 0.16406-0.03711 7.33e-4 -3.22e-4 0.13807-0.09514 0.13867-0.0957 0.0012-0.0011 0.13991-0.22055 0.14063-0.22266 7.18e-4 -0.0021 0.02688-0.09873 0.0293-0.13281 0.0024-0.03409 0.0014-0.05869 0-0.08008-0.0126-0.20888-0.08797-0.32205-0.11524-0.42188-0.32614-0.76148-0.35937-2.1118-2.2988-3.1367l-0.01367-0.00781-0.01563-0.00781c-0.44578-0.2005-0.92355-0.40081-1.3359-0.55274-0.2062-0.075966-0.39695-0.13657-0.56055-0.18555-0.1205-0.036072-0.2224-0.055177-0.33203-0.072266-0.0052-8.054e-4 -0.01037-0.00706-0.01563-0.00781-0.0243-0.00677-0.04332-0.01279-0.05859-0.015625-0.01822-0.00334-0.03075-0.00412-0.04492-0.00586-0.0096-0.00119-0.02019-0.00691-0.0293-0.00781-0.04519-0.00461-0.08879-0.00551-0.14062-0.00781-0.10369-0.00461-0.23158-0.00638-0.38281-0.00781z" style="paint-order:markers fill stroke"/>
</svg>
