<?xml version="1.0" encoding="UTF-8" standalone="no"?>
<svg
   xmlns:dc="http://purl.org/dc/elements/1.1/"
   xmlns:cc="http://creativecommons.org/ns#"
   xmlns:rdf="http://www.w3.org/1999/02/22-rdf-syntax-ns#"
   xmlns:svg="http://www.w3.org/2000/svg"
   xmlns="http://www.w3.org/2000/svg"
   id="svg1021"
   version="1.1"
   viewBox="0 0 8.4666666 8.4666664"
   height="32"
   width="32">
  <defs
     id="defs1015" />
  <metadata
     id="metadata1018">
    <rdf:RDF>
      <cc:Work
         rdf:about="">
        <dc:format>image/svg+xml</dc:format>
        <dc:type
           rdf:resource="http://purl.org/dc/dcmitype/StillImage" />
        <dc:title></dc:title>
      </cc:Work>
    </rdf:RDF>
  </metadata>
  <g
     transform="matrix(0.98177945,0,0,0.98177945,0.07713364,0.07788224)"
     id="g830">
    <g
       transform="translate(-1.4257123e-8,2.7257414e-4)"
       id="g843">
      <path
         id="rect934"
         d="m 4.5488056,1.6366284 c -0.2392871,-0.00227 -0.6920094,0.00685 -0.6920094,0.00685 -0.021958,0 -0.039615,0.018423 -0.039615,0.041303 V 1.9657515 H 3.4048552 V 1.6847784 c 0,-0.022882 -0.017656,-0.041303 -0.039614,-0.041303 H 2.8735865 c -0.021957,0 -0.039713,0.018423 -0.039713,0.041303 v 1.0410915 c 0,0.022882 0.017743,0.041303 0.039713,0.041303 h 0.4916544 c 0.021958,0 0.039614,-0.018419 0.039614,-0.041303 V 2.4449961 h 0.4123264 v 0.2808738 c 0,0.022882 0.017658,0.041303 0.039615,0.041303 H 4.1056018 V 4.0919192 C 3.9629425,4.1485407 3.8624554,4.2872367 3.8624554,4.4505325 v 2.0077214 c 0,0.2138923 0.1721231,0.3860163 0.3860163,0.3860163 0.2138926,0 0.3861152,-0.172124 0.3861152,-0.3860163 V 4.4505325 c 0,-0.1632958 -0.1004863,-0.3019918 -0.2431464,-0.3586133 V 2.7671726 H 4.6608974 C 4.7038181,2.7293845 4.7451842,2.5778556 4.9744364,2.4619735 5.5900645,2.2504932 5.8573916,2.7743693 5.8527022,2.7020414 5.8476858,2.6248234 5.8135784,2.140583 5.2760608,1.8565394 5.041879,1.7512335 4.7665404,1.6477795 4.6922707,1.6434758 c -0.00766,-0.00404 -0.063703,-0.00609 -0.1434651,-0.00685 z"
         style="fill:#e5b62f;fill-opacity:1;fill-rule:nonzero;stroke:#e5b62f;stroke-width:0.27757847;stroke-linecap:butt;stroke-linejoin:miter;stroke-miterlimit:4;stroke-dasharray:none;stroke-dashoffset:0;stroke-opacity:1;paint-order:markers fill stroke" />
      <path
         id="path944"
         d="M 5.0870266,0.02653999 C 4.8758199,0.03005205 4.7086055,0.11753906 4.6071872,0.19293959 4.4719626,0.29347485 4.4285916,0.35098765 4.2240501,0.35149698 4.0195087,0.35201572 3.9760395,0.29458822 3.8403173,0.19472732 3.7045953,0.09486662 3.4517075,-0.02558771 3.1347059,0.06019763 2.8177043,0.14598316 2.6601506,0.37751587 2.5933102,0.53219385 2.5264701,0.68687087 2.5177153,0.75840947 2.3408309,0.86112094 2.1639468,0.96383337 2.0974656,0.93603597 1.9299939,0.91741509 1.7625249,0.89879421 1.4831239,0.92071966 1.2514869,1.1535129 1.019847,1.3863056 0.99901588,1.665936 1.0184673,1.8333106 1.0379159,2.0006862 1.0660866,2.0669533 0.96425832,2.2443463 0.86242717,2.4217392 0.79126264,2.4307061 0.63691896,2.498315 0.48257528,2.5659238 0.25151385,2.7244718 0.16730548,3.0418942 0.08309731,3.3593177 0.20517818,3.6115864 0.30570749,3.7468112 0.40623986,3.882036 0.46375536,3.9254064 0.46426411,4.1299487 0.46476364,4.3344901 0.40735381,4.3778588 0.30749464,4.5135806 0.2076326,4.6493044 0.08727894,4.9021925 0.17306408,5.2191932 c 0.0857851,0.3170006 0.31721758,0.4746537 0.4718969,0.5414944 0.15467644,0.066841 0.22621523,0.075596 0.32892786,0.2524808 0.10270996,0.176883 0.0749156,0.2432665 0.0562942,0.4107372 -0.018621,0.1674688 0.00329,0.4469683 0.2360972,0.6786053 0.2327935,0.2316371 0.5124223,0.2518776 0.6797977,0.2324248 0.1673754,-0.019455 0.2336429,-0.047027 0.4110359,0.054804 0.1773929,0.1018308 0.1863587,0.1729963 0.2539683,0.327339 0.06761,0.1543427 0.2261578,0.3853054 0.54358,0.4695143 C 3.4720844,8.2708 3.8613006,8.1099231 3.8595787,8.048191 3.8578304,7.9864608 3.5971671,8.0926721 3.3358556,7.9282562 3.0745441,7.7638403 3.0933309,7.66234 3.03572,7.5308219 2.9781088,7.3993057 2.8750532,7.1523792 2.587552,6.9873428 2.3000535,6.8223063 2.0349869,6.8580783 1.8923654,6.8746549 1.7497437,6.8912354 1.7402119,6.9201408 1.593024,6.773683 1.4458361,6.6272232 1.4751935,6.6178378 1.4910593,6.475136 1.506927,6.3324343 1.5410636,6.0674191 1.3745991,5.7807437 1.2081346,5.4940663 0.96093453,5.3921126 0.82913284,5.3351567 0.69733114,5.2782009 0.67477725,5.2989947 0.62053712,5.0985628 0.56629699,4.898131 0.59570787,4.9038525 0.68080252,4.7882002 0.76589409,4.6725497 0.92844829,4.4603559 0.92762253,4.1288555 0.9268156,3.7973556 0.76319183,3.585332 0.677526,3.4701069 0.59186035,3.3548807 0.56212996,3.3612378 0.6153743,3.1605391 0.66861576,2.9598403 0.69155948,2.980563 0.82307644,2.9229519 0.9545936,2.865342 1.2015197,2.7622845 1.3665571,2.4747841 1.5315916,2.1872846 1.495821,1.9222192 1.4792445,1.7795973 1.4626756,1.6369766 1.4338566,1.6274456 1.5803154,1.4802567 1.7267744,1.3330676 1.7360605,1.3618297 1.8787632,1.377696 2.0214631,1.3935618 2.28648,1.4282961 2.5731556,1.2618316 2.8598312,1.0953669 2.9612899,0.84816721 3.0182459,0.71636532 3.0752017,0.58456324 3.0550029,0.56200954 3.2554352,0.50776961 c 0.2004324,-0.0542399 0.1946112,-0.024825 0.3102624,0.0602654 0.1156515,0.0850914 0.327846,0.2476448 0.6593453,0.24681943 C 4.5565433,0.81402829 4.7679708,0.65052365 4.8831964,0.56485801 4.998422,0.4791914 4.9921642,0.44936437 5.1928634,0.5026066 5.3935621,0.55584863 5.3733362,0.57879196 5.4309463,0.71030874 5.4885567,0.8418257 5.5917135,1.0887537 5.8792135,1.25379 6.166714,1.4188262 6.4316795,1.3831524 6.5743008,1.3665765 6.7169227,1.3499999 6.7264529,1.3210889 6.873642,1.4675477 c 0.1471893,0.1464588 0.1179306,0.155746 0.1020644,0.2984484 -0.015866,0.1427014 -0.050103,0.4077161 0.1163609,0.6943914 0.166464,0.2866762 0.4136644,0.388136 0.5454663,0.4450911 0.1318018,0.056955 0.1544547,0.036757 0.208695,0.2371894 0.05424,0.2004312 0.024726,0.1946122 -0.060365,0.3102619 C 7.7007719,3.5685807 7.5382193,3.7807747 7.5390439,4.112275 7.53987,4.4437754 7.7034742,4.6552027 7.7891402,4.7704285 7.874806,4.8856543 7.9045341,4.8793967 7.8512923,5.0800957 7.7980493,5.2807946 7.7751067,5.2606675 7.64359,5.3182785 7.5120726,5.3758875 7.2651454,5.478946 7.1001091,5.7664456 6.9350734,6.0539472 6.9708458,6.3189124 6.9874217,6.4615335 7.0039983,6.6041546 7.0329087,6.613686 6.8864501,6.7608739 6.7399909,6.9080638 6.7306052,6.8788049 6.587903,6.8629391 6.445201,6.8470695 6.1801864,6.8129344 5.8935104,6.9793983 5.6068354,7.1458642 5.5047798,7.3930635 5.4478249,7.524864 5.4004987,7.6343856 5.4051276,7.6685284 5.2936367,7.708043 5.2777171,7.6992052 5.259198,7.69079 5.2372436,7.6825286 5.0523914,7.6129808 5.0281647,7.7070266 4.8764452,7.8200353 4.740011,7.9216605 4.6423578,7.9336011 4.648092,8.0676515 4.635208,8.0663115 4.623051,8.0661115 4.613343,8.0672672 4.582367,8.0708572 4.570122,8.0759872 4.537292,8.0571422 4.504462,8.0382942 4.502843,8.0251412 4.490331,7.9965802 4.477818,7.9680152 4.4485,7.9251902 4.389756,7.9096062 4.331009,7.8940252 4.2589764,7.9238042 4.2592973,7.9352202 c 3.074e-4,0.011412 0.048542,-0.00818 0.096901,0.022241 0.04836,0.030427 0.044838,0.04923 0.055499,0.073569 0.010659,0.024342 0.029796,0.070032 0.083002,0.1005762 0.053206,0.03054 0.1021781,0.023918 0.1285724,0.020848 0.020154,-0.00234 0.026174,-0.0058 0.039912,0.00467 0.040491,0.1388419 0.138553,0.1235179 0.3084754,0.187448 0.1848522,0.069548 0.2413459,0.1532207 0.3930652,0.04021 0.1111516,-0.082793 0.099986,-0.1425727 0.073172,-0.240169 C 5.6849116,8.0413129 5.8145317,7.8453114 5.8734551,7.7089556 5.940296,7.5542786 5.9490507,7.4828383 6.1259346,7.3801257 6.3028185,7.277415 6.369203,7.3051138 6.5366727,7.3237347 6.7041423,7.3423518 6.9836412,7.3205262 7.2152788,7.0877345 7.4469164,6.8549428 7.4676519,6.5752146 7.4481991,6.4078381 7.4287446,6.2404634 7.4006768,6.1742951 7.5025074,5.9969011 7.6043374,5.819509 7.6755037,5.8104426 7.8298466,5.7428333 7.9841901,5.675226 8.2151531,5.5167756 8.2993607,5.1993542 8.3835683,4.8819309 8.2614924,4.6296614 8.1609587,4.4944372 8.0604238,4.3592129 8.00301,4.3158423 8.0025016,4.111299 8.0020021,3.9067581 8.0594102,3.8632905 8.1592709,3.7275669 8.2591316,3.5918443 8.3794874,3.338956 8.2937013,3.0219559 8.2079159,2.7049558 7.976383,2.5474003 7.821705,2.48056 7.6670276,2.4137197 7.5955884,2.4049654 7.4928763,2.2280805 7.3901654,2.0511968 7.4178631,1.9847138 7.4364832,1.8172442 7.4551041,1.6497735 7.4332747,1.3703747 7.2004851,1.1387367 6.9676924,0.90709964 6.6879635,0.88626451 6.5205883,0.90571768 6.3532136,0.925172 6.2870448,0.95333828 6.1096519,0.85150886 5.932259,0.74967848 5.923193,0.67851165 5.8555841,0.52416912 5.7879751,0.36983505 5.6295262,0.13877343 5.3121033,0.05456506 5.2327476,0.03351302 5.1574288,0.02539703 5.0870266,0.02656727 Z"
         style="fill:#336790;fill-opacity:1;fill-rule:nonzero;stroke:#336790;stroke-width:0.19807783;stroke-linecap:round;stroke-linejoin:round;stroke-miterlimit:4;stroke-dasharray:none;stroke-dashoffset:0;stroke-opacity:1;paint-order:normal" />
    </g>
  </g>
</svg>
