<?xml version="1.0" encoding="UTF-8"?>
<svg id="svg1021" width="59.49mm" height="9.2219mm" version="1.1" viewBox="0 0 59.49 9.2219" xmlns="http://www.w3.org/2000/svg" xmlns:cc="http://creativecommons.org/ns#" xmlns:dc="http://purl.org/dc/elements/1.1/" xmlns:rdf="http://www.w3.org/1999/02/22-rdf-syntax-ns#">
 <metadata id="metadata1018">
  <rdf:RDF>
   <cc:Work rdf:about="">
    <dc:format>image/svg+xml</dc:format>
    <dc:type rdf:resource="http://purl.org/dc/dcmitype/StillImage"/>
    <dc:title/>
   </cc:Work>
  </rdf:RDF>
 </metadata>
 <g id="layer1" transform="translate(-25.477 -102.59)">
  <g id="g1747" transform="translate(0 -23.387)" stroke-width=".22458">
   <g id="text1023" fill="#336790" aria-label="SETUP">
    <path id="path1713" d="m28.181 134.8q-0.95916 0-2.1639-0.18715v-1.427q1.4095 0.21055 2.1639 0.21055 1.041 0 1.041-1.1112 0-0.30997-0.15206-0.58485-0.14621-0.28073-0.41524-0.386-0.16961-0.0643-0.46788-0.10527-0.29827-0.0409-0.61409-0.11697-0.30997-0.0819-0.59655-0.25149-1.0995-0.65503-1.0995-2.0704 0-1.0118 0.64334-1.7019 0.64918-0.69012 1.661-0.69012 0.78955 0 2.1639 0.14621v1.4095q-1.4212-0.15206-2.1639-0.15206-0.22224 0-0.39185 0.0994-0.16376 0.0994-0.25149 0.25734-0.08773 0.15791-0.12867 0.32167-0.03509 0.16375-0.03509 0.32166 0 0.69013 0.46788 0.90067 0.15206 0.0702 0.69012 0.15791 0.54391 0.0819 0.87728 0.25734 0.46788 0.23979 0.772 0.61994 0.30412 0.38015 0.42109 0.76616 0.11697 0.386 0.11697 0.80124 0 1.1346-0.70182 1.8247-0.70182 0.69012-1.8364 0.69012z" style="font-feature-settings:normal;font-variant-caps:normal;font-variant-ligatures:normal;font-variant-numeric:normal"/>
    <path id="path1715" d="m32.036 126.47h4.4917v1.4036h-2.9944v1.9885h2.2458v1.4036h-2.2458v2.0353h2.9944v1.4036h-4.4917z" style="font-feature-settings:normal;font-variant-caps:normal;font-variant-ligatures:normal;font-variant-numeric:normal"/>
    <path id="path1717" d="m42.885 126.47v1.4036h-1.8715v6.831h-1.4972v-6.831h-1.8715v-1.4036z" style="font-feature-settings:normal;font-variant-caps:normal;font-variant-ligatures:normal;font-variant-numeric:normal"/>
    <path id="path1719" d="m43.627 126.47h1.4972v5.2403q0 0.54976 0.04094 0.74861 0.08773 0.42109 0.3743 0.67842 0.29242 0.25734 0.70767 0.25734t0.70182-0.25734q0.29242-0.25733 0.38015-0.67842 0.04094-0.19885 0.04094-0.74861v-5.2403h1.4972v5.2403q0 0.82464-0.09358 1.2223-0.19885 0.82463-0.88897 1.3452-0.68428 0.52052-1.6376 0.52052t-1.6434-0.52052q-0.68428-0.52052-0.88312-1.3452-0.09358-0.3977-0.09358-1.2223z" style="font-feature-settings:normal;font-variant-caps:normal;font-variant-ligatures:normal;font-variant-numeric:normal"/>
    <path id="path1721" d="m51.482 127.88v2.3862h0.36261q0.50297 0 0.73106-0.0468 0.3977-0.0819 0.63164-0.39185 0.23979-0.30997 0.23979-0.75446t-0.23979-0.75446q-0.23394-0.30997-0.63164-0.39185-0.22809-0.0468-0.73106-0.0468zm-1.4972-1.4036h1.8481q0.86558 0 1.234 0.0877 0.83049 0.19885 1.351 0.87143 0.52636 0.66673 0.52636 1.6376t-0.52636 1.6434q-0.52052 0.66673-1.351 0.86558-0.36846 0.0877-1.234 0.0877h-0.35091v3.0412h-1.4972z" style="font-feature-settings:normal;font-variant-caps:normal;font-variant-ligatures:normal;font-variant-numeric:normal"/>
   </g>
   <g id="text1661" fill="#e5b62f" aria-label="TOOLS">
    <path id="path1724" d="m60.834 126.47v1.4036h-1.8715v6.831h-1.4972v-6.831h-1.8715v-1.4036z" style="font-feature-settings:normal;font-variant-caps:normal;font-variant-ligatures:normal;font-variant-numeric:normal"/>
    <path id="path1726" d="m63.068 129.08q-0.08773 0.47958-0.08773 1.5089 0 1.0293 0.08773 1.5089 0.10527 0.5673 0.386 0.93576 0.28658 0.36261 0.74276 0.36261 0.45618 0 0.73691-0.36261 0.28658-0.36846 0.39185-0.93576 0.08773-0.48543 0.08773-1.5089 0-1.0293-0.08773-1.5089-0.10527-0.56731-0.39185-0.92991-0.28073-0.36846-0.73691-0.36846-0.45618 0-0.74276 0.36846-0.28073 0.3626-0.386 0.92991zm-1.4212 3.55q-0.16376-0.64918-0.16376-2.0411 0-1.3919 0.16376-2.0411 0.23394-0.94745 0.88312-1.5557 0.64918-0.61409 1.6668-0.61409 1.0176 0 1.6668 0.61409 0.64918 0.60825 0.88312 1.5557 0.16376 0.64919 0.16376 2.0411 0 1.392-0.16376 2.0411-0.23394 0.94746-0.88312 1.5616-0.64918 0.60825-1.6668 0.60825-1.0176 0-1.6668-0.60825-0.64918-0.61409-0.88312-1.5616z" style="font-feature-settings:normal;font-variant-caps:normal;font-variant-ligatures:normal;font-variant-numeric:normal"/>
    <path id="path1728" d="m69.051 129.08q-0.08773 0.47958-0.08773 1.5089 0 1.0293 0.08773 1.5089 0.10527 0.5673 0.386 0.93576 0.28658 0.36261 0.74276 0.36261 0.45618 0 0.73691-0.36261 0.28658-0.36846 0.39185-0.93576 0.08773-0.48543 0.08773-1.5089 0-1.0293-0.08773-1.5089-0.10527-0.56731-0.39185-0.92991-0.28073-0.36846-0.73691-0.36846-0.45618 0-0.74276 0.36846-0.28073 0.3626-0.386 0.92991zm-1.4212 3.55q-0.16376-0.64918-0.16376-2.0411 0-1.3919 0.16376-2.0411 0.23394-0.94745 0.88312-1.5557 0.64918-0.61409 1.6668-0.61409 1.0176 0 1.6668 0.61409 0.64918 0.60825 0.88312 1.5557 0.16376 0.64919 0.16376 2.0411 0 1.392-0.16376 2.0411-0.23394 0.94746-0.88312 1.5616-0.64918 0.60825-1.6668 0.60825-1.0176 0-1.6668-0.60825-0.64918-0.61409-0.88312-1.5616z" style="font-feature-settings:normal;font-variant-caps:normal;font-variant-ligatures:normal;font-variant-numeric:normal"/>
    <path id="path1730" d="m73.917 134.71v-8.2347h1.4972v6.8311h3.3687v1.4036z" style="font-feature-settings:normal;font-variant-caps:normal;font-variant-ligatures:normal;font-variant-numeric:normal"/>
    <path id="path1732" d="m82.029 134.8q-0.95916 0-2.1639-0.18715v-1.427q1.4095 0.21055 2.1639 0.21055 1.041 0 1.041-1.1112 0-0.30997-0.15206-0.58485-0.14621-0.28073-0.41524-0.386-0.16961-0.0643-0.46788-0.10527-0.29827-0.0409-0.61409-0.11697-0.30997-0.0819-0.59655-0.25149-1.0995-0.65503-1.0995-2.0704 0-1.0118 0.64334-1.7019 0.64918-0.69012 1.661-0.69012 0.78955 0 2.1639 0.14621v1.4095q-1.4212-0.15206-2.1639-0.15206-0.22224 0-0.39185 0.0994-0.16376 0.0994-0.25149 0.25734-0.08773 0.15791-0.12867 0.32167-0.03509 0.16375-0.03509 0.32166 0 0.69013 0.46788 0.90067 0.15206 0.0702 0.69012 0.15791 0.54391 0.0819 0.87728 0.25734 0.46788 0.23979 0.772 0.61994 0.30412 0.38015 0.42109 0.76616 0.11697 0.386 0.11697 0.80124 0 1.1346-0.70182 1.8247-0.70182 0.69012-1.8364 0.69012z" style="font-feature-settings:normal;font-variant-caps:normal;font-variant-ligatures:normal;font-variant-numeric:normal"/>
   </g>
  </g>
 </g>
</svg>
