<?xml version="1.0" encoding="UTF-8"?>
<svg id="svg1021" width="242.7mm" height="125.92mm" version="1.1" viewBox="0 0 242.7 125.92" xmlns="http://www.w3.org/2000/svg" xmlns:cc="http://creativecommons.org/ns#" xmlns:dc="http://purl.org/dc/elements/1.1/" xmlns:rdf="http://www.w3.org/1999/02/22-rdf-syntax-ns#">
 <metadata id="metadata1018">
  <rdf:RDF>
   <cc:Work rdf:about="">
    <dc:format>image/svg+xml</dc:format>
    <dc:type rdf:resource="http://purl.org/dc/dcmitype/StillImage"/>
    <dc:title/>
   </cc:Work>
  </rdf:RDF>
 </metadata>
 <g id="layer1" transform="translate(113.76 -68.446)">
  <path id="rect1633" d="m-111.69 133.32h61.237c0.87182 0 1.5737 0.70186 1.5737 1.5737v57.404c0 0.87182-0.70186 1.5737-1.5737 1.5737h-61.237c-0.87182 0-1.5737-0.70186-1.5737-1.5737v-57.404c0-0.87182 0.70186-1.5737 1.5737-1.5737z" fill="#fff" style="paint-order:markers fill stroke"/>
  <path id="rect1616" d="m-111.69 68.946h61.237c0.87182 0 1.5737 0.70186 1.5737 1.5737v57.404c0 0.87182-0.70186 1.5737-1.5737 1.5737h-61.237c-0.87182 0-1.5737-0.70186-1.5737-1.5737v-57.404c0-0.87182 0.70186-1.5737 1.5737-1.5737z" fill="#fff" style="paint-order:markers fill stroke"/>
  <path id="rect934" transform="matrix(.26458 0 0 .26458 -113.76 68.446)" d="m129.77 43.688c-4.7073-0.044694-13.613 0.13281-13.613 0.13281-0.43194 0-0.77929 0.36438-0.77929 0.81445v5.5254h-8.1113v-5.5254c0-0.45012-0.34735-0.81445-0.7793-0.81445h-9.6719c-0.43195 0-0.7793 0.36438-0.7793 0.81445v20.48c0 0.45012 0.34707 0.8125 0.7793 0.8125h9.6719c0.43195 0 0.7793-0.36232 0.7793-0.8125v-5.5254h8.1113v5.5254c0 0.45012 0.34739 0.8125 0.77929 0.8125h4.8945v26.061c-2.8064 1.1139-4.7832 3.8423-4.7832 7.0547v39.494c0 4.2077 3.388 7.5957 7.5957 7.5957 4.2077 0 7.5957-3.388 7.5957-7.5957v-39.494c0-3.2119-1.9775-5.9405-4.7832-7.0547v-26.061h5.3008c0.84434-0.74337 1.6581-3.7262 6.168-6.0059 12.111-4.1603 17.37 6.1474 17.277 4.7246-0.09865-1.519-0.7716-11.047-11.346-16.635-4.6068-2.0716-10.023-4.1068-11.484-4.1914-0.15078-0.079455-1.2532-0.11791-2.8223-0.13281z" fill="#e5b62f" stroke="#e5b62f" stroke-width="1.8045" style="paint-order:markers fill stroke"/>
  <path id="path944" transform="matrix(.26458 0 0 .26458 -113.76 68.446)" d="m140.35 12.014c-4.1549 0.06908-7.4443 1.7901-9.4395 3.2734-2.6602 1.9777-3.5133 3.1091-7.5371 3.1191-4.0238 0.010205-4.8769-1.1215-7.5469-3.0859-2.6699-1.9645-7.6448-4.3321-13.881-2.6445-6.2361 1.6876-9.3375 6.2423-10.652 9.2852-1.3149 3.0428-1.4871 4.4482-4.9668 6.4688-3.4797 2.0206-4.7856 1.4757-8.0801 1.1094-3.2945-0.36631-8.7928 0.065007-13.35 4.6445-4.5568 4.5795-4.9647 10.08-4.582 13.373 0.38259 3.2926 0.93482 4.5962-1.0684 8.0859-2.0032 3.4897-3.4032 3.6661-6.4395 4.9961-3.0363 1.33-7.5798 4.449-9.2363 10.693-1.6566 6.2444 0.74506 11.207 2.7227 13.867 1.9777 2.6602 3.1072 3.5133 3.1172 7.5371 0.011339 4.0238-1.1195 4.8769-3.084 7.5469-1.9645 2.67-4.3321 7.6448-2.6445 13.881 1.6876 6.236 6.2423 9.3374 9.2852 10.652 3.0428 1.3149 4.4482 1.4871 6.4688 4.9668 2.0205 3.4797 1.4757 4.7856 1.1094 8.0801-0.36631 3.2945 0.062774 8.7928 4.6426 13.35 4.5795 4.5568 10.08 4.9549 13.373 4.5723 3.2926-0.38272 4.5962-0.9251 8.0859 1.0781 3.4897 2.0032 3.668 3.4032 4.998 6.4394 1.33 3.0362 4.447 7.5798 10.691 9.2363 6.2444 1.6565 13.901-1.5082 13.867-2.7226-0.03439-1.2144-5.1602 0.87503-10.301-2.3594-5.1406-3.2344-4.7729-5.2312-5.9062-7.8184-1.1333-2.5872-3.1606-7.4448-8.8164-10.691-5.6557-3.2466-10.868-2.5429-13.674-2.2168-2.8057 0.32617-2.9932 0.89285-5.8887-1.9883-2.8955-2.8812-2.3199-3.0638-2.0078-5.8711 0.31219-2.8073 0.98369-8.0206-2.291-13.66-3.2747-5.6395-8.1377-7.6472-10.73-8.7676-2.5928-1.1204-3.0365-0.71142-4.1035-4.6543-1.067-3.943-0.4865-3.8284 1.1875-6.1035 1.6739-2.2751 4.8698-6.4494 4.8535-12.971-0.015874-6.5213-3.2327-10.692-4.918-12.959-1.6852-2.2667-2.2701-2.1417-1.2227-6.0898 1.0474-3.9482 1.4987-3.5405 4.0859-4.6738 2.5872-1.1333 7.4448-3.1626 10.691-8.8184 3.2466-5.6557 2.5429-10.868 2.2168-13.674-0.32591-2.8057-0.89483-2.9932 1.9863-5.8887 2.8812-2.8955 3.0638-2.3297 5.8711-2.0176 2.8072 0.31211 8.0226 0.99541 13.662-2.2793 5.6395-3.2747 7.6354-8.1376 8.7559-10.73 1.1204-2.5928 0.72115-3.0365 4.6641-4.1035 3.9429-1.067 3.8284-0.48836 6.1035 1.1855 2.2751 1.6739 6.4514 4.8717 12.973 4.8555 6.5213-0.016252 10.681-3.2347 12.947-4.9199 2.2667-1.6852 2.1417-2.2701 6.0898-1.2227 3.9482 1.0474 3.5522 1.4987 4.6855 4.0859 1.1333 2.5872 3.1607 7.4448 8.8164 10.691s10.87 2.5429 13.676 2.2168c2.8057-0.3261 2.9932-0.89287 5.8887 1.9883s2.318 3.0638 2.0059 5.8711c-0.31211 2.8072-0.98369 8.0207 2.291 13.66 3.2747 5.6395 8.1376 7.6355 10.73 8.7559 2.5928 1.1204 3.0365 0.72311 4.1035 4.666 1.067 3.9429 0.48642 3.8284-1.1875 6.1035-1.6739 2.2751-4.8697 6.4494-4.8535 12.971 0.01625 6.5213 3.2327 10.681 4.918 12.947 1.6852 2.2667 2.27 2.1436 1.2226 6.0918-1.0474 3.9482-1.4968 3.5503-4.084 4.6836-2.5872 1.1333-7.4448 3.1626-10.691 8.8184-3.2466 5.6557-2.5448 10.868-2.2188 13.674 0.3261 2.8056 0.89483 2.9932-1.9863 5.8887-2.8812 2.8955-3.0638 2.32-5.8711 2.0078-2.8072-0.31219-8.0206-0.9856-13.66 2.2891-5.6395 3.2747-7.6472 8.1376-8.7676 10.73-0.93129 2.1552-0.84174 2.8278-3.0371 3.6055-0.31286-0.1736-0.67425-0.33971-1.1055-0.50195-3.6364-1.3682-4.115 0.48194-7.0996 2.7051-2.684 1.9992-4.6031 2.234-4.4902 4.8711-0.25407-0.02563-0.4922-0.03006-0.68359-0.00781-0.60936 0.07067-0.85026 0.17155-1.4961-0.19922s-0.67964-0.63142-0.92579-1.1934c-0.24616-0.56187-0.82291-1.4024-1.9785-1.709-1.1557-0.30652-2.5727 0.2791-2.5664 0.50391 0.00643 0.2245 0.95492-0.16129 1.9062 0.4375 0.95134 0.5986 0.88402 0.96652 1.0938 1.4453 0.20965 0.47887 0.5842 1.3796 1.6309 1.9805 1.0467 0.60083 2.012 0.47055 2.5312 0.41016 0.39726-0.04627 0.51372-0.11363 0.78516 0.09375 0.79695 2.7289 2.7246 2.4282 6.0664 3.6855 3.6364 1.3682 4.7478 3.0142 7.7324 0.79102 2.1873-1.6292 1.9673-2.8055 1.4394-4.7266 4.8594-2.0322 7.4092-5.8859 8.5684-8.5684 1.3149-3.0428 1.4871-4.4482 4.9668-6.4688 3.4797-2.0206 4.7875-1.4757 8.082-1.1094 3.2945 0.36624 8.7908-0.06484 13.348-4.6445 4.5568-4.5795 4.9667-10.08 4.584-13.373-0.38271-3.2926-0.93681-4.5962 1.0664-8.0859 2.0032-3.4897 3.4032-3.666 6.4395-4.9961 3.0362-1.33 7.5817-4.449 9.2383-10.693 1.6565-6.2444-0.74494-11.207-2.7227-13.867-1.9777-2.6601-3.1091-3.5133-3.1191-7.5371-0.00983-4.0238 1.1195-4.8769 3.084-7.5469 1.9645-2.6699 4.3341-7.6448 2.6465-13.881-1.6876-6.2361-6.2423-9.3375-9.2852-10.652s-4.4502-1.4852-6.4707-4.9648-1.4737-4.7876-1.1074-8.082c0.36631-3.2945-0.065-8.7928-4.6445-13.35-4.5795-4.5568-10.08-4.9647-13.373-4.582-3.2926 0.38271-4.5962 0.93681-8.0859-1.0664-3.4897-2.0032-3.6661-3.4032-4.9961-6.4395-1.33-3.0363-4.449-7.5817-10.693-9.2383-1.5611-0.41413-3.0428-0.57381-4.4277-0.55078z" fill="#336790" style="paint-order:markers fill stroke"/>
  <g id="text1023" fill="#336790" stroke-width=".22458" aria-label="SETUP">
   <path id="path1513" d="m-108.11 126.82q-0.95915 0-2.1639-0.18715v-1.427q1.4095 0.21055 2.1639 0.21055 1.041 0 1.041-1.1112 0-0.30997-0.15206-0.58485-0.14622-0.28073-0.41525-0.386-0.1696-0.0643-0.46788-0.10527-0.29827-0.0409-0.61409-0.11697-0.30997-0.0819-0.59655-0.25149-1.0995-0.65503-1.0995-2.0704 0-1.0118 0.64334-1.7019 0.64918-0.69012 1.661-0.69012 0.78955 0 2.164 0.14621v1.4095q-1.4212-0.15206-2.164-0.15206-0.22224 0-0.39185 0.0994-0.16376 0.0994-0.25148 0.25733-0.0877 0.15791-0.12867 0.32167-0.0351 0.16376-0.0351 0.32167 0 0.69012 0.46788 0.90067 0.15206 0.0702 0.69012 0.15791 0.54391 0.0819 0.87728 0.25733 0.46788 0.23979 0.772 0.61994 0.30413 0.38015 0.4211 0.76616 0.11697 0.386 0.11697 0.80124 0 1.1346-0.70183 1.8247-0.70182 0.69012-1.8364 0.69012z" style="font-feature-settings:normal;font-variant-caps:normal;font-variant-ligatures:normal;font-variant-numeric:normal"/>
   <path id="path1515" d="m-104.26 118.49h4.4917v1.4036h-2.9944v1.9885h2.2458v1.4036h-2.2458v2.0353h2.9944v1.4036h-4.4917z" style="font-feature-settings:normal;font-variant-caps:normal;font-variant-ligatures:normal;font-variant-numeric:normal"/>
   <path id="path1517" d="m-93.406 118.49v1.4036h-1.8715v6.831h-1.4972v-6.831h-1.8715v-1.4036z" style="font-feature-settings:normal;font-variant-caps:normal;font-variant-ligatures:normal;font-variant-numeric:normal"/>
   <path id="path1519" d="m-92.663 118.49h1.4972v5.2403q0 0.54976 0.04094 0.74861 0.08773 0.42109 0.3743 0.67842 0.29242 0.25734 0.70767 0.25734t0.70182-0.25734q0.29243-0.25733 0.38015-0.67842 0.04094-0.19885 0.04094-0.74861v-5.2403h1.4972v5.2403q0 0.82464-0.09358 1.2223-0.19885 0.82464-0.88897 1.3452-0.68428 0.52052-1.6376 0.52052t-1.6434-0.52052q-0.68428-0.52051-0.88312-1.3452-0.09358-0.3977-0.09358-1.2223z" style="font-feature-settings:normal;font-variant-caps:normal;font-variant-ligatures:normal;font-variant-numeric:normal"/>
   <path id="path1521" d="m-84.809 119.89v2.3862h0.36261q0.50297 0 0.73106-0.0468 0.3977-0.0819 0.63164-0.39185 0.23979-0.30997 0.23979-0.75446 0-0.44448-0.23979-0.75446-0.23394-0.30997-0.63164-0.39185-0.22809-0.0468-0.73106-0.0468zm-1.4972-1.4036h1.8481q0.86558 0 1.234 0.0877 0.83049 0.19885 1.351 0.87143 0.52637 0.66673 0.52637 1.6376t-0.52637 1.6434q-0.52052 0.66673-1.351 0.86558-0.36846 0.0877-1.234 0.0877h-0.35091v3.0412h-1.4972z" style="font-feature-settings:normal;font-variant-caps:normal;font-variant-ligatures:normal;font-variant-numeric:normal"/>
  </g>
  <g id="text1661" fill="#e5b62f" stroke-width=".22458" aria-label="TOOLS">
   <path id="path1524" d="m-75.457 118.49v1.4036h-1.8715v6.831h-1.4972v-6.831h-1.8715v-1.4036z" style="font-feature-settings:normal;font-variant-caps:normal;font-variant-ligatures:normal;font-variant-numeric:normal"/>
   <path id="path1526" d="m-73.223 121.1q-0.08773 0.47958-0.08773 1.5089 0 1.0293 0.08773 1.5089 0.10527 0.5673 0.386 0.93576 0.28658 0.36261 0.74276 0.36261 0.45618 0 0.73691-0.36261 0.28658-0.36846 0.39185-0.93576 0.08773-0.48543 0.08773-1.5089 0-1.0293-0.08773-1.5089-0.10527-0.56731-0.39185-0.92991-0.28073-0.36846-0.73691-0.36846-0.45618 0-0.74276 0.36846-0.28073 0.3626-0.386 0.92991zm-1.4212 3.55q-0.16376-0.64918-0.16376-2.0411 0-1.3919 0.16376-2.0411 0.23394-0.94746 0.88312-1.5557 0.64918-0.61409 1.6668-0.61409 1.0176 0 1.6668 0.61409 0.64918 0.60825 0.88312 1.5557 0.16376 0.64918 0.16376 2.0411 0 1.392-0.16376 2.0411-0.23394 0.94746-0.88312 1.5616-0.64918 0.60824-1.6668 0.60824-1.0176 0-1.6668-0.60824-0.64918-0.6141-0.88312-1.5616z" style="font-feature-settings:normal;font-variant-caps:normal;font-variant-ligatures:normal;font-variant-numeric:normal"/>
   <path id="path1528" d="m-67.24 121.1q-0.08773 0.47958-0.08773 1.5089 0 1.0293 0.08773 1.5089 0.10527 0.5673 0.386 0.93576 0.28658 0.36261 0.74276 0.36261 0.45618 0 0.73691-0.36261 0.28658-0.36846 0.39185-0.93576 0.08773-0.48543 0.08773-1.5089 0-1.0293-0.08773-1.5089-0.10527-0.56731-0.39185-0.92991-0.28073-0.36846-0.73691-0.36846-0.45618 0-0.74276 0.36846-0.28073 0.3626-0.386 0.92991zm-1.4212 3.55q-0.16376-0.64918-0.16376-2.0411 0-1.3919 0.16376-2.0411 0.23394-0.94746 0.88312-1.5557 0.64918-0.61409 1.6668-0.61409 1.0176 0 1.6668 0.61409 0.64918 0.60825 0.88312 1.5557 0.16376 0.64918 0.16376 2.0411 0 1.392-0.16376 2.0411-0.23394 0.94746-0.88312 1.5616-0.64918 0.60824-1.6668 0.60824-1.0176 0-1.6668-0.60824-0.64918-0.6141-0.88312-1.5616z" style="font-feature-settings:normal;font-variant-caps:normal;font-variant-ligatures:normal;font-variant-numeric:normal"/>
   <path id="path1530" d="m-62.374 126.73v-8.2347h1.4972v6.8311h3.3687v1.4036z" style="font-feature-settings:normal;font-variant-caps:normal;font-variant-ligatures:normal;font-variant-numeric:normal"/>
   <path id="path1532" d="m-54.262 126.82q-0.95916 0-2.1639-0.18715v-1.427q1.4095 0.21055 2.1639 0.21055 1.041 0 1.041-1.1112 0-0.30997-0.15206-0.58485-0.14621-0.28073-0.41524-0.386-0.16961-0.0643-0.46788-0.10527-0.29827-0.0409-0.61409-0.11697-0.30997-0.0819-0.59655-0.25149-1.0995-0.65503-1.0995-2.0704 0-1.0118 0.64334-1.7019 0.64918-0.69012 1.661-0.69012 0.78955 0 2.1639 0.14621v1.4095q-1.4212-0.15206-2.1639-0.15206-0.22224 0-0.39185 0.0994-0.16376 0.0994-0.25149 0.25733-0.08773 0.15791-0.12867 0.32167-0.03509 0.16376-0.03509 0.32167 0 0.69012 0.46788 0.90067 0.15206 0.0702 0.69012 0.15791 0.54391 0.0819 0.87728 0.25733 0.46788 0.23979 0.772 0.61994 0.30412 0.38015 0.42109 0.76616 0.11697 0.386 0.11697 0.80124 0 1.1346-0.70182 1.8247-0.70182 0.69012-1.8364 0.69012z" style="font-feature-settings:normal;font-variant-caps:normal;font-variant-ligatures:normal;font-variant-numeric:normal"/>
  </g>
  <path id="rect905" transform="matrix(.26458 0 0 .26458 -113.76 68.446)" d="m129.77 286.97c-4.7073-0.0447-13.613 0.13476-13.613 0.13476-0.43194 0-0.77929 0.36236-0.77929 0.8125v5.5274h-8.1113v-5.5274c0-0.4501-0.34735-0.8125-0.7793-0.8125h-9.6719c-0.43195 0-0.7793 0.36236-0.7793 0.8125v20.482c0 0.45011 0.34707 0.81055 0.7793 0.81055h9.6719c0.43195 0 0.7793-0.36052 0.7793-0.81055v-5.5273h8.1113v5.5273c0 0.45011 0.34739 0.81055 0.77929 0.81055h4.8945v26.061c-2.8064 1.1138-4.7832 3.8423-4.7832 7.0547v39.496c0 4.2078 3.388 7.5938 7.5957 7.5938 4.2077 0 7.5957-3.386 7.5957-7.5938v-39.496c0-3.2119-1.9775-5.9405-4.7832-7.0547v-26.061h5.3008c0.84434-0.74336 1.6581-3.7242 6.168-6.0039 12.111-4.1602 17.37 6.1455 17.277 4.7227-0.09865-1.519-0.7716-11.045-11.346-16.633-4.6068-2.0716-10.023-4.1068-11.484-4.1914-0.15078-0.07946-1.2532-0.11986-2.8223-0.13476z" stroke="#000" stroke-width="1.8045" style="paint-order:markers fill stroke"/>
  <path id="path913" transform="matrix(.26458 0 0 .26458 -113.76 68.446)" d="m140.35 255.3c-4.1549 0.06908-7.4443 1.7902-9.4395 3.2734-2.6602 1.9777-3.5133 3.1091-7.5371 3.1191-4.0238 0.01133-4.8769-1.1195-7.5469-3.084-2.6699-1.9645-7.6448-4.3321-13.881-2.6445-6.2361 1.6876-9.3375 6.2404-10.652 9.2832-1.3149 3.0428-1.4871 4.4502-4.9668 6.4707-3.4797 2.0206-4.7856 1.4737-8.0801 1.1074-3.2945-0.36624-8.7928 0.06484-13.35 4.6445-4.5568 4.5795-4.9647 10.08-4.582 13.373 0.38259 3.2926 0.93482 4.5962-1.0684 8.0859-2.0032 3.4897-3.4032 3.6661-6.4395 4.9961-3.0363 1.33-7.5798 4.4489-9.2363 10.693-1.6566 6.2444 0.74506 11.207 2.7227 13.867 1.9777 2.6601 3.1072 3.5133 3.1172 7.5371 0.011339 4.0238-1.1195 4.8789-3.084 7.5488-1.9645 2.67-4.3321 7.6428-2.6445 13.879 1.6876 6.2361 6.2423 9.3374 9.2852 10.652 3.0428 1.3149 4.4482 1.4871 6.4688 4.9668 2.0205 3.4797 1.4757 4.7875 1.1094 8.082-0.36631 3.2945 0.062774 8.7908 4.6426 13.348 4.5795 4.5568 10.08 4.9549 13.373 4.5723 3.2926-0.38271 4.5962-0.92514 8.0859 1.0781 3.4897 2.0032 3.668 3.4032 4.998 6.4394 1.33 3.0363 4.447 7.5797 10.691 9.2363 6.2444 1.6565 13.901-1.5063 13.867-2.7207-0.03439-1.2144-5.1602 0.87304-10.301-2.3613-5.1406-3.2344-4.7729-5.2312-5.9062-7.8184-1.1333-2.5872-3.1606-7.4448-8.8164-10.691-5.6557-3.2466-10.868-2.5429-13.674-2.2168-2.8057 0.32618-2.9932 0.89481-5.8887-1.9863-2.8955-2.8812-2.3199-3.0638-2.0078-5.8711 0.31219-2.8073 0.98369-8.0226-2.291-13.662-3.2747-5.6395-8.1377-7.6452-10.73-8.7656-2.5928-1.1204-3.0365-0.71142-4.1035-4.6543-1.067-3.943-0.4865-3.8303 1.1875-6.1055 1.6739-2.2751 4.8698-6.4494 4.8535-12.971-0.015874-6.5214-3.2327-10.69-4.918-12.957-1.6852-2.2667-2.2701-2.1436-1.2227-6.0918 1.0474-3.9482 1.4987-3.5405 4.0859-4.6738 2.5872-1.1333 7.4448-3.1606 10.691-8.8164 3.2466-5.6557 2.5429-10.87 2.2168-13.676-0.32591-2.8057-0.89483-2.9931 1.9863-5.8887 2.8812-2.8955 3.0638-2.3297 5.8711-2.0176 2.8072 0.31219 8.0226 0.9954 13.662-2.2793 5.6395-3.2747 7.6354-8.1377 8.7559-10.73 1.1204-2.5928 0.72115-3.0365 4.6641-4.1035 3.9429-1.067 3.8284-0.48641 6.1035 1.1875 2.2751 1.6739 6.4514 4.8697 12.973 4.8535 6.5213-0.01512 10.681-3.2328 12.947-4.918 2.2667-1.6852 2.1417-2.2701 6.0898-1.2226 3.9482 1.0474 3.5522 1.4967 4.6855 4.084 1.1333 2.5872 3.1607 7.4448 8.8164 10.691 5.6557 3.2466 10.87 2.5448 13.676 2.2188 2.8057-0.32618 2.9932-0.89485 5.8887 1.9863 2.8955 2.8811 2.318 3.0638 2.0059 5.8711-0.31211 2.8072-0.98369 8.0206 2.291 13.66 3.2747 5.6395 8.1376 7.6355 10.73 8.7559 2.5928 1.1205 3.0365 0.7231 4.1035 4.666 1.067 3.9429 0.48642 3.8284-1.1875 6.1035-1.6739 2.2751-4.8697 6.4494-4.8535 12.971 0.01625 6.5213 3.2327 10.682 4.918 12.949 1.6852 2.2667 2.27 2.1417 1.2226 6.0898-1.0474 3.9482-1.4968 3.5522-4.084 4.6856-2.5872 1.1333-7.4448 3.1607-10.691 8.8164-3.2466 5.6557-2.5448 10.868-2.2188 13.674 0.3261 2.8057 0.89483 2.9932-1.9863 5.8887-2.8812 2.8955-3.0638 2.32-5.8711 2.0078-2.8072-0.31219-8.0206-0.98365-13.66 2.291-5.6395 3.2747-7.6472 8.1376-8.7676 10.73-0.93126 2.1551-0.84198 2.8259-3.0371 3.6035-0.31272-0.17348-0.67455-0.33983-1.1055-0.50196-3.6364-1.3681-4.115 0.48194-7.0996 2.7051-2.6846 1.9997-4.6041 2.2342-4.4902 4.873-0.2541-0.02564-0.49218-0.03202-0.68359-0.00977-0.60936 0.07068-0.85026 0.17156-1.4961-0.19922-0.64583-0.37077-0.67964-0.62946-0.92579-1.1914-0.24616-0.56187-0.82291-1.4044-1.9785-1.7109-1.1557-0.30652-2.5727 0.2791-2.5664 0.50391 0.00643 0.2245 0.95492-0.16129 1.9062 0.4375 0.95134 0.5986 0.88402 0.96847 1.0938 1.4473 0.20965 0.47887 0.5842 1.3777 1.6309 1.9785 1.0467 0.60083 2.012 0.47055 2.5312 0.41015 0.39726-0.04626 0.51372-0.11362 0.78516 0.09375 0.79695 2.7289 2.7246 2.4282 6.0664 3.6856 3.6364 1.3682 4.7478 3.0142 7.7324 0.79102 2.1872-1.6292 1.9673-2.8037 1.4394-4.7246 4.8594-2.0321 7.4092-5.8859 8.5684-8.5684 1.3149-3.0428 1.4871-4.4502 4.9668-6.4707 3.4797-2.0206 4.7875-1.4757 8.082-1.1094 3.2945 0.36624 8.7908-0.06293 13.348-4.6426 4.5568-4.5795 4.9667-10.082 4.584-13.375-0.38271-3.2926-0.93681-4.5942 1.0664-8.084 2.0032-3.4896 3.4032-3.668 6.4395-4.998 3.0362-1.33 7.5817-4.447 9.2383-10.691 1.6565-6.2443-0.74494-11.207-2.7227-13.867-1.9777-2.6602-3.1091-3.5133-3.1191-7.5371-0.00983-4.0237 1.1195-4.8789 3.084-7.5488 1.9645-2.6699 4.3341-7.6448 2.6465-13.881-1.6876-6.236-6.2423-9.3355-9.2852-10.65-3.0428-1.3149-4.4502-1.4871-6.4707-4.9668-2.0206-3.4797-1.4737-4.7876-1.1074-8.082 0.36631-3.2945-0.065-8.7909-4.6445-13.348-4.5795-4.5568-10.08-4.9667-13.373-4.584-3.2926 0.38271-4.5962 0.93678-8.0859-1.0664-3.4897-2.0032-3.6661-3.4032-4.9961-6.4394s-4.449-7.5798-10.693-9.2363c-1.5611-0.41413-3.0428-0.57576-4.4277-0.55273z" style="paint-order:markers fill stroke"/>
  <g id="text925" stroke-width=".22458" aria-label="SETUP">
   <path id="path1488" d="m-108.11 191.19q-0.95915 0-2.1639-0.18715v-1.427q1.4095 0.21054 2.1639 0.21054 1.041 0 1.041-1.1112 0-0.30998-0.15206-0.58486-0.14622-0.28072-0.41525-0.386-0.1696-0.0643-0.46788-0.10527-0.29827-0.0409-0.61409-0.11697-0.30997-0.0819-0.59655-0.25149-1.0995-0.65503-1.0995-2.0704 0-1.0118 0.64334-1.7019 0.64918-0.69013 1.661-0.69013 0.78955 0 2.164 0.14622v1.4095q-1.4212-0.15207-2.164-0.15207-0.22224 0-0.39185 0.0994-0.16376 0.0994-0.25148 0.25733-0.0877 0.15791-0.12867 0.32167-0.0351 0.16376-0.0351 0.32167 0 0.69012 0.46788 0.90067 0.15206 0.0702 0.69012 0.15791 0.54391 0.0819 0.87728 0.25733 0.46788 0.23979 0.772 0.61995 0.30413 0.38015 0.4211 0.76615t0.11697 0.80125q0 1.1346-0.70183 1.8247-0.70182 0.69012-1.8364 0.69012z" style="font-feature-settings:normal;font-variant-caps:normal;font-variant-ligatures:normal;font-variant-numeric:normal"/>
   <path id="path1490" d="m-104.26 182.86h4.4917v1.4036h-2.9944v1.9885h2.2458v1.4036h-2.2458v2.0353h2.9944v1.4036h-4.4917z" style="font-feature-settings:normal;font-variant-caps:normal;font-variant-ligatures:normal;font-variant-numeric:normal"/>
   <path id="path1492" d="m-93.406 182.86v1.4036h-1.8715v6.8311h-1.4972v-6.8311h-1.8715v-1.4036z" style="font-feature-settings:normal;font-variant-caps:normal;font-variant-ligatures:normal;font-variant-numeric:normal"/>
   <path id="path1494" d="m-92.663 182.86h1.4972v5.2403q0 0.54976 0.04094 0.74861 0.08773 0.42109 0.3743 0.67843 0.29242 0.25733 0.70767 0.25733t0.70182-0.25733q0.29243-0.25734 0.38015-0.67843 0.04094-0.19885 0.04094-0.74861v-5.2403h1.4972v5.2403q0 0.82464-0.09358 1.2223-0.19885 0.82464-0.88897 1.3452-0.68428 0.52051-1.6376 0.52051t-1.6434-0.52051q-0.68428-0.52052-0.88312-1.3452-0.09358-0.3977-0.09358-1.2223z" style="font-feature-settings:normal;font-variant-caps:normal;font-variant-ligatures:normal;font-variant-numeric:normal"/>
   <path id="path1496" d="m-84.809 184.26v2.3862h0.36261q0.50297 0 0.73106-0.0468 0.3977-0.0819 0.63164-0.39185 0.23979-0.30997 0.23979-0.75445 0-0.44449-0.23979-0.75446-0.23394-0.30997-0.63164-0.39185-0.22809-0.0468-0.73106-0.0468zm-1.4972-1.4036h1.8481q0.86558 0 1.234 0.0877 0.83049 0.19885 1.351 0.87142 0.52637 0.66673 0.52637 1.6376 0 0.97085-0.52637 1.6434-0.52052 0.66673-1.351 0.86558-0.36846 0.0877-1.234 0.0877h-0.35091v3.0412h-1.4972z" style="font-feature-settings:normal;font-variant-caps:normal;font-variant-ligatures:normal;font-variant-numeric:normal"/>
  </g>
  <g id="text929" stroke-width=".22458" aria-label="TOOLS">
   <path id="path1499" d="m-75.457 182.86v1.4036h-1.8715v6.8311h-1.4972v-6.8311h-1.8715v-1.4036z" style="font-feature-settings:normal;font-variant-caps:normal;font-variant-ligatures:normal;font-variant-numeric:normal"/>
   <path id="path1501" d="m-73.223 185.47q-0.08773 0.47958-0.08773 1.5089t0.08773 1.5089q0.10527 0.56731 0.386 0.93576 0.28658 0.36261 0.74276 0.36261 0.45618 0 0.73691-0.36261 0.28658-0.36845 0.39185-0.93576 0.08773-0.48542 0.08773-1.5089 0-1.0293-0.08773-1.5089-0.10527-0.5673-0.39185-0.92991-0.28073-0.36846-0.73691-0.36846-0.45618 0-0.74276 0.36846-0.28073 0.36261-0.386 0.92991zm-1.4212 3.55q-0.16376-0.64919-0.16376-2.0411 0-1.392 0.16376-2.0411 0.23394-0.94746 0.88312-1.5557 0.64918-0.6141 1.6668-0.6141 1.0176 0 1.6668 0.6141 0.64918 0.60824 0.88312 1.5557 0.16376 0.64918 0.16376 2.0411 0 1.3919-0.16376 2.0411-0.23394 0.94746-0.88312 1.5616-0.64918 0.60824-1.6668 0.60824-1.0176 0-1.6668-0.60824-0.64918-0.61409-0.88312-1.5616z" style="font-feature-settings:normal;font-variant-caps:normal;font-variant-ligatures:normal;font-variant-numeric:normal"/>
   <path id="path1503" d="m-67.24 185.47q-0.08773 0.47958-0.08773 1.5089t0.08773 1.5089q0.10527 0.56731 0.386 0.93576 0.28658 0.36261 0.74276 0.36261 0.45618 0 0.73691-0.36261 0.28658-0.36845 0.39185-0.93576 0.08773-0.48542 0.08773-1.5089 0-1.0293-0.08773-1.5089-0.10527-0.5673-0.39185-0.92991-0.28073-0.36846-0.73691-0.36846-0.45618 0-0.74276 0.36846-0.28073 0.36261-0.386 0.92991zm-1.4212 3.55q-0.16376-0.64919-0.16376-2.0411 0-1.392 0.16376-2.0411 0.23394-0.94746 0.88312-1.5557 0.64918-0.6141 1.6668-0.6141 1.0176 0 1.6668 0.6141 0.64918 0.60824 0.88312 1.5557 0.16376 0.64918 0.16376 2.0411 0 1.3919-0.16376 2.0411-0.23394 0.94746-0.88312 1.5616-0.64918 0.60824-1.6668 0.60824-1.0176 0-1.6668-0.60824-0.64918-0.61409-0.88312-1.5616z" style="font-feature-settings:normal;font-variant-caps:normal;font-variant-ligatures:normal;font-variant-numeric:normal"/>
   <path id="path1505" d="m-62.374 191.1v-8.2347h1.4972v6.8311h3.3687v1.4036z" style="font-feature-settings:normal;font-variant-caps:normal;font-variant-ligatures:normal;font-variant-numeric:normal"/>
   <path id="path1507" d="m-54.262 191.19q-0.95916 0-2.1639-0.18715v-1.427q1.4095 0.21054 2.1639 0.21054 1.041 0 1.041-1.1112 0-0.30998-0.15206-0.58486-0.14621-0.28072-0.41524-0.386-0.16961-0.0643-0.46788-0.10527-0.29827-0.0409-0.61409-0.11697-0.30997-0.0819-0.59655-0.25149-1.0995-0.65503-1.0995-2.0704 0-1.0118 0.64334-1.7019 0.64918-0.69013 1.661-0.69013 0.78955 0 2.1639 0.14622v1.4095q-1.4212-0.15207-2.1639-0.15207-0.22224 0-0.39185 0.0994-0.16376 0.0994-0.25149 0.25733-0.08773 0.15791-0.12867 0.32167-0.03509 0.16376-0.03509 0.32167 0 0.69012 0.46788 0.90067 0.15206 0.0702 0.69012 0.15791 0.54391 0.0819 0.87728 0.25733 0.46788 0.23979 0.772 0.61995 0.30412 0.38015 0.42109 0.76615t0.11697 0.80125q0 1.1346-0.70182 1.8247t-1.8364 0.69012z" style="font-feature-settings:normal;font-variant-caps:normal;font-variant-ligatures:normal;font-variant-numeric:normal"/>
  </g>
  <path id="rect830" d="m-34.068 68.946h61.237c0.87182 0 1.5737 0.70186 1.5737 1.5737v57.404c0 0.87182-0.70186 1.5737-1.5737 1.5737h-61.237c-0.87182 0-1.5737-0.70186-1.5737-1.5737v-57.404c0-0.87182 0.70186-1.5737 1.5737-1.5737z" fill="#336790" style="paint-order:markers fill stroke"/>
  <path id="rect935" transform="matrix(.26458 0 0 .26458 -113.76 68.446)" d="m423.13 43.688c-4.7073-0.044694-13.613 0.13281-13.613 0.13281-0.43195 0-0.7793 0.36438-0.7793 0.81445v5.5254h-8.1113v-5.5254c0-0.45012-0.34735-0.81445-0.77929-0.81445h-9.6719c-0.43195 0-0.7793 0.36438-0.7793 0.81445v20.48c0 0.45012 0.34707 0.8125 0.7793 0.8125h9.6719c0.43194 0 0.77929-0.36232 0.77929-0.8125v-5.5254h8.1113v5.5254c0 0.45012 0.34739 0.8125 0.7793 0.8125h4.8945v26.061c-2.8064 1.1139-4.7832 3.8423-4.7832 7.0547v39.494c0 4.2077 3.388 7.5957 7.5957 7.5957s7.5938-3.388 7.5938-7.5957v-39.494c0-3.2125-1.9766-5.9409-4.7832-7.0547v-26.061h5.3008c0.84434-0.74337 1.66-3.7262 6.1699-6.0059 12.111-4.1603 17.37 6.1474 17.277 4.7246-0.09864-1.519-0.77159-11.047-11.346-16.635-4.6068-2.0716-10.023-4.1068-11.484-4.1914-0.15078-0.079455-1.2532-0.11791-2.8223-0.13281z" fill="#e5b62f" stroke="#e5b62f" stroke-width="1.8045" style="paint-order:markers fill stroke"/>
  <path id="path943" transform="matrix(.26458 0 0 .26458 -113.76 68.446)" d="m433.72 12.014c-4.1549 0.06908-7.4443 1.7901-9.4394 3.2734-2.6602 1.9777-3.5133 3.1091-7.5371 3.1191-4.0238 0.010205-4.8789-1.1215-7.5488-3.0859-2.6699-1.9645-7.6428-4.3321-13.879-2.6445-6.2361 1.6876-9.3374 6.2423-10.652 9.2852-1.3149 3.0428-1.4871 4.4482-4.9668 6.4688-3.4797 2.0206-4.7875 1.4757-8.082 1.1094-3.2945-0.36631-8.7909 0.065007-13.348 4.6445-4.5568 4.5795-4.9666 10.08-4.584 13.373 0.38259 3.2926 0.93677 4.5962-1.0664 8.0859-2.0032 3.4897-3.4032 3.6661-6.4394 4.9961-3.0363 1.33-7.5798 4.449-9.2363 10.693-1.6566 6.2444 0.74308 11.207 2.7207 13.867 1.9777 2.6602 3.1091 3.5133 3.1191 7.5371 0.00982 4.0238-1.1196 4.8769-3.084 7.5469-1.9645 2.67-4.3321 7.6448-2.6445 13.881 1.6876 6.236 6.2403 9.3374 9.2832 10.652 3.0428 1.3149 4.4501 1.4871 6.4707 4.9668 2.0205 3.4797 1.4757 4.7856 1.1094 8.0801-0.36631 3.2945 0.06278 8.7928 4.6426 13.35 4.5795 4.5568 10.08 4.9549 13.373 4.5723 3.2926-0.38272 4.5962-0.9251 8.0859 1.0781 3.4897 2.0032 3.668 3.4032 4.998 6.4394 1.33 3.0362 4.447 7.5798 10.691 9.2363 6.2444 1.6565 13.901-1.5082 13.867-2.7226-0.0344-1.2144-5.1602 0.87503-10.301-2.3594-5.1405-3.2344-4.7729-5.2312-5.9062-7.8184-1.1333-2.5872-3.1606-7.4448-8.8164-10.691-5.6557-3.2466-10.87-2.5429-13.676-2.2168-2.8057 0.32617-2.9932 0.8948-5.8887-1.9863-2.8955-2.8812-2.318-3.0658-2.0059-5.873 0.31218-2.8073 0.98369-8.0206-2.291-13.66s-8.1377-7.6472-10.73-8.7676c-2.5928-1.1204-3.0365-0.71142-4.1035-4.6543-1.067-3.943-0.48649-3.8284 1.1875-6.1035 1.6739-2.2751 4.8698-6.4494 4.8535-12.971-0.01587-6.5213-3.2327-10.692-4.918-12.959-1.6852-2.2667-2.272-2.1417-1.2246-6.0898 1.0474-3.9482 1.4987-3.5405 4.0859-4.6738 2.5872-1.1333 7.4467-3.1626 10.693-8.8184 3.2466-5.6557 2.5429-10.868 2.2168-13.674-0.32591-2.8057-0.89483-2.9932 1.9863-5.8887 2.8812-2.8955 3.0638-2.3297 5.8711-2.0176 2.8072 0.31211 8.0226 0.99541 13.662-2.2793 5.6395-3.2747 7.6354-8.1376 8.7559-10.73 1.1204-2.5928 0.72114-3.0365 4.6641-4.1035 3.9429-1.067 3.8284-0.48836 6.1035 1.1855 2.2751 1.6739 6.4494 4.8717 12.971 4.8555 6.5213-0.016252 10.682-3.2347 12.949-4.9199 2.2667-1.6852 2.1417-2.2701 6.0898-1.2227 3.9482 1.0474 3.5522 1.4987 4.6856 4.0859 1.1333 2.5872 3.1607 7.4448 8.8164 10.691s10.87 2.5429 13.676 2.2168c2.8057-0.3261 2.9932-0.89287 5.8887 1.9883s2.318 3.0638 2.0059 5.8711c-0.31212 2.8072-0.98369 8.0207 2.291 13.66s8.1376 7.6355 10.73 8.7559c2.5928 1.1204 3.0365 0.72311 4.1035 4.666 1.067 3.9429 0.48641 3.8284-1.1875 6.1035-1.6739 2.2751-4.8697 6.4494-4.8535 12.971 0.01625 6.5213 3.2327 10.681 4.918 12.947 1.6852 2.2667 2.27 2.1436 1.2227 6.0918-1.0474 3.9482-1.4968 3.5503-4.084 4.6836-2.5872 1.1333-7.4448 3.1626-10.691 8.8184-3.2466 5.6557-2.5448 10.868-2.2188 13.674 0.32609 2.8056 0.89482 2.9932-1.9863 5.8887-2.8812 2.8955-3.0638 2.32-5.8711 2.0078-2.8072-0.31219-8.0226-0.9856-13.662 2.2891-5.6395 3.2747-7.6452 8.1376-8.7656 10.73-0.9313 2.1552-0.84174 2.8278-3.0371 3.6055-0.31286-0.1736-0.67424-0.33971-1.1055-0.50195-3.6364-1.3682-4.115 0.48194-7.0996 2.7051-2.684 1.9992-4.605 2.234-4.4922 4.8711-0.25335-0.0254-0.49071-0.03001-0.68164-0.00781-0.60936 0.07067-0.85221 0.17155-1.498-0.19922s-0.67769-0.63142-0.92383-1.1934c-0.24616-0.56187-0.82291-1.4024-1.9785-1.709-1.1557-0.30652-2.5727 0.2791-2.5664 0.50391 0.00642 0.2245 0.95492-0.16129 1.9062 0.4375 0.95133 0.5986 0.88401 0.96652 1.0938 1.4453 0.20965 0.47887 0.58419 1.3796 1.6309 1.9805 1.0467 0.60083 2.012 0.47055 2.5312 0.41016 0.39726-0.04627 0.51372-0.11363 0.78515 0.09375 0.79696 2.7289 2.7246 2.4282 6.0664 3.6855 3.6364 1.3682 4.7478 3.0142 7.7324 0.79102 2.1873-1.6292 1.9673-2.8055 1.4394-4.7266 4.8594-2.0322 7.4092-5.8859 8.5684-8.5684 1.3149-3.0428 1.4871-4.4482 4.9668-6.4688 3.4797-2.0206 4.7876-1.4757 8.082-1.1094 3.2945 0.36624 8.7909-0.06484 13.348-4.6445 4.5568-4.5795 4.9667-10.08 4.584-13.373-0.38271-3.2926-0.93681-4.5962 1.0664-8.0859 2.0032-3.4897 3.4032-3.666 6.4394-4.9961 3.0363-1.33 7.5798-4.449 9.2363-10.693 1.6565-6.2444-0.74299-11.207-2.7207-13.867-1.9777-2.6601-3.1091-3.5133-3.1191-7.5371-0.00983-4.0238 1.1195-4.8769 3.084-7.5469 1.9645-2.6699 4.3321-7.6448 2.6445-13.881-1.6876-6.2361-6.2404-9.3375-9.2832-10.652-3.0428-1.3149-4.4502-1.4852-6.4707-4.9648s-1.4737-4.7876-1.1074-8.082c0.36631-3.2945-0.065-8.7928-4.6445-13.35-4.5795-4.5568-10.08-4.9647-13.373-4.582-3.2926 0.38271-4.5962 0.93681-8.0859-1.0664-3.4897-2.0032-3.6661-3.4032-4.9961-6.4395-1.33-3.0363-4.449-7.5817-10.693-9.2383-1.5611-0.41413-3.0428-0.57381-4.4277-0.55078z" fill="#fff" style="paint-order:markers fill stroke"/>
  <g id="text955" fill="#fff" stroke-width=".22458" aria-label="SETUP">
   <path id="path1476" d="m-30.49 126.82q-0.95916 0-2.1639-0.18715v-1.427q1.4095 0.21055 2.1639 0.21055 1.041 0 1.041-1.1112 0-0.30997-0.15206-0.58485-0.14621-0.28073-0.41524-0.386-0.16961-0.0643-0.46788-0.10528-0.29827-0.0409-0.61409-0.11697-0.30997-0.0819-0.59655-0.25148-1.0995-0.65504-1.0995-2.0704 0-1.0118 0.64334-1.7019 0.64918-0.69012 1.661-0.69012 0.78955 0 2.1639 0.14621v1.4095q-1.4212-0.15206-2.1639-0.15206-0.22224 0-0.39185 0.0994-0.16376 0.0994-0.25149 0.25734-0.08773 0.15791-0.12867 0.32167-0.03509 0.16375-0.03509 0.32166 0 0.69013 0.46788 0.90067 0.15206 0.0702 0.69012 0.15791 0.54391 0.0819 0.87728 0.25734 0.46788 0.23979 0.772 0.61994 0.30412 0.38015 0.42109 0.76615 0.11697 0.38601 0.11697 0.80125 0 1.1346-0.70182 1.8247-0.70182 0.69013-1.8364 0.69013z" style="font-feature-settings:normal;font-variant-caps:normal;font-variant-ligatures:normal;font-variant-numeric:normal"/>
   <path id="path1478" d="m-26.636 118.49h4.4917v1.4036h-2.9944v1.9885h2.2458v1.4036h-2.2458v2.0353h2.9944v1.4036h-4.4917z" style="font-feature-settings:normal;font-variant-caps:normal;font-variant-ligatures:normal;font-variant-numeric:normal"/>
   <path id="path1480" d="m-15.787 118.49v1.4036h-1.8715v6.8311h-1.4972v-6.8311h-1.8715v-1.4036z" style="font-feature-settings:normal;font-variant-caps:normal;font-variant-ligatures:normal;font-variant-numeric:normal"/>
   <path id="path1482" d="m-15.044 118.49h1.4972v5.2403q0 0.54976 0.04094 0.7486 0.08773 0.4211 0.3743 0.67843 0.29243 0.25734 0.70767 0.25734t0.70182-0.25734q0.29242-0.25733 0.38015-0.67843 0.04094-0.19884 0.04094-0.7486v-5.2403h1.4972v5.2403q0 0.82463-0.093576 1.2223-0.19885 0.82464-0.88897 1.3452-0.68428 0.52052-1.6376 0.52052-0.95331 0-1.6434-0.52052-0.68428-0.52052-0.88312-1.3452-0.09358-0.3977-0.09358-1.2223z" style="font-feature-settings:normal;font-variant-caps:normal;font-variant-ligatures:normal;font-variant-numeric:normal"/>
   <path id="path1484" d="m-7.1892 119.89v2.3862h0.36261q0.50297 0 0.73106-0.0468 0.3977-0.0819 0.63164-0.39185 0.23979-0.30997 0.23979-0.75446t-0.23979-0.75446q-0.23394-0.30997-0.63164-0.39185-0.22809-0.0468-0.73106-0.0468zm-1.4972-1.4036h1.8481q0.86558 0 1.234 0.0877 0.83049 0.19885 1.351 0.87143 0.52637 0.66673 0.52637 1.6376t-0.52637 1.6434q-0.52052 0.66673-1.351 0.86558-0.36846 0.0877-1.234 0.0877h-0.35091v3.0412h-1.4972z" style="font-feature-settings:normal;font-variant-caps:normal;font-variant-ligatures:normal;font-variant-numeric:normal"/>
  </g>
  <g id="text959" fill="#e5b62f" stroke-width=".22458" aria-label="TOOLS">
   <path id="path1465" d="m2.1625 118.49v1.4036h-1.8715v6.8311h-1.4972v-6.8311h-1.8715v-1.4036z" style="font-feature-settings:normal;font-variant-caps:normal;font-variant-ligatures:normal;font-variant-numeric:normal"/>
   <path id="path1467" d="m4.3967 121.1q-0.087728 0.47957-0.087728 1.5089t0.087728 1.5089q0.10527 0.5673 0.386 0.93576 0.28658 0.36261 0.74276 0.36261t0.73691-0.36261q0.28658-0.36846 0.39185-0.93576 0.087728-0.48543 0.087728-1.5089 0-1.0293-0.087728-1.5089-0.10527-0.56731-0.39185-0.92992-0.28073-0.36845-0.73691-0.36845t-0.74276 0.36845q-0.28073 0.36261-0.386 0.92992zm-1.4212 3.55q-0.16376-0.64918-0.16376-2.0411 0-1.3919 0.16376-2.0411 0.23394-0.94746 0.88312-1.5557 0.64918-0.61409 1.6668-0.61409t1.6668 0.61409q0.64918 0.60824 0.88312 1.5557 0.16376 0.64919 0.16376 2.0411 0 1.392-0.16376 2.0411-0.23394 0.94746-0.88312 1.5616-0.64918 0.60825-1.6668 0.60825t-1.6668-0.60825q-0.64918-0.61409-0.88312-1.5616z" style="font-feature-settings:normal;font-variant-caps:normal;font-variant-ligatures:normal;font-variant-numeric:normal"/>
   <path id="path1469" d="m10.38 121.1q-0.08773 0.47957-0.08773 1.5089t0.08773 1.5089q0.10527 0.5673 0.386 0.93576 0.28658 0.36261 0.74276 0.36261 0.45618 0 0.73691-0.36261 0.28658-0.36846 0.39185-0.93576 0.08773-0.48543 0.08773-1.5089 0-1.0293-0.08773-1.5089-0.10527-0.56731-0.39185-0.92992-0.28073-0.36845-0.73691-0.36845-0.45618 0-0.74276 0.36845-0.28073 0.36261-0.386 0.92992zm-1.4212 3.55q-0.16376-0.64918-0.16376-2.0411 0-1.3919 0.16376-2.0411 0.23394-0.94746 0.88312-1.5557 0.64918-0.61409 1.6668-0.61409 1.0176 0 1.6668 0.61409 0.64918 0.60824 0.88312 1.5557 0.16376 0.64919 0.16376 2.0411 0 1.392-0.16376 2.0411-0.23394 0.94746-0.88312 1.5616-0.64918 0.60825-1.6668 0.60825-1.0176 0-1.6668-0.60825-0.64918-0.61409-0.88312-1.5616z" style="font-feature-settings:normal;font-variant-caps:normal;font-variant-ligatures:normal;font-variant-numeric:normal"/>
   <path id="path1471" d="m15.246 126.73v-8.2347h1.4972v6.8311h3.3687v1.4036z" style="font-feature-settings:normal;font-variant-caps:normal;font-variant-ligatures:normal;font-variant-numeric:normal"/>
   <path id="path1473" d="m23.358 126.82q-0.95916 0-2.1639-0.18715v-1.427q1.4095 0.21055 2.1639 0.21055 1.041 0 1.041-1.1112 0-0.30997-0.15206-0.58485-0.14621-0.28073-0.41524-0.386-0.16961-0.0643-0.46788-0.10528-0.29827-0.0409-0.61409-0.11697-0.30997-0.0819-0.59655-0.25148-1.0995-0.65504-1.0995-2.0704 0-1.0118 0.64334-1.7019 0.64918-0.69012 1.661-0.69012 0.78955 0 2.1639 0.14621v1.4095q-1.4212-0.15206-2.1639-0.15206-0.22224 0-0.39185 0.0994-0.16376 0.0994-0.25149 0.25734-0.08773 0.15791-0.12867 0.32167-0.03509 0.16375-0.03509 0.32166 0 0.69013 0.46788 0.90067 0.15206 0.0702 0.69012 0.15791 0.54391 0.0819 0.87728 0.25734 0.46788 0.23979 0.772 0.61994 0.30412 0.38015 0.42109 0.76615 0.11697 0.38601 0.11697 0.80125 0 1.1346-0.70182 1.8247-0.70182 0.69013-1.8364 0.69013z" style="font-feature-settings:normal;font-variant-caps:normal;font-variant-ligatures:normal;font-variant-numeric:normal"/>
  </g>
  <path id="rect1036" d="m-34.068 133.32h61.237c0.87182 0 1.5737 0.70186 1.5737 1.5737v57.404c0 0.87182-0.70186 1.5737-1.5737 1.5737h-61.237c-0.87182 0-1.5737-0.70186-1.5737-1.5737v-57.404c0-0.87182 0.70186-1.5737 1.5737-1.5737z" style="paint-order:markers fill stroke"/>
  <path id="rect1038" transform="matrix(.26458 0 0 .26458 -113.76 68.446)" d="m423.13 286.97c-4.7073-0.0447-13.613 0.13476-13.613 0.13476-0.43195 0-0.7793 0.36236-0.7793 0.8125v5.5274h-8.1113v-5.5274c0-0.4501-0.34735-0.8125-0.77929-0.8125h-9.6719c-0.43195 0-0.7793 0.36236-0.7793 0.8125v20.482c0 0.45015 0.34707 0.81055 0.7793 0.81055h9.6719c0.43194 0 0.77929-0.36052 0.77929-0.81055v-5.5273h8.1113v5.5273c0 0.45015 0.34739 0.81055 0.7793 0.81055h4.8945v26.061c-2.8064 1.1139-4.7832 3.8423-4.7832 7.0547v39.496c0 4.2077 3.388 7.5938 7.5957 7.5938s7.5938-3.386 7.5938-7.5938v-39.496c0-3.2125-1.9766-5.9409-4.7832-7.0547v-26.061h5.3008c0.84434-0.74336 1.66-3.7243 6.1699-6.0039 12.111-4.1603 17.37 6.1455 17.277 4.7227-0.09864-1.519-0.77159-11.045-11.346-16.633-4.6068-2.0716-10.023-4.1068-11.484-4.1914-0.15078-0.07946-1.2532-0.11986-2.8223-0.13476z" fill="#fff" stroke="#fff" stroke-width="1.8045" style="paint-order:markers fill stroke"/>
  <path id="path1046" transform="matrix(.26458 0 0 .26458 -113.76 68.446)" d="m433.72 255.3c-4.1549 0.06908-7.4443 1.7902-9.4394 3.2734-2.6602 1.9777-3.5133 3.1091-7.5371 3.1191-4.0238 0.01133-4.8789-1.1195-7.5488-3.084-2.6699-1.9645-7.6428-4.3321-13.879-2.6445s-9.3374 6.2404-10.652 9.2832c-1.3149 3.0428-1.4871 4.4502-4.9668 6.4707-3.4797 2.0206-4.7875 1.4737-8.082 1.1074-3.2945-0.36624-8.7909 0.06484-13.348 4.6445-4.5568 4.5795-4.9666 10.08-4.584 13.373 0.38259 3.2926 0.93677 4.5962-1.0664 8.0859-2.0032 3.4897-3.4032 3.6661-6.4394 4.9961-3.0363 1.33-7.5798 4.449-9.2363 10.693-1.6566 6.2444 0.74308 11.207 2.7207 13.867 1.9777 2.6601 3.1091 3.5133 3.1191 7.5371 0.00982 4.0238-1.1196 4.8789-3.084 7.5488-1.9645 2.67-4.3321 7.6428-2.6445 13.879 1.6876 6.236 6.2403 9.3374 9.2832 10.652 3.0428 1.3149 4.4501 1.4871 6.4707 4.9668 2.0205 3.4797 1.4757 4.7875 1.1094 8.082-0.36631 3.2945 0.06278 8.7909 4.6426 13.348 4.5795 4.5568 10.08 4.9549 13.373 4.5723 3.2926-0.38271 4.5962-0.9251 8.0859 1.0781 3.4897 2.0032 3.668 3.4032 4.998 6.4394 1.33 3.0362 4.447 7.5798 10.691 9.2363 6.2444 1.6565 13.901-1.5063 13.867-2.7207-0.0344-1.2144-5.1602 0.87307-10.301-2.3613-5.1405-3.2344-4.7729-5.2312-5.9062-7.8184-1.1333-2.5872-3.1606-7.4448-8.8164-10.691-5.6557-3.2466-10.87-2.5429-13.676-2.2168-2.8057 0.32618-2.9932 0.89481-5.8887-1.9863-2.8955-2.8812-2.318-3.0638-2.0059-5.8711 0.31218-2.8073 0.98369-8.0226-2.291-13.662-3.2747-5.6395-8.1377-7.6452-10.73-8.7656-2.5928-1.1204-3.0365-0.71142-4.1035-4.6543-1.067-3.943-0.48649-3.8303 1.1875-6.1055 1.6739-2.2751 4.8698-6.4494 4.8535-12.971-0.01587-6.5214-3.2327-10.69-4.918-12.957-1.6852-2.2667-2.272-2.1436-1.2246-6.0918 1.0474-3.9482 1.4987-3.5405 4.0859-4.6738 2.5872-1.1333 7.4467-3.1607 10.693-8.8164 3.2466-5.6558 2.5429-10.87 2.2168-13.676-0.32591-2.8057-0.89483-2.9931 1.9863-5.8887 2.8812-2.8955 3.0638-2.3297 5.8711-2.0176 2.8072 0.31219 8.0226 0.9954 13.662-2.2793s7.6354-8.1377 8.7559-10.73c1.1204-2.5928 0.72114-3.0365 4.6641-4.1035 3.9429-1.067 3.8284-0.48641 6.1035 1.1875 2.2751 1.6739 6.4494 4.8698 12.971 4.8535 6.5213-0.01512 10.682-3.2327 12.949-4.918 2.2667-1.6852 2.1417-2.2701 6.0898-1.2226 3.9482 1.0474 3.5522 1.4967 4.6856 4.084 1.1333 2.5872 3.1607 7.4448 8.8164 10.691 5.6557 3.2466 10.87 2.5448 13.676 2.2188 2.8057-0.32618 2.9932-0.89485 5.8887 1.9863 2.8955 2.8811 2.318 3.0638 2.0059 5.8711-0.31212 2.8072-0.98369 8.0207 2.291 13.66 3.2747 5.6395 8.1376 7.6354 10.73 8.7559 2.5928 1.1204 3.0365 0.7231 4.1035 4.666 1.067 3.9429 0.48641 3.8284-1.1875 6.1035-1.6739 2.2751-4.8697 6.4494-4.8535 12.971 0.01625 6.5213 3.2327 10.682 4.918 12.949 1.6852 2.2667 2.27 2.1417 1.2227 6.0898-1.0474 3.9482-1.4968 3.5522-4.084 4.6856-2.5872 1.1333-7.4448 3.1607-10.691 8.8164-3.2466 5.6557-2.5448 10.868-2.2188 13.674 0.32609 2.8057 0.89482 2.9932-1.9863 5.8887-2.8812 2.8955-3.0638 2.32-5.8711 2.0078-2.8072-0.31219-8.0226-0.98365-13.662 2.291-5.6395 3.2747-7.6452 8.1376-8.7656 10.73-0.93126 2.1551-0.84199 2.8259-3.0371 3.6035-0.31271-0.17348-0.67455-0.33983-1.1055-0.50196-3.6364-1.3681-4.115 0.48194-7.0996 2.7051-2.684 1.9992-4.605 2.234-4.4922 4.8711-0.25326-0.02538-0.49076-0.03-0.68164-0.00782-0.60936 0.07068-0.85221 0.17156-1.498-0.19922-0.64583-0.37077-0.67769-0.62946-0.92383-1.1914-0.24616-0.56187-0.82291-1.4044-1.9785-1.7109-1.1557-0.30652-2.5727 0.2791-2.5664 0.50391 0.00642 0.2245 0.95492-0.16129 1.9062 0.4375 0.95133 0.5986 0.88401 0.96847 1.0938 1.4473 0.20965 0.47887 0.58419 1.3777 1.6309 1.9785 1.0467 0.60083 2.012 0.47055 2.5312 0.41015 0.39726-0.04626 0.51372-0.11362 0.78515 0.09375 0.79696 2.7289 2.7246 2.4282 6.0664 3.6856 3.6364 1.3682 4.7478 3.0142 7.7324 0.79102 2.1872-1.6292 1.9673-2.8037 1.4394-4.7246 4.8594-2.0322 7.4092-5.8859 8.5684-8.5684 1.3149-3.0428 1.4871-4.4502 4.9668-6.4707 3.4797-2.0206 4.7876-1.4757 8.082-1.1094 3.2945 0.36624 8.7909-0.06289 13.348-4.6426 4.5568-4.5795 4.9667-10.08 4.584-13.373-0.38271-3.2926-0.93681-4.5962 1.0664-8.0859 2.0032-3.4897 3.4032-3.668 6.4394-4.998 3.0363-1.33 7.5798-4.447 9.2363-10.691 1.6565-6.2444-0.74299-11.207-2.7207-13.867-1.9777-2.6602-3.1091-3.5133-3.1191-7.5371-0.00983-4.0238 1.1195-4.8789 3.084-7.5488 1.9645-2.6699 4.3321-7.6448 2.6445-13.881-1.6876-6.236-6.2404-9.3355-9.2832-10.65-3.0428-1.3149-4.4502-1.4871-6.4707-4.9668-2.0206-3.4797-1.4737-4.7876-1.1074-8.082 0.36631-3.2945-0.065-8.7909-4.6445-13.348-4.5795-4.5568-10.08-4.9667-13.373-4.584-3.2926 0.38271-4.5962 0.93682-8.0859-1.0664-3.4897-2.0032-3.6661-3.4032-4.9961-6.4394-1.33-3.0362-4.449-7.5798-10.693-9.2363-1.5611-0.41413-3.0428-0.57576-4.4277-0.55273z" fill="#fff" style="paint-order:markers fill stroke"/>
  <g id="text1058" fill="#fff" stroke-width=".22458" aria-label="SETUP">
   <path id="path1450" d="m-30.49 191.19q-0.95916 0-2.1639-0.18715v-1.427q1.4095 0.21054 2.1639 0.21054 1.041 0 1.041-1.1112 0-0.30998-0.15206-0.58486-0.14621-0.28072-0.41524-0.386-0.16961-0.0643-0.46788-0.10527-0.29827-0.0409-0.61409-0.11697-0.30997-0.0819-0.59655-0.25149-1.0995-0.65503-1.0995-2.0704 0-1.0118 0.64334-1.7019 0.64918-0.69013 1.661-0.69013 0.78955 0 2.1639 0.14622v1.4095q-1.4212-0.15207-2.1639-0.15207-0.22224 0-0.39185 0.0994-0.16376 0.0994-0.25149 0.25733-0.08773 0.15791-0.12867 0.32167-0.03509 0.16376-0.03509 0.32167 0 0.69012 0.46788 0.90067 0.15206 0.0702 0.69012 0.15791 0.54391 0.0819 0.87728 0.25733 0.46788 0.23979 0.772 0.61995 0.30412 0.38015 0.42109 0.76615t0.11697 0.80125q0 1.1346-0.70182 1.8247t-1.8364 0.69012z" style="font-feature-settings:normal;font-variant-caps:normal;font-variant-ligatures:normal;font-variant-numeric:normal"/>
   <path id="path1452" d="m-26.636 182.86h4.4917v1.4036h-2.9944v1.9885h2.2458v1.4036h-2.2458v2.0353h2.9944v1.4036h-4.4917z" style="font-feature-settings:normal;font-variant-caps:normal;font-variant-ligatures:normal;font-variant-numeric:normal"/>
   <path id="path1454" d="m-15.787 182.86v1.4036h-1.8715v6.8311h-1.4972v-6.8311h-1.8715v-1.4036z" style="font-feature-settings:normal;font-variant-caps:normal;font-variant-ligatures:normal;font-variant-numeric:normal"/>
   <path id="path1456" d="m-15.044 182.86h1.4972v5.2403q0 0.54976 0.04094 0.74861 0.08773 0.42109 0.3743 0.67843 0.29243 0.25733 0.70767 0.25733t0.70182-0.25733q0.29242-0.25734 0.38015-0.67843 0.04094-0.19885 0.04094-0.74861v-5.2403h1.4972v5.2403q0 0.82464-0.093576 1.2223-0.19885 0.82464-0.88897 1.3452-0.68428 0.52051-1.6376 0.52051-0.95331 0-1.6434-0.52051-0.68428-0.52052-0.88312-1.3452-0.09358-0.3977-0.09358-1.2223z" style="font-feature-settings:normal;font-variant-caps:normal;font-variant-ligatures:normal;font-variant-numeric:normal"/>
   <path id="path1458" d="m-7.1892 184.26v2.3862h0.36261q0.50297 0 0.73106-0.0468 0.3977-0.0819 0.63164-0.39185 0.23979-0.30997 0.23979-0.75445 0-0.44449-0.23979-0.75446-0.23394-0.30997-0.63164-0.39185-0.22809-0.0468-0.73106-0.0468zm-1.4972-1.4036h1.8481q0.86558 0 1.234 0.0877 0.83049 0.19885 1.351 0.87142 0.52637 0.66673 0.52637 1.6376 0 0.97085-0.52637 1.6434-0.52052 0.66673-1.351 0.86558-0.36846 0.0877-1.234 0.0877h-0.35091v3.0412h-1.4972z" style="font-feature-settings:normal;font-variant-caps:normal;font-variant-ligatures:normal;font-variant-numeric:normal"/>
  </g>
  <g id="text1062" fill="#fff" stroke-width=".22458" aria-label="TOOLS">
   <path id="path1439" d="m2.1625 182.86v1.4036h-1.8715v6.8311h-1.4972v-6.8311h-1.8715v-1.4036z" style="font-feature-settings:normal;font-variant-caps:normal;font-variant-ligatures:normal;font-variant-numeric:normal"/>
   <path id="path1441" d="m4.3967 185.47q-0.087728 0.47958-0.087728 1.5089t0.087728 1.5089q0.10527 0.56731 0.386 0.93576 0.28658 0.36261 0.74276 0.36261t0.73691-0.36261q0.28658-0.36845 0.39185-0.93576 0.087728-0.48542 0.087728-1.5089 0-1.0293-0.087728-1.5089-0.10527-0.5673-0.39185-0.92991-0.28073-0.36846-0.73691-0.36846t-0.74276 0.36846q-0.28073 0.36261-0.386 0.92991zm-1.4212 3.55q-0.16376-0.64919-0.16376-2.0411 0-1.392 0.16376-2.0411 0.23394-0.94746 0.88312-1.5557 0.64918-0.6141 1.6668-0.6141t1.6668 0.6141q0.64918 0.60824 0.88312 1.5557 0.16376 0.64918 0.16376 2.0411 0 1.3919-0.16376 2.0411-0.23394 0.94746-0.88312 1.5616-0.64918 0.60824-1.6668 0.60824t-1.6668-0.60824q-0.64918-0.61409-0.88312-1.5616z" style="font-feature-settings:normal;font-variant-caps:normal;font-variant-ligatures:normal;font-variant-numeric:normal"/>
   <path id="path1443" d="m10.38 185.47q-0.08773 0.47958-0.08773 1.5089t0.08773 1.5089q0.10527 0.56731 0.386 0.93576 0.28658 0.36261 0.74276 0.36261 0.45618 0 0.73691-0.36261 0.28658-0.36845 0.39185-0.93576 0.08773-0.48542 0.08773-1.5089 0-1.0293-0.08773-1.5089-0.10527-0.5673-0.39185-0.92991-0.28073-0.36846-0.73691-0.36846-0.45618 0-0.74276 0.36846-0.28073 0.36261-0.386 0.92991zm-1.4212 3.55q-0.16376-0.64919-0.16376-2.0411 0-1.392 0.16376-2.0411 0.23394-0.94746 0.88312-1.5557 0.64918-0.6141 1.6668-0.6141 1.0176 0 1.6668 0.6141 0.64918 0.60824 0.88312 1.5557 0.16376 0.64918 0.16376 2.0411 0 1.3919-0.16376 2.0411-0.23394 0.94746-0.88312 1.5616-0.64918 0.60824-1.6668 0.60824-1.0176 0-1.6668-0.60824-0.64918-0.61409-0.88312-1.5616z" style="font-feature-settings:normal;font-variant-caps:normal;font-variant-ligatures:normal;font-variant-numeric:normal"/>
   <path id="path1445" d="m15.246 191.1v-8.2347h1.4972v6.8311h3.3687v1.4036z" style="font-feature-settings:normal;font-variant-caps:normal;font-variant-ligatures:normal;font-variant-numeric:normal"/>
   <path id="path1447" d="m23.358 191.19q-0.95916 0-2.1639-0.18715v-1.427q1.4095 0.21054 2.1639 0.21054 1.041 0 1.041-1.1112 0-0.30998-0.15206-0.58486-0.14621-0.28072-0.41524-0.386-0.16961-0.0643-0.46788-0.10527-0.29827-0.0409-0.61409-0.11697-0.30997-0.0819-0.59655-0.25149-1.0995-0.65503-1.0995-2.0704 0-1.0118 0.64334-1.7019 0.64918-0.69013 1.661-0.69013 0.78955 0 2.1639 0.14622v1.4095q-1.4212-0.15207-2.1639-0.15207-0.22224 0-0.39185 0.0994-0.16376 0.0994-0.25149 0.25733-0.08773 0.15791-0.12867 0.32167-0.03509 0.16376-0.03509 0.32167 0 0.69012 0.46788 0.90067 0.15206 0.0702 0.69012 0.15791 0.54391 0.0819 0.87728 0.25733 0.46788 0.23979 0.772 0.61995 0.30412 0.38015 0.42109 0.76615t0.11697 0.80125q0 1.1346-0.70182 1.8247t-1.8364 0.69012z" style="font-feature-settings:normal;font-variant-caps:normal;font-variant-ligatures:normal;font-variant-numeric:normal"/>
  </g>
  <path id="rect830-6-9" d="m45.345 70.722h82.571c0.28796 0 0.51978 0.23182 0.51978 0.51978v22.171c0 0.28796-0.23182 0.51978-0.51978 0.51978h-82.571c-0.28796 0-0.51978-0.23182-0.51978-0.51978v-22.171c0-0.28796 0.23182-0.51978 0.51978-0.51978z" fill="#fff" style="paint-order:markers fill stroke"/>
  <path id="rect1070" transform="matrix(.26458 0 0 .26458 -113.76 68.446)" d="m645.59 29.135c-2.1498-0.02041-6.2168 0.060546-6.2168 0.060546-0.19725 0-0.35547 0.16556-0.35547 0.37109v2.5234h-3.7051v-2.5234c0-0.20557-0.15821-0.37109-0.35547-0.37109h-4.416c-0.19725 0-0.35742 0.16556-0.35742 0.37109v9.3535c0 0.20557 0.16001 0.37109 0.35742 0.37109h4.416c0.19726 0 0.35547-0.16549 0.35547-0.37109v-2.5234h3.7051v2.5234c0 0.20557 0.15825 0.37109 0.35547 0.37109h2.2363v11.906c-1.2817 0.50868-2.1856 1.7497-2.1856 3.2168v18.037c0 1.9217 1.5471 3.4688 3.4688 3.4688s3.4688-1.5471 3.4688-3.4688v-18.037c0-1.4664-0.90281-2.7077-2.1836-3.2168v-11.906h2.4199c0.38561-0.33948 0.75677-1.7011 2.8164-2.7422 5.5309-1.9 7.9328 2.808 7.8906 2.1582-0.04505-0.69374-0.35053-5.0458-5.1797-7.5977-2.1039-0.94608-4.5788-1.8754-5.2461-1.9141-0.06886-0.036283-0.57246-0.053743-1.2891-0.060546z" fill="#e5b62f" stroke="#e5b62f" stroke-width=".82412" style="paint-order:markers fill stroke"/>
  <path id="path1078" transform="matrix(.26458 0 0 .26458 -113.76 68.446)" d="m650.43 14.668c-1.8975 0.031546-3.3994 0.81867-4.3105 1.4961-1.2149 0.90321-1.6057 1.4193-3.4434 1.4238-1.8376 0.004535-2.2279-0.51103-3.4473-1.4082-1.2194-0.89717-3.4899-1.9797-6.3379-1.209-2.848 0.77071-4.2647 2.8506-4.8652 4.2402-0.60051 1.3896-0.67842 2.0323-2.2676 2.9551-1.5892 0.92278-2.1868 0.67314-3.6914 0.50586-1.5046-0.16728-4.0146 0.029711-6.0957 2.1211-2.0811 2.0914-2.2685 4.6037-2.0938 6.1074 0.17473 1.5037 0.42851 2.0996-0.48633 3.6934-0.91487 1.5937-1.5548 1.6738-2.9414 2.2812-1.3867 0.60742-3.4622 2.033-4.2188 4.8848-0.75654 2.8518 0.34098 5.1172 1.2441 6.332 0.90319 1.2149 1.4192 1.6057 1.4238 3.4434 0.00454 1.8377-0.51104 2.2279-1.4082 3.4473-0.89718 1.2194-1.9797 3.4899-1.209 6.3379 0.77071 2.848 2.8506 4.2647 4.2402 4.8652 1.3896 0.60051 2.0323 0.67843 2.9551 2.2676 0.92276 1.5892 0.67316 2.1868 0.50586 3.6914-0.16728 1.5046 0.0297 4.0146 2.1211 6.0957 2.0915 2.0811 4.6037 2.2627 6.1074 2.0879s2.0996-0.42268 3.6934 0.49219c1.5937 0.91486 1.6738 1.5547 2.2812 2.9414 0.60742 1.3866 2.031 3.4622 4.8828 4.2188 2.8518 0.75653 6.3494-0.68953 6.334-1.2441-0.01587-0.55461-2.3574 0.40097-4.7051-1.0762-2.3477-1.4771-2.1797-2.3907-2.6973-3.5723-0.51759-1.1816-1.4424-3.3982-4.0254-4.8809-2.5829-1.4827-4.9648-1.1626-6.2461-1.0137-1.2813 0.14895-1.3671 0.4076-2.6894-0.9082-1.3224-1.3158-1.0586-1.3996-0.91602-2.6816 0.14257-1.2821 0.44867-3.6627-1.0469-6.2383-1.4956-2.5755-3.7163-3.4922-4.9004-4.0039-1.1841-0.5117-1.3857-0.3243-1.873-2.125-0.4873-1.8007-0.22347-1.7481 0.54102-2.7871 0.76447-1.039 2.2242-2.9456 2.2168-5.9238-0.00718-2.9783-1.4764-4.8828-2.2461-5.918-0.76963-1.0352-1.037-0.98009-0.55859-2.7832 0.47833-1.8031 0.68366-1.6152 1.8652-2.1328 1.1816-0.51758 3.4001-1.4444 4.8828-4.0273 1.4827-2.583 1.1626-4.9648 1.0137-6.2461-0.14883-1.2813-0.4076-1.3671 0.90821-2.6895 1.3158-1.3224 1.3976-1.0625 2.6797-0.91992 1.282 0.14253 3.6647 0.45453 6.2402-1.041 2.5755-1.4955 3.4864-3.7163 3.998-4.9004 0.5117-1.1841 0.33013-1.3877 2.1309-1.875 1.8007-0.48731 1.7481-0.22346 2.7871 0.54102 1.039 0.76448 2.9456 2.2262 5.9238 2.2188 2.9783-0.007559 4.8789-1.4784 5.9141-2.248 1.0352-0.76964 0.97813-1.0369 2.7812-0.55859 1.8031 0.47834 1.6211 0.68562 2.1387 1.8672s1.4444 3.4001 4.0273 4.8828c2.583 1.4827 4.9648 1.1607 6.2461 1.0117 1.2813-0.14891 1.3651-0.40761 2.6875 0.9082 1.3224 1.3158 1.0605 1.3996 0.91796 2.6816-0.14252 1.282-0.45062 3.6627 1.0449 6.2383 1.4955 2.5755 3.7162 3.4864 4.9004 3.998 1.1841 0.5117 1.3877 0.33017 1.875 2.1309 0.4873 1.8007 0.22346 1.75-0.54102 2.7891-0.76448 1.039-2.2262 2.9436-2.2188 5.9219 0.00756 2.9783 1.4765 4.8789 2.2461 5.9141 0.76965 1.0352 1.0369 0.97814 0.5586 2.7812-0.47834 1.8031-0.68366 1.623-1.8652 2.1406-1.1816 0.51757-3.4001 1.4424-4.8828 4.0254-1.4827 2.5829-1.1606 4.9647-1.0117 6.2461 0.14892 1.2813 0.40761 1.3671-0.9082 2.6895-1.3158 1.3224-1.3996 1.0586-2.6816 0.91602-1.2821-0.14256-3.6627-0.44865-6.2383 1.0469-2.5756 1.4956-3.4922 3.7163-4.0039 4.9004-0.42128 0.9749-0.43101 1.2878-1.4043 1.6387-0.13992-0.076625-0.29747-0.15087-0.48828-0.22266-1.6607-0.62483-1.8791 0.22103-3.2422 1.2363-1.2238 0.91157-2.0954 1.0256-2.0469 2.2246-0.11719-0.012065-0.22826-0.014151-0.3164-0.003906-0.27829 0.032126-0.38865 0.077526-0.6836-0.091797s-0.30944-0.28632-0.42187-0.54297c-0.11241-0.25659-0.3746-0.64124-0.90235-0.78125-0.52779-0.13999-1.1767 0.12778-1.1738 0.23047 0.00294 0.10254 0.43663-0.07423 0.8711 0.19922 0.43447 0.27337 0.40421 0.4415 0.5 0.66016 0.09573 0.21868 0.26613 0.6299 0.74414 0.9043 0.47801 0.27439 0.91911 0.21509 1.1562 0.1875 0.17999-0.020943 0.25507-0.013849 0.37695 0.078125 0.37226 1.1966 1.2449 1.0814 2.752 1.6484 1.6608 0.62483 2.1701 1.3747 3.5332 0.35938 0.9978-0.74322 0.89282-1.2826 0.65234-2.1582 2.2207-0.92784 3.3884-2.6867 3.918-3.9121 0.60051-1.3896 0.67842-2.0323 2.2676-2.9551 1.5892-0.92279 2.1868-0.67315 3.6914-0.50586 1.5046 0.16724 4.0146-0.029704 6.0957-2.1211 2.0811-2.0914 2.2685-4.6037 2.0938-6.1074-0.17477-1.5037-0.42853-2.0996 0.48633-3.6934 0.91486-1.5937 1.5548-1.6738 2.9414-2.2812 1.3866-0.60742 3.4622-2.031 4.2188-4.8828 0.75654-2.8518-0.34091-5.1191-1.2441-6.334-0.90322-1.2149-1.4193-1.6038-1.4238-3.4414-0.00453-1.8376 0.51104-2.2279 1.4082-3.4473 0.89716-1.2194 1.9797-3.4919 1.209-6.3398-0.77071-2.848-2.8506-4.2647-4.2402-4.8652-1.3896-0.60051-2.0323-0.67842-2.9551-2.2676-0.92278-1.5892-0.67315-2.1868-0.50586-3.6914 0.16728-1.5046-0.02971-4.0146-2.1211-6.0957-2.0914-2.0811-4.6037-2.2685-6.1074-2.0938-1.5037 0.17477-2.0996 0.42853-3.6934-0.48633-1.5937-0.91486-1.6738-1.5548-2.2812-2.9414-0.60741-1.3866-2.033-3.4622-4.8848-4.2188-0.71295-0.18913-1.389-0.26247-2.0215-0.25195z" fill="#336790" style="paint-order:markers fill stroke"/>
  <g id="text1090" fill="#336790" stroke-width=".22458" aria-label="SETUP">
   <path id="path1424" d="m70.306 86.538q-0.95916 0-2.1639-0.18715v-1.427q1.4095 0.21055 2.1639 0.21055 1.041 0 1.041-1.1112 0-0.30997-0.15206-0.58485-0.14621-0.28073-0.41524-0.386-0.16961-0.06433-0.46788-0.10527-0.29827-0.04094-0.61409-0.11697-0.30997-0.08188-0.59655-0.25149-1.0995-0.65503-1.0995-2.0704 0-1.0118 0.64334-1.7019 0.64918-0.69012 1.661-0.69012 0.78955 0 2.1639 0.14621v1.4095q-1.4212-0.15206-2.1639-0.15206-0.22224 0-0.39185 0.09942-0.16376 0.09943-0.25149 0.25733-0.08773 0.15791-0.12867 0.32167-0.03509 0.16376-0.03509 0.32167 0 0.69012 0.46788 0.90067 0.15206 0.07018 0.69012 0.15791 0.54391 0.08188 0.87728 0.25733 0.46788 0.23979 0.772 0.61994 0.30412 0.38015 0.42109 0.76616 0.11697 0.386 0.11697 0.80124 0 1.1346-0.70182 1.8247t-1.8364 0.69012z" style="font-feature-settings:normal;font-variant-caps:normal;font-variant-ligatures:normal;font-variant-numeric:normal"/>
   <path id="path1426" d="m74.16 78.209h4.4917v1.4036h-2.9944v1.9885h2.2458v1.4036h-2.2458v2.0353h2.9944v1.4036h-4.4917z" style="font-feature-settings:normal;font-variant-caps:normal;font-variant-ligatures:normal;font-variant-numeric:normal"/>
   <path id="path1428" d="m85.009 78.209v1.4036h-1.8715v6.8311h-1.4972v-6.8311h-1.8715v-1.4036z" style="font-feature-settings:normal;font-variant-caps:normal;font-variant-ligatures:normal;font-variant-numeric:normal"/>
   <path id="path1430" d="m85.752 78.209h1.4972v5.2403q0 0.54976 0.04094 0.74861 0.08773 0.42109 0.3743 0.67843 0.29242 0.25734 0.70767 0.25734t0.70182-0.25734q0.29243-0.25733 0.38015-0.67843 0.04094-0.19885 0.04094-0.74861v-5.2403h1.4972v5.2403q0 0.82464-0.09358 1.2223-0.19885 0.82464-0.88897 1.3452-0.68428 0.52052-1.6376 0.52052-0.95331 0-1.6434-0.52052-0.68428-0.52052-0.88312-1.3452-0.09358-0.3977-0.09358-1.2223z" style="font-feature-settings:normal;font-variant-caps:normal;font-variant-ligatures:normal;font-variant-numeric:normal"/>
   <path id="path1432" d="m93.607 79.613v2.3862h0.36261q0.50297 0 0.73106-0.04679 0.3977-0.08188 0.63164-0.39185 0.23979-0.30997 0.23979-0.75446t-0.23979-0.75446q-0.23394-0.30997-0.63164-0.39185-0.22809-0.04679-0.73106-0.04679zm-1.4972-1.4036h1.8481q0.86558 0 1.234 0.08773 0.83049 0.19885 1.351 0.87143 0.52637 0.66673 0.52637 1.6376t-0.52637 1.6434q-0.52052 0.66673-1.351 0.86558-0.36846 0.08773-1.234 0.08773h-0.35091v3.0412h-1.4972z" style="font-feature-settings:normal;font-variant-caps:normal;font-variant-ligatures:normal;font-variant-numeric:normal"/>
  </g>
  <g id="text1094" fill="#e5b62f" stroke-width=".22458" aria-label="TOOLS">
   <path id="path1413" d="m102.96 78.209v1.4036h-1.8715v6.8311h-1.4972v-6.8311h-1.8715v-1.4036z" style="font-feature-settings:normal;font-variant-caps:normal;font-variant-ligatures:normal;font-variant-numeric:normal"/>
   <path id="path1415" d="m105.19 80.818q-0.0877 0.47958-0.0877 1.5089t0.0877 1.5089q0.10528 0.5673 0.38601 0.93576 0.28657 0.36261 0.74276 0.36261 0.45618 0 0.73691-0.36261 0.28658-0.36846 0.39185-0.93576 0.0877-0.48543 0.0877-1.5089 0-1.0293-0.0877-1.5089-0.10527-0.5673-0.39185-0.92991-0.28073-0.36846-0.73691-0.36846-0.45619 0-0.74276 0.36846-0.28073 0.36261-0.38601 0.92991zm-1.4212 3.55q-0.16376-0.64918-0.16376-2.0411t0.16376-2.0411q0.23394-0.94746 0.88312-1.5557 0.64919-0.61409 1.6668-0.61409t1.6668 0.61409q0.64919 0.60824 0.88313 1.5557 0.16375 0.64918 0.16375 2.0411t-0.16375 2.0411q-0.23394 0.94746-0.88313 1.5616-0.64918 0.60824-1.6668 0.60824t-1.6668-0.60824q-0.64918-0.61409-0.88312-1.5616z" style="font-feature-settings:normal;font-variant-caps:normal;font-variant-ligatures:normal;font-variant-numeric:normal"/>
   <path id="path1417" d="m111.18 80.818q-0.0877 0.47958-0.0877 1.5089t0.0877 1.5089q0.10527 0.5673 0.386 0.93576 0.28658 0.36261 0.74276 0.36261t0.73691-0.36261q0.28658-0.36846 0.39185-0.93576 0.0877-0.48543 0.0877-1.5089 0-1.0293-0.0877-1.5089-0.10527-0.5673-0.39185-0.92991-0.28073-0.36846-0.73691-0.36846t-0.74276 0.36846q-0.28073 0.36261-0.386 0.92991zm-1.4212 3.55q-0.16376-0.64918-0.16376-2.0411t0.16376-2.0411q0.23394-0.94746 0.88313-1.5557 0.64918-0.61409 1.6668-0.61409t1.6668 0.61409q0.64919 0.60824 0.88313 1.5557 0.16376 0.64918 0.16376 2.0411t-0.16376 2.0411q-0.23394 0.94746-0.88313 1.5616-0.64918 0.60824-1.6668 0.60824t-1.6668-0.60824q-0.64919-0.61409-0.88313-1.5616z" style="font-feature-settings:normal;font-variant-caps:normal;font-variant-ligatures:normal;font-variant-numeric:normal"/>
   <path id="path1419" d="m116.04 86.444v-8.2347h1.4972v6.8311h3.3687v1.4036z" style="font-feature-settings:normal;font-variant-caps:normal;font-variant-ligatures:normal;font-variant-numeric:normal"/>
   <path id="path1421" d="m124.15 86.538q-0.95916 0-2.164-0.18715v-1.427q1.4095 0.21055 2.164 0.21055 1.041 0 1.041-1.1112 0-0.30997-0.15206-0.58485-0.14621-0.28073-0.41524-0.386-0.16961-0.06433-0.46789-0.10527-0.29827-0.04094-0.61409-0.11697-0.30997-0.08188-0.59655-0.25149-1.0995-0.65503-1.0995-2.0704 0-1.0118 0.64334-1.7019 0.64918-0.69012 1.661-0.69012 0.78954 0 2.1639 0.14621v1.4095q-1.4212-0.15206-2.1639-0.15206-0.22225 0-0.39185 0.09942-0.16376 0.09943-0.25149 0.25733-0.0877 0.15791-0.12867 0.32167-0.0351 0.16376-0.0351 0.32167 0 0.69012 0.46788 0.90067 0.15206 0.07018 0.69013 0.15791 0.54391 0.08188 0.87727 0.25733 0.46788 0.23979 0.77201 0.61994 0.30412 0.38015 0.42109 0.76616 0.11697 0.386 0.11697 0.80124 0 1.1346-0.70182 1.8247t-1.8364 0.69012z" style="font-feature-settings:normal;font-variant-caps:normal;font-variant-ligatures:normal;font-variant-numeric:normal"/>
  </g>
  <path id="rect830-6" d="m45.345 102.91h82.571c0.28796 0 0.51978 0.23183 0.51978 0.51978v22.171c0 0.28796-0.23182 0.51978-0.51978 0.51978h-82.571c-0.28796 0-0.51978-0.23182-0.51978-0.51978v-22.171c0-0.28795 0.23182-0.51978 0.51978-0.51978z" fill="#336790" style="paint-order:markers fill stroke"/>
  <path id="rect1168" transform="matrix(.26458 0 0 .26458 -113.76 68.446)" d="m645.59 150.78c-2.1498-0.02041-6.2168 0.06055-6.2168 0.06055-0.19725 0-0.35547 0.16549-0.35547 0.37109v2.5254h-3.7051v-2.5254c0-0.2056-0.15821-0.37109-0.35547-0.37109h-4.416c-0.19725 0-0.35742 0.16549-0.35742 0.37109v9.3535c0 0.20561 0.16001 0.37109 0.35742 0.37109h4.416c0.19726 0 0.35547-0.16548 0.35547-0.37109v-2.5234h3.7051v2.5234c0 0.20561 0.15825 0.37109 0.35547 0.37109h2.2363v11.906c-1.2817 0.50867-2.1856 1.7516-2.1856 3.2188v18.037c0 1.9216 1.5471 3.4688 3.4688 3.4688s3.4688-1.5471 3.4688-3.4688v-18.037c0-1.4665-0.90278-2.7096-2.1836-3.2188v-11.906h2.4199c0.38561-0.3394 0.75677-1.7011 2.8164-2.7422 5.5309-1.9 7.9328 2.808 7.8906 2.1582-0.04505-0.69373-0.35053-5.0458-5.1797-7.5977-2.1039-0.94609-4.5788-1.8754-5.2461-1.9141-0.06886-0.03628-0.57246-0.05374-1.2891-0.06055z" fill="#e5b62f" stroke="#e5b62f" stroke-width=".82412" style="paint-order:markers fill stroke"/>
  <path id="path1176" transform="matrix(.26458 0 0 .26458 -113.76 68.446)" d="m650.43 136.31c-1.8975 0.03152-3.3994 0.81663-4.3105 1.4941-1.2149 0.90323-1.6057 1.4193-3.4434 1.4238-1.8376 0.00378-2.2279-0.51106-3.4473-1.4082-1.2194-0.89719-3.4899-1.9778-6.3379-1.207-2.848 0.77069-4.2647 2.8506-4.8652 4.2402-0.60051 1.3896-0.67842 2.0304-2.2676 2.9531-1.5892 0.92281-2.1868 0.6751-3.6914 0.50782-1.5046-0.16744-4.0146 0.02853-6.0957 2.1191-2.0811 2.0914-2.2685 4.6056-2.0938 6.1094 0.17473 1.5038 0.42851 2.0977-0.48633 3.6914-0.91487 1.5937-1.5548 1.6758-2.9414 2.2832-1.3867 0.60741-3.4622 2.031-4.2188 4.8828-0.75654 2.8518 0.34098 5.1171 1.2441 6.332 0.90319 1.2149 1.4192 1.6057 1.4238 3.4434 0.00454 1.8376-0.51104 2.2279-1.4082 3.4473-0.89718 1.2194-1.9797 3.4899-1.209 6.3379 0.77071 2.848 2.8506 4.2647 4.2402 4.8652 1.3896 0.6005 2.0323 0.67844 2.9551 2.2676 0.92276 1.5892 0.67316 2.1868 0.50586 3.6914-0.16728 1.5046 0.0297 4.0146 2.1211 6.0957 2.0915 2.081 4.6037 2.2627 6.1074 2.0879 1.5037-0.17499 2.0996-0.42268 3.6934 0.49219 1.5937 0.91484 1.6738 1.5548 2.2812 2.9414 0.60742 1.3866 2.031 3.4622 4.8828 4.2188 2.8518 0.75654 6.3494-0.68758 6.334-1.2422-0.01587-0.55461-2.3574 0.39899-4.7051-1.0781-2.3477-1.4772-2.1797-2.3888-2.6973-3.5703-0.51759-1.1816-1.4424-3.4001-4.0254-4.8828-2.5829-1.4827-4.9648-1.1626-6.2461-1.0137-1.2813 0.14891-1.3671 0.40955-2.6894-0.90625-1.3224-1.3158-1.0586-1.3996-0.91602-2.6816 0.14257-1.2821 0.44867-3.6647-1.0469-6.2402-1.4956-2.5756-3.7163-3.4922-4.9004-4.0039-1.1841-0.51171-1.3857-0.32447-1.873-2.125-0.4873-1.8008-0.22347-1.7481 0.54102-2.7871 0.76447-1.039 2.2242-2.9456 2.2168-5.9238-0.00718-2.9783-1.4764-4.8828-2.2461-5.918-0.76963-1.0352-1.037-0.97811-0.55859-2.7812 0.47833-1.8031 0.68366-1.6172 1.8652-2.1348 1.1816-0.51756 3.4001-1.4444 4.8828-4.0273 1.4827-2.583 1.1626-4.9628 1.0137-6.2441-0.14883-1.2813-0.4076-1.3671 0.90821-2.6894s1.3976-1.0644 2.6797-0.92188c1.282 0.14249 3.6647 0.45455 6.2402-1.041 2.5755-1.4955 3.4864-3.7163 3.998-4.9004 0.5117-1.1842 0.33013-1.3877 2.1309-1.875 1.8007-0.48734 1.7481-0.22152 2.7871 0.54296 1.039 0.76449 2.9456 2.2242 5.9238 2.2168 2.9783-0.00756 4.8789-1.4765 5.9141-2.2461 1.0352-0.76967 0.97813-1.0369 2.7812-0.5586 1.8031 0.47834 1.6211 0.68368 2.1387 1.8652 0.51758 1.1816 1.4444 3.4001 4.0273 4.8828s4.9648 1.1607 6.2461 1.0117c1.2813-0.14891 1.3651-0.4076 2.6875 0.9082 1.3224 1.3158 1.0605 1.3996 0.91796 2.6816-0.14252 1.2821-0.45062 3.6627 1.0449 6.2383 1.4955 2.5755 3.7162 3.4883 4.9004 4 1.1841 0.51171 1.3877 0.32819 1.875 2.1289 0.4873 1.8007 0.22346 1.7501-0.54102 2.7891-0.76448 1.039-2.2262 2.9456-2.2188 5.9238 0.00756 2.9783 1.4765 4.8769 2.2461 5.9121 0.76965 1.0352 1.0369 0.97811 0.5586 2.7812-0.47834 1.8031-0.68366 1.6231-1.8652 2.1406-1.1816 0.51756-3.4001 1.4444-4.8828 4.0273-1.4827 2.583-1.1606 4.9628-1.0117 6.2441s0.40761 1.3671-0.9082 2.6894-1.3996 1.0585-2.6816 0.91602c-1.2821-0.14249-3.6627-0.44865-6.2383 1.0469-2.5756 1.4956-3.4922 3.7163-4.0039 4.9004-0.42101 0.9743-0.43101 1.288-1.4023 1.6387-0.14024-0.0769-0.29879-0.15063-0.49024-0.22266-1.6607-0.62483-1.8791 0.22103-3.2422 1.2363-1.2238 0.91157-2.0954 1.0256-2.0469 2.2246-0.11719-0.01206-0.22826-0.01416-0.3164-0.00391-0.27829 0.03402-0.38865 0.07753-0.6836-0.0918-0.29495-0.16932-0.30944-0.28633-0.42187-0.54296-0.11241-0.25663-0.3746-0.64126-0.90235-0.78125-0.52779-0.13985-1.1767 0.12766-1.1738 0.23046 0.00294 0.10243 0.43663-0.07441 0.8711 0.19922 0.43447 0.27326 0.40421 0.44148 0.5 0.66016 0.09573 0.21883 0.26613 0.62986 0.74414 0.9043 0.47801 0.27439 0.91911 0.21509 1.1562 0.1875 0.17999-0.02009 0.25507-0.01352 0.37695 0.07812 0.37226 1.1966 1.2449 1.0814 2.752 1.6484 1.6608 0.62483 2.1701 1.3747 3.5332 0.35937 0.99763-0.74309 0.89468-1.2829 0.65429-2.1582 2.2192-0.92808 3.3866-2.687 3.916-3.9121 0.60051-1.3897 0.67842-2.0323 2.2676-2.9551s2.1868-0.67314 3.6914-0.50586c1.5046 0.16744 4.0146-0.03044 6.0957-2.1211 2.0811-2.0914 2.2685-4.6037 2.0938-6.1074s-0.42853-2.0996 0.48633-3.6934c0.91486-1.5938 1.5548-1.6738 2.9414-2.2812 1.3866-0.60741 3.4622-2.031 4.2188-4.8828 0.75654-2.8518-0.34091-5.1191-1.2441-6.334-0.90322-1.2149-1.4193-1.6038-1.4238-3.4414-0.00453-1.8376 0.51104-2.2279 1.4082-3.4473 0.89716-1.2194 1.9797-3.4919 1.209-6.3398-0.77071-2.848-2.8506-4.2628-4.2402-4.8633-1.3896-0.60053-2.0323-0.68036-2.9551-2.2695-0.92278-1.5891-0.67315-2.1849-0.50586-3.6894 0.16728-1.5046-0.02971-4.0166-2.1211-6.0977-2.0914-2.0811-4.6037-2.2666-6.1074-2.0918-1.5037 0.17499-2.0996 0.42659-3.6934-0.48828-1.5937-0.91488-1.6738-1.5548-2.2812-2.9414-0.60741-1.3867-2.033-3.4602-4.8848-4.2168-0.71295-0.18912-1.389-0.26246-2.0215-0.25195z" fill="#fff" style="paint-order:markers fill stroke"/>
  <g id="text1188" fill="#fff" stroke-width=".22458" aria-label="SETUP">
   <path id="path1385" d="m70.306 118.72q-0.95916 0-2.1639-0.18716v-1.427q1.4095 0.21054 2.1639 0.21054 1.041 0 1.041-1.1112 0-0.30997-0.15206-0.58485-0.14621-0.28073-0.41524-0.386-0.16961-0.0643-0.46788-0.10528-0.29827-0.0409-0.61409-0.11697-0.30997-0.0819-0.59655-0.25148-1.0995-0.65504-1.0995-2.0704 0-1.0118 0.64334-1.7019 0.64918-0.69013 1.661-0.69013 0.78955 0 2.1639 0.14622v1.4095q-1.4212-0.15206-2.1639-0.15206-0.22224 0-0.39185 0.0994-0.16376 0.0994-0.25149 0.25734-0.08773 0.15791-0.12867 0.32166-0.03509 0.16376-0.03509 0.32167 0 0.69013 0.46788 0.90067 0.15206 0.0702 0.69012 0.15791 0.54391 0.0819 0.87728 0.25734 0.46788 0.23978 0.772 0.61994 0.30412 0.38015 0.42109 0.76615 0.11697 0.386 0.11697 0.80125 0 1.1346-0.70182 1.8247-0.70182 0.69013-1.8364 0.69013z" style="font-feature-settings:normal;font-variant-caps:normal;font-variant-ligatures:normal;font-variant-numeric:normal"/>
   <path id="path1387" d="m74.16 110.39h4.4917v1.4036h-2.9944v1.9885h2.2458v1.4036h-2.2458v2.0353h2.9944v1.4036h-4.4917z" style="font-feature-settings:normal;font-variant-caps:normal;font-variant-ligatures:normal;font-variant-numeric:normal"/>
   <path id="path1389" d="m85.009 110.39v1.4036h-1.8715v6.8311h-1.4972v-6.8311h-1.8715v-1.4036z" style="font-feature-settings:normal;font-variant-caps:normal;font-variant-ligatures:normal;font-variant-numeric:normal"/>
   <path id="path1391" d="m85.752 110.39h1.4972v5.2403q0 0.54976 0.04094 0.74861 0.08773 0.4211 0.3743 0.67843 0.29242 0.25733 0.70767 0.25733t0.70182-0.25733q0.29243-0.25733 0.38015-0.67843 0.04094-0.19885 0.04094-0.74861v-5.2403h1.4972v5.2403q0 0.82464-0.09358 1.2223-0.19885 0.82464-0.88897 1.3452-0.68428 0.52052-1.6376 0.52052-0.95331 0-1.6434-0.52052-0.68428-0.52052-0.88312-1.3452-0.09358-0.3977-0.09358-1.2223z" style="font-feature-settings:normal;font-variant-caps:normal;font-variant-ligatures:normal;font-variant-numeric:normal"/>
   <path id="path1393" d="m93.607 111.8v2.3862h0.36261q0.50297 0 0.73106-0.0468 0.3977-0.0819 0.63164-0.39185 0.23979-0.30997 0.23979-0.75446t-0.23979-0.75446q-0.23394-0.30997-0.63164-0.39185-0.22809-0.0468-0.73106-0.0468zm-1.4972-1.4036h1.8481q0.86558 0 1.234 0.0877 0.83049 0.19885 1.351 0.87143 0.52637 0.66673 0.52637 1.6376t-0.52637 1.6434q-0.52052 0.66673-1.351 0.86558-0.36846 0.0877-1.234 0.0877h-0.35091v3.0412h-1.4972z" style="font-feature-settings:normal;font-variant-caps:normal;font-variant-ligatures:normal;font-variant-numeric:normal"/>
  </g>
  <g id="text1192" fill="#e5b62f" stroke-width=".22458" aria-label="TOOLS">
   <path id="path1396" d="m102.96 110.39v1.4036h-1.8715v6.8311h-1.4972v-6.8311h-1.8715v-1.4036z" style="font-feature-settings:normal;font-variant-caps:normal;font-variant-ligatures:normal;font-variant-numeric:normal"/>
   <path id="path1398" d="m105.19 113q-0.0877 0.47957-0.0877 1.5089t0.0877 1.5089q0.10528 0.5673 0.38601 0.93576 0.28657 0.3626 0.74276 0.3626 0.45618 0 0.73691-0.3626 0.28658-0.36846 0.39185-0.93576 0.0877-0.48543 0.0877-1.5089 0-1.0293-0.0877-1.5089-0.10527-0.56731-0.39185-0.92992-0.28073-0.36845-0.73691-0.36845-0.45619 0-0.74276 0.36845-0.28073 0.36261-0.38601 0.92992zm-1.4212 3.55q-0.16376-0.64918-0.16376-2.0411 0-1.3919 0.16376-2.0411 0.23394-0.94746 0.88312-1.5557 0.64919-0.6141 1.6668-0.6141t1.6668 0.6141q0.64919 0.60824 0.88313 1.5557 0.16375 0.64919 0.16375 2.0411 0 1.392-0.16375 2.0411-0.23394 0.94746-0.88313 1.5616-0.64918 0.60825-1.6668 0.60825t-1.6668-0.60825q-0.64918-0.61409-0.88312-1.5616z" style="font-feature-settings:normal;font-variant-caps:normal;font-variant-ligatures:normal;font-variant-numeric:normal"/>
   <path id="path1400" d="m111.18 113q-0.0877 0.47957-0.0877 1.5089t0.0877 1.5089q0.10527 0.5673 0.386 0.93576 0.28658 0.3626 0.74276 0.3626t0.73691-0.3626q0.28658-0.36846 0.39185-0.93576 0.0877-0.48543 0.0877-1.5089 0-1.0293-0.0877-1.5089-0.10527-0.56731-0.39185-0.92992-0.28073-0.36845-0.73691-0.36845t-0.74276 0.36845q-0.28073 0.36261-0.386 0.92992zm-1.4212 3.55q-0.16376-0.64918-0.16376-2.0411 0-1.3919 0.16376-2.0411 0.23394-0.94746 0.88313-1.5557 0.64918-0.6141 1.6668-0.6141t1.6668 0.6141q0.64919 0.60824 0.88313 1.5557 0.16376 0.64919 0.16376 2.0411 0 1.392-0.16376 2.0411-0.23394 0.94746-0.88313 1.5616-0.64918 0.60825-1.6668 0.60825t-1.6668-0.60825q-0.64919-0.61409-0.88313-1.5616z" style="font-feature-settings:normal;font-variant-caps:normal;font-variant-ligatures:normal;font-variant-numeric:normal"/>
   <path id="path1402" d="m116.04 118.63v-8.2347h1.4972v6.8311h3.3687v1.4036z" style="font-feature-settings:normal;font-variant-caps:normal;font-variant-ligatures:normal;font-variant-numeric:normal"/>
   <path id="path1404" d="m124.15 118.72q-0.95916 0-2.164-0.18716v-1.427q1.4095 0.21054 2.164 0.21054 1.041 0 1.041-1.1112 0-0.30997-0.15206-0.58485-0.14621-0.28073-0.41524-0.386-0.16961-0.0643-0.46789-0.10528-0.29827-0.0409-0.61409-0.11697-0.30997-0.0819-0.59655-0.25148-1.0995-0.65504-1.0995-2.0704 0-1.0118 0.64334-1.7019 0.64918-0.69013 1.661-0.69013 0.78954 0 2.1639 0.14622v1.4095q-1.4212-0.15206-2.1639-0.15206-0.22225 0-0.39185 0.0994-0.16376 0.0994-0.25149 0.25734-0.0877 0.15791-0.12867 0.32166-0.0351 0.16376-0.0351 0.32167 0 0.69013 0.46788 0.90067 0.15206 0.0702 0.69013 0.15791 0.54391 0.0819 0.87727 0.25734 0.46788 0.23978 0.77201 0.61994 0.30412 0.38015 0.42109 0.76615t0.11697 0.80125q0 1.1346-0.70182 1.8247-0.70182 0.69013-1.8364 0.69013z" style="font-feature-settings:normal;font-variant-caps:normal;font-variant-ligatures:normal;font-variant-numeric:normal"/>
  </g>
  <path id="rect830-6-9-8" d="m45.345 135.09h82.571c0.28796 0 0.51978 0.23182 0.51978 0.51978v22.171c0 0.28796-0.23182 0.51978-0.51978 0.51978h-82.571c-0.28796 0-0.51978-0.23182-0.51978-0.51978v-22.171c0-0.28796 0.23182-0.51978 0.51978-0.51978z" fill="#fff" style="paint-order:markers fill stroke"/>
  <path id="rect1222" transform="matrix(.26458 0 0 .26458 -113.76 68.446)" d="m645.59 272.42c-2.1498-0.02041-6.2168 0.06055-6.2168 0.06055-0.19725 0-0.35547 0.16744-0.35547 0.37305v2.5234h-3.7051v-2.5234c0-0.20561-0.15821-0.37305-0.35547-0.37305h-4.416c-0.19725 0-0.35742 0.16744-0.35742 0.37305v9.3535c0 0.20561 0.16001 0.36914 0.35742 0.36914h4.416c0.19726 0 0.35547-0.16353 0.35547-0.36914v-2.5254h3.7051v2.5254c0 0.20561 0.15825 0.36914 0.35547 0.36914h2.2363v11.906c-1.2817 0.50867-2.1856 1.7516-2.1856 3.2188v18.037c0 1.9217 1.5471 3.4688 3.4688 3.4688s3.4688-1.5471 3.4688-3.4688v-18.037c0-1.4665-0.90278-2.7096-2.1836-3.2188v-11.906h2.4199c0.38561-0.3394 0.75677-1.7011 2.8164-2.7422 5.5309-1.9 7.9328 2.808 7.8906 2.1582-0.04505-0.69373-0.35053-5.0458-5.1797-7.5977-2.1039-0.94609-4.5788-1.8754-5.2461-1.9141-0.06886-0.03628-0.57246-0.05374-1.2891-0.06055z" stroke="#000" stroke-width=".82412" style="paint-order:markers fill stroke"/>
  <path id="path1230" transform="matrix(.26458 0 0 .26458 -113.76 68.446)" d="m650.43 257.96c-1.8975 0.03152-3.3994 0.81663-4.3105 1.4941-1.2149 0.90323-1.6057 1.4192-3.4434 1.4238-1.8376 0.00378-2.2279-0.51106-3.4473-1.4082-1.2194-0.89718-3.4899-1.9778-6.3379-1.207-2.848 0.77069-4.2647 2.8506-4.8652 4.2402-0.60051 1.3896-0.67842 2.0323-2.2676 2.9551-1.5892 0.92281-2.1868 0.67315-3.6914 0.50586-1.5046-0.16743-4.0146 0.03049-6.0957 2.1211-2.0811 2.0914-2.2685 4.6037-2.0938 6.1074 0.17473 1.5038 0.42851 2.0977-0.48633 3.6914-0.91487 1.5937-1.5548 1.6758-2.9414 2.2832-1.3867 0.60741-3.4622 2.031-4.2188 4.8828-0.75654 2.8518 0.34098 5.1191 1.2441 6.334 0.90319 1.2149 1.4192 1.6038 1.4238 3.4414 0.00454 1.8376-0.51104 2.2279-1.4082 3.4473-0.89718 1.2194-1.9797 3.4918-1.209 6.3398 0.77071 2.848 2.8506 4.2628 4.2402 4.8633 1.3896 0.60049 2.0323 0.67844 2.9551 2.2676 0.92276 1.5892 0.67316 2.1868 0.50586 3.6914-0.16728 1.5046 0.0297 4.0146 2.1211 6.0957 2.0915 2.081 4.6037 2.2627 6.1074 2.0879 1.5037-0.17499 2.0996-0.42073 3.6934 0.49414 1.5937 0.91484 1.6738 1.5528 2.2812 2.9395 0.60742 1.3866 2.031 3.4622 4.8828 4.2187 2.8518 0.75655 6.3494-0.68757 6.334-1.2422-0.01587-0.55461-2.3574 0.39899-4.7051-1.0781-2.3477-1.4772-2.1797-2.3888-2.6973-3.5703-0.51759-1.1816-1.4424-3.4001-4.0254-4.8828-2.5829-1.4827-4.9648-1.1626-6.2461-1.0137-1.2813 0.14891-1.3671 0.40955-2.6894-0.90625-1.3224-1.3158-1.0586-1.3996-0.91602-2.6816 0.14257-1.282 0.44867-3.6628-1.0469-6.2383-1.4956-2.5756-3.7163-3.4922-4.9004-4.0039-1.1841-0.51171-1.3857-0.32643-1.873-2.127-0.4873-1.8008-0.22347-1.7481 0.54102-2.7871 0.76447-1.039 2.2242-2.9456 2.2168-5.9238-0.00718-2.9783-1.4764-4.8828-2.2461-5.918-0.76963-1.0352-1.037-0.97811-0.55859-2.7812 0.47833-1.8031 0.68366-1.6172 1.8652-2.1348 1.1816-0.51757 3.4001-1.4444 4.8828-4.0273 1.4827-2.583 1.1626-4.9628 1.0137-6.2441-0.14883-1.2813-0.4076-1.3671 0.90821-2.6895 1.3158-1.3224 1.3976-1.0644 2.6797-0.92187 1.282 0.14249 3.6647 0.45454 6.2402-1.041 2.5755-1.4955 3.4864-3.7163 3.998-4.9004 0.5117-1.1842 0.33013-1.3877 2.1309-1.875 1.8007-0.48733 1.7481-0.22151 2.7871 0.54297 1.039 0.76449 2.9456 2.2242 5.9238 2.2168 2.9783-0.00756 4.8789-1.4765 5.9141-2.2461 1.0352-0.76967 0.97813-1.0369 2.7812-0.5586 1.8031 0.47834 1.6211 0.68368 2.1387 1.8652 0.51758 1.1816 1.4444 3.4001 4.0273 4.8828s4.9648 1.1626 6.2461 1.0137c1.2813-0.14891 1.3651-0.40955 2.6875 0.90625 1.3224 1.3158 1.0605 1.3996 0.91796 2.6816-0.14252 1.282-0.45062 3.6627 1.0449 6.2383 1.4955 2.5755 3.7162 3.4883 4.9004 4 1.1841 0.51171 1.3877 0.33014 1.875 2.1309 0.4873 1.8007 0.22346 1.7481-0.54102 2.7871-0.76448 1.039-2.2262 2.9456-2.2188 5.9238 0.00756 2.9783 1.4765 4.8769 2.2461 5.9121 0.76965 1.0352 1.0369 0.98006 0.5586 2.7832-0.47834 1.8031-0.68366 1.6211-1.8652 2.1387-1.1816 0.51757-3.4001 1.4444-4.8828 4.0274-1.4827 2.583-1.1606 4.9628-1.0117 6.2441 0.14892 1.2813 0.40761 1.3671-0.9082 2.6894s-1.3996 1.0585-2.6816 0.91602c-1.2821-0.14249-3.6627-0.44865-6.2383 1.0469-2.5756 1.4956-3.4922 3.7163-4.0039 4.9004-0.42099 0.97425-0.43116 1.2881-1.4023 1.6387-0.14024-0.07689-0.29879-0.15062-0.49024-0.22265-1.6607-0.62483-1.8791 0.22103-3.2422 1.2363-1.2238 0.91157-2.0954 1.0256-2.0469 2.2246-0.11719-0.01207-0.22826-0.01416-0.3164-0.00391-0.27829 0.03402-0.38865 0.07948-0.6836-0.08984-0.29495-0.16933-0.30944-0.2883-0.42187-0.54493-0.11241-0.25663-0.3746-0.64125-0.90235-0.78125-0.52779-0.13984-1.1767 0.12767-1.1738 0.23047 0.00294 0.10243 0.43663-0.07442 0.8711 0.19922 0.43447 0.27326 0.40421 0.44147 0.5 0.66016 0.09573 0.21883 0.26613 0.62986 0.74414 0.90429 0.47801 0.2744 0.91911 0.21509 1.1562 0.1875 0.17999-0.02008 0.25507-0.01351 0.37695 0.07813 0.37226 1.1966 1.2449 1.0814 2.752 1.6484 1.6608 0.62483 2.1701 1.3766 3.5332 0.36133 0.99774-0.74318 0.89279-1.2827 0.65234-2.1582 2.2207-0.92783 3.3884-2.6886 3.918-3.9141 0.60051-1.3897 0.67842-2.0323 2.2676-2.9551s2.1868-0.67314 3.6914-0.50586c1.5046 0.16743 4.0146-0.03045 6.0957-2.1211 2.0811-2.0914 2.2685-4.6037 2.0938-6.1074-0.17477-1.5037-0.42853-2.0977 0.48633-3.6914 0.91486-1.5938 1.5548-1.6758 2.9414-2.2832 1.3866-0.60741 3.4622-2.031 4.2188-4.8828 0.75654-2.8518-0.34091-5.1191-1.2441-6.334-0.90322-1.2149-1.4193-1.6038-1.4238-3.4414-0.00453-1.8376 0.51104-2.2279 1.4082-3.4473 0.89716-1.2194 1.9797-3.4919 1.209-6.3398-0.77071-2.848-2.8506-4.2628-4.2402-4.8633-1.3896-0.60053-2.0323-0.68035-2.9551-2.2695-0.92278-1.5891-0.67315-2.1849-0.50586-3.6894 0.16728-1.5046-0.02971-4.0166-2.1211-6.0977-2.0914-2.0811-4.6037-2.2666-6.1074-2.0918-1.5037 0.17499-2.0996 0.42659-3.6934-0.48829-1.5937-0.91487-1.6738-1.5528-2.2812-2.9394-0.60741-1.3867-2.033-3.4622-4.8848-4.2188-0.71295-0.18913-1.389-0.26246-2.0215-0.25195z" style="paint-order:markers fill stroke"/>
  <g id="text1242" stroke-width=".22458" aria-label="SETUP">
   <path id="path1372" d="m70.306 150.91q-0.95916 0-2.1639-0.18715v-1.427q1.4095 0.21054 2.1639 0.21054 1.041 0 1.041-1.1112 0-0.30997-0.15206-0.58485-0.14621-0.28072-0.41524-0.386-0.16961-0.0643-0.46788-0.10527-0.29827-0.0409-0.61409-0.11697-0.30997-0.0819-0.59655-0.25149-1.0995-0.65503-1.0995-2.0704 0-1.0118 0.64334-1.7019 0.64918-0.69013 1.661-0.69013 0.78955 0 2.1639 0.14621v1.4095q-1.4212-0.15207-2.1639-0.15207-0.22224 0-0.39185 0.0994-0.16376 0.0994-0.25149 0.25733-0.08773 0.15791-0.12867 0.32167-0.03509 0.16376-0.03509 0.32167 0 0.69012 0.46788 0.90067 0.15206 0.0702 0.69012 0.15791 0.54391 0.0819 0.87728 0.25733 0.46788 0.23979 0.772 0.61994 0.30412 0.38016 0.42109 0.76616 0.11697 0.386 0.11697 0.80124 0 1.1346-0.70182 1.8247t-1.8364 0.69012z" style="font-feature-settings:normal;font-variant-caps:normal;font-variant-ligatures:normal;font-variant-numeric:normal"/>
   <path id="path1374" d="m74.16 142.58h4.4917v1.4036h-2.9944v1.9885h2.2458v1.4036h-2.2458v2.0353h2.9944v1.4036h-4.4917z" style="font-feature-settings:normal;font-variant-caps:normal;font-variant-ligatures:normal;font-variant-numeric:normal"/>
   <path id="path1376" d="m85.009 142.58v1.4036h-1.8715v6.8311h-1.4972v-6.8311h-1.8715v-1.4036z" style="font-feature-settings:normal;font-variant-caps:normal;font-variant-ligatures:normal;font-variant-numeric:normal"/>
   <path id="path1378" d="m85.752 142.58h1.4972v5.2403q0 0.54976 0.04094 0.74861 0.08773 0.42109 0.3743 0.67843 0.29242 0.25733 0.70767 0.25733t0.70182-0.25733q0.29243-0.25734 0.38015-0.67843 0.04094-0.19885 0.04094-0.74861v-5.2403h1.4972v5.2403q0 0.82464-0.09358 1.2223-0.19885 0.82464-0.88897 1.3452-0.68428 0.52051-1.6376 0.52051-0.95331 0-1.6434-0.52051-0.68428-0.52052-0.88312-1.3452-0.09358-0.3977-0.09358-1.2223z" style="font-feature-settings:normal;font-variant-caps:normal;font-variant-ligatures:normal;font-variant-numeric:normal"/>
   <path id="path1380" d="m93.607 143.98v2.3862h0.36261q0.50297 0 0.73106-0.0468 0.3977-0.0819 0.63164-0.39185 0.23979-0.30997 0.23979-0.75445 0-0.44449-0.23979-0.75446-0.23394-0.30997-0.63164-0.39185-0.22809-0.0468-0.73106-0.0468zm-1.4972-1.4036h1.8481q0.86558 0 1.234 0.0877 0.83049 0.19885 1.351 0.87142 0.52637 0.66673 0.52637 1.6376 0 0.97085-0.52637 1.6434-0.52052 0.66673-1.351 0.86558-0.36846 0.0877-1.234 0.0877h-0.35091v3.0412h-1.4972z" style="font-feature-settings:normal;font-variant-caps:normal;font-variant-ligatures:normal;font-variant-numeric:normal"/>
  </g>
  <g id="text1246" stroke-width=".22458" aria-label="TOOLS">
   <path id="path1361" d="m102.96 142.58v1.4036h-1.8715v6.8311h-1.4972v-6.8311h-1.8715v-1.4036z" style="font-feature-settings:normal;font-variant-caps:normal;font-variant-ligatures:normal;font-variant-numeric:normal"/>
   <path id="path1363" d="m105.19 145.19q-0.0877 0.47958-0.0877 1.5089t0.0877 1.5089q0.10528 0.56731 0.38601 0.93576 0.28657 0.36261 0.74276 0.36261 0.45618 0 0.73691-0.36261 0.28658-0.36845 0.39185-0.93576 0.0877-0.48542 0.0877-1.5089 0-1.0293-0.0877-1.5089-0.10527-0.5673-0.39185-0.92991-0.28073-0.36846-0.73691-0.36846-0.45619 0-0.74276 0.36846-0.28073 0.36261-0.38601 0.92991zm-1.4212 3.55q-0.16376-0.64919-0.16376-2.0411 0-1.392 0.16376-2.0411 0.23394-0.94746 0.88312-1.5557 0.64919-0.6141 1.6668-0.6141t1.6668 0.6141q0.64919 0.60824 0.88313 1.5557 0.16375 0.64918 0.16375 2.0411 0 1.3919-0.16375 2.0411-0.23394 0.94746-0.88313 1.5616-0.64918 0.60824-1.6668 0.60824t-1.6668-0.60824q-0.64918-0.61409-0.88312-1.5616z" style="font-feature-settings:normal;font-variant-caps:normal;font-variant-ligatures:normal;font-variant-numeric:normal"/>
   <path id="path1365" d="m111.18 145.19q-0.0877 0.47958-0.0877 1.5089t0.0877 1.5089q0.10527 0.56731 0.386 0.93576 0.28658 0.36261 0.74276 0.36261t0.73691-0.36261q0.28658-0.36845 0.39185-0.93576 0.0877-0.48542 0.0877-1.5089 0-1.0293-0.0877-1.5089-0.10527-0.5673-0.39185-0.92991-0.28073-0.36846-0.73691-0.36846t-0.74276 0.36846q-0.28073 0.36261-0.386 0.92991zm-1.4212 3.55q-0.16376-0.64919-0.16376-2.0411 0-1.392 0.16376-2.0411 0.23394-0.94746 0.88313-1.5557 0.64918-0.6141 1.6668-0.6141t1.6668 0.6141q0.64919 0.60824 0.88313 1.5557 0.16376 0.64918 0.16376 2.0411 0 1.3919-0.16376 2.0411-0.23394 0.94746-0.88313 1.5616-0.64918 0.60824-1.6668 0.60824t-1.6668-0.60824q-0.64919-0.61409-0.88313-1.5616z" style="font-feature-settings:normal;font-variant-caps:normal;font-variant-ligatures:normal;font-variant-numeric:normal"/>
   <path id="path1367" d="m116.04 150.81v-8.2347h1.4972v6.8311h3.3687v1.4036z" style="font-feature-settings:normal;font-variant-caps:normal;font-variant-ligatures:normal;font-variant-numeric:normal"/>
   <path id="path1369" d="m124.15 150.91q-0.95916 0-2.164-0.18715v-1.427q1.4095 0.21054 2.164 0.21054 1.041 0 1.041-1.1112 0-0.30997-0.15206-0.58485-0.14621-0.28072-0.41524-0.386-0.16961-0.0643-0.46789-0.10527-0.29827-0.0409-0.61409-0.11697-0.30997-0.0819-0.59655-0.25149-1.0995-0.65503-1.0995-2.0704 0-1.0118 0.64334-1.7019 0.64918-0.69013 1.661-0.69013 0.78954 0 2.1639 0.14621v1.4095q-1.4212-0.15207-2.1639-0.15207-0.22225 0-0.39185 0.0994-0.16376 0.0994-0.25149 0.25733-0.0877 0.15791-0.12867 0.32167-0.0351 0.16376-0.0351 0.32167 0 0.69012 0.46788 0.90067 0.15206 0.0702 0.69013 0.15791 0.54391 0.0819 0.87727 0.25733 0.46788 0.23979 0.77201 0.61994 0.30412 0.38016 0.42109 0.76616t0.11697 0.80124q0 1.1346-0.70182 1.8247t-1.8364 0.69012z" style="font-feature-settings:normal;font-variant-caps:normal;font-variant-ligatures:normal;font-variant-numeric:normal"/>
  </g>
  <path id="rect1252" d="m45.345 167.28h82.571c0.28796 0 0.51978 0.23182 0.51978 0.51978v22.171c0 0.28796-0.23182 0.51978-0.51978 0.51978h-82.571c-0.28796 0-0.51978-0.23182-0.51978-0.51978v-22.171c0-0.28796 0.23182-0.51978 0.51978-0.51978z" style="paint-order:markers fill stroke"/>
  <path id="rect1254" transform="matrix(.26458 0 0 .26458 -113.76 68.446)" d="m645.59 394.06c-2.1498-0.02041-6.2168 0.06055-6.2168 0.06055-0.19725 0-0.35547 0.16744-0.35547 0.37304v2.5234h-3.7051v-2.5234c0-0.2056-0.15821-0.37304-0.35547-0.37304h-4.416c-0.19725 0-0.35742 0.16744-0.35742 0.37304v9.3535c0 0.20561 0.16001 0.37109 0.35742 0.37109h4.416c0.19726 0 0.35547-0.16548 0.35547-0.37109v-2.5234h3.7051v2.5234c0 0.20561 0.15825 0.37109 0.35547 0.37109h2.2363v11.904c-1.2817 0.50867-2.1856 1.7516-2.1856 3.2188v18.037c0 1.9216 1.5471 3.4688 3.4688 3.4688s3.4688-1.5471 3.4688-3.4688v-18.037c0-1.4665-0.90278-2.7096-2.1836-3.2188v-11.904h2.4199c0.38561-0.3394 0.75677-1.7031 2.8164-2.7441 5.5309-1.9 7.9328 2.808 7.8906 2.1582-0.04505-0.69374-0.35053-5.0458-5.1797-7.5977-2.1039-0.94609-4.5788-1.8754-5.2461-1.9141-0.06886-0.03629-0.57246-0.05375-1.2891-0.06055z" fill="#fff" stroke="#fff" stroke-width=".82412" style="paint-order:markers fill stroke"/>
  <path id="path1262" transform="matrix(.26458 0 0 .26458 -113.76 68.446)" d="m650.43 379.6c-1.8975 0.03152-3.3994 0.81663-4.3105 1.4941-1.2149 0.90323-1.6057 1.4212-3.4434 1.4258-1.8376 0.00378-2.2279-0.51301-3.4473-1.4102-1.2194-0.89718-3.4899-1.9778-6.3379-1.207-2.848 0.77068-4.2647 2.8506-4.8652 4.2402-0.60051 1.3896-0.67842 2.0323-2.2676 2.9551-1.5892 0.92281-2.1868 0.67314-3.6914 0.50586-1.5046-0.16743-4.0146 0.03049-6.0957 2.1211-2.0811 2.0914-2.2685 4.6037-2.0938 6.1074 0.17473 1.5038 0.42851 2.0996-0.48633 3.6934-0.91487 1.5937-1.5548 1.6738-2.9414 2.2812-1.3867 0.60741-3.4622 2.031-4.2188 4.8828-0.75654 2.8518 0.34098 5.1191 1.2441 6.334 0.90319 1.2149 1.4192 1.6038 1.4238 3.4414 0.00454 1.8376-0.51104 2.2279-1.4082 3.4473-0.89718 1.2194-1.9797 3.4918-1.209 6.3398 0.77071 2.848 2.8506 4.2628 4.2402 4.8633 1.3896 0.60049 2.0323 0.68039 2.9551 2.2695 0.92276 1.5892 0.67316 2.1849 0.50586 3.6895-0.16728 1.5046 0.0297 4.0166 2.1211 6.0976 2.0915 2.081 4.6037 2.2627 6.1074 2.0879 1.5037-0.17461 2.0996-0.42268 3.6934 0.49219 1.5937 0.91483 1.6738 1.5528 2.2812 2.9394 0.60742 1.3866 2.031 3.4622 4.8828 4.2188 2.8518 0.75655 6.3494-0.68758 6.334-1.2422-0.01587-0.55461-2.3574 0.39899-4.7051-1.0781-2.3477-1.4772-2.1797-2.3888-2.6973-3.5703-0.51759-1.1816-1.4424-3.4001-4.0254-4.8828-2.5829-1.4827-4.9648-1.1626-6.2461-1.0137-1.2813 0.14892-1.3671 0.40956-2.6894-0.90625-1.3224-1.3158-1.0586-1.3996-0.91602-2.6816 0.14257-1.282 0.44867-3.6628-1.0469-6.2383-1.4956-2.5756-3.7163-3.4922-4.9004-4.0039-1.1841-0.51171-1.3857-0.32643-1.873-2.127-0.4873-1.8008-0.22347-1.7481 0.54102-2.7871 0.76447-1.039 2.2242-2.9456 2.2168-5.9238-0.00718-2.9783-1.4764-4.8828-2.2461-5.918-0.76963-1.0352-1.037-0.97812-0.55859-2.7812 0.47833-1.8031 0.68366-1.6172 1.8652-2.1348 1.1816-0.51757 3.4001-1.4444 4.8828-4.0273 1.4827-2.583 1.1626-4.9628 1.0137-6.2441-0.14883-1.2813-0.4076-1.3671 0.90821-2.6895s1.3976-1.0644 2.6797-0.92187c1.282 0.14249 3.6647 0.45454 6.2402-1.041 2.5755-1.4955 3.4864-3.7163 3.998-4.9004 0.5117-1.1842 0.33013-1.3877 2.1309-1.875 1.8007-0.48733 1.7481-0.22151 2.7871 0.54297 1.039 0.76449 2.9456 2.2242 5.9238 2.2168 2.9783-0.00756 4.8789-1.4765 5.9141-2.2461 1.0352-0.76966 0.97813-1.0369 2.7812-0.55859 1.8031 0.47834 1.6211 0.68368 2.1387 1.8652 0.51758 1.1816 1.4444 3.4001 4.0273 4.8828s4.9648 1.1626 6.2461 1.0137c1.2813-0.14891 1.3651-0.40956 2.6875 0.90625 1.3224 1.3158 1.0605 1.3996 0.91796 2.6816-0.14252 1.282-0.45062 3.6627 1.0449 6.2383 1.4955 2.5755 3.7162 3.4883 4.9004 4 1.1841 0.51171 1.3877 0.33014 1.875 2.1309 0.4873 1.8007 0.22346 1.7481-0.54102 2.7871-0.76448 1.039-2.2262 2.9456-2.2188 5.9238 0.00756 2.9783 1.4765 4.8769 2.2461 5.9121 0.76965 1.0352 1.0369 0.98006 0.5586 2.7832-0.47834 1.8031-0.68366 1.6211-1.8652 2.1387-1.1816 0.51757-3.4001 1.4444-4.8828 4.0274-1.4827 2.583-1.1606 4.9628-1.0117 6.2441 0.14892 1.2813 0.40761 1.3671-0.9082 2.6894s-1.3996 1.0605-2.6816 0.91797c-1.2821-0.14249-3.6627-0.4506-6.2383 1.0449-2.5756 1.4956-3.4922 3.7163-4.0039 4.9004-0.42128 0.97492-0.43101 1.2897-1.4043 1.6406-0.13992-0.07663-0.29747-0.15087-0.48828-0.22266-1.6607-0.62483-1.8791 0.21908-3.2422 1.2344-1.2233 0.91121-2.0946 1.027-2.0469 2.2246-0.11719-0.01206-0.22826-0.01415-0.3164-0.0039-0.27829 0.03401-0.38865 0.07948-0.6836-0.08985-0.29495-0.16932-0.30944-0.28829-0.42187-0.54492-0.11241-0.25663-0.3746-0.64125-0.90235-0.78125-0.52779-0.13984-1.1767 0.12767-1.1738 0.23047 0.00294 0.10243 0.43663-0.07442 0.8711 0.19922 0.43447 0.27326 0.40421 0.44343 0.5 0.66211 0.09573 0.21883 0.26613 0.62791 0.74414 0.90234 0.47801 0.2744 0.91911 0.21509 1.1562 0.1875 0.17999-0.02008 0.25507-0.01352 0.37695 0.07813 0.37226 1.1966 1.2449 1.0814 2.752 1.6484 1.6608 0.62483 2.1701 1.3766 3.5332 0.36133 0.99774-0.74318 0.89279-1.2827 0.65234-2.1582 2.2207-0.92783 3.3884-2.6886 3.918-3.9141 0.60051-1.3897 0.67842-2.0323 2.2676-2.9551s2.1868-0.67314 3.6914-0.50586c1.5046 0.16743 4.0146-0.03045 6.0957-2.1211 2.0811-2.0914 2.2685-4.6037 2.0938-6.1074-0.17477-1.5037-0.42853-2.0977 0.48633-3.6914 0.91486-1.5938 1.5548-1.6758 2.9414-2.2832 1.3866-0.6074 3.4622-2.031 4.2188-4.8828 0.75654-2.8518-0.34091-5.1191-1.2441-6.334-0.90322-1.2149-1.4193-1.6038-1.4238-3.4414-0.00453-1.8376 0.51104-2.2279 1.4082-3.4473 0.89716-1.2194 1.9797-3.4919 1.209-6.3398-0.77071-2.848-2.8506-4.2628-4.2402-4.8633-1.3896-0.60053-2.0323-0.6784-2.9551-2.2676-0.92278-1.5891-0.67315-2.1868-0.50586-3.6914 0.16728-1.5046-0.02971-4.0147-2.1211-6.0957-2.0914-2.0811-4.6037-2.2685-6.1074-2.0938-1.5037 0.17462-2.0996 0.42659-3.6934-0.48828-1.5937-0.91487-1.6738-1.5528-2.2812-2.9394-0.60741-1.3867-2.033-3.4622-4.8848-4.2188-0.71295-0.18913-1.389-0.26246-2.0215-0.25195z" fill="#fff" style="paint-order:markers fill stroke"/>
  <g id="text1274" fill="#fff" stroke-width=".22458" aria-label="SETUP">
   <path id="path1333" d="m70.306 183.09q-0.95916 0-2.1639-0.18715v-1.427q1.4095 0.21055 2.1639 0.21055 1.041 0 1.041-1.1112 0-0.30997-0.15206-0.58485-0.14621-0.28073-0.41524-0.386-0.16961-0.0643-0.46788-0.10527-0.29827-0.0409-0.61409-0.11697-0.30997-0.0819-0.59655-0.25149-1.0995-0.65503-1.0995-2.0704 0-1.0118 0.64334-1.7019 0.64918-0.69012 1.661-0.69012 0.78955 0 2.1639 0.14621v1.4095q-1.4212-0.15206-2.1639-0.15206-0.22224 0-0.39185 0.0994-0.16376 0.0994-0.25149 0.25733-0.08773 0.15791-0.12867 0.32167-0.03509 0.16376-0.03509 0.32167 0 0.69012 0.46788 0.90067 0.15206 0.0702 0.69012 0.15791 0.54391 0.0819 0.87728 0.25733 0.46788 0.23979 0.772 0.61994 0.30412 0.38015 0.42109 0.76616 0.11697 0.386 0.11697 0.80124 0 1.1346-0.70182 1.8247-0.70182 0.69012-1.8364 0.69012z" style="font-feature-settings:normal;font-variant-caps:normal;font-variant-ligatures:normal;font-variant-numeric:normal"/>
   <path id="path1335" d="m74.16 174.76h4.4917v1.4036h-2.9944v1.9885h2.2458v1.4036h-2.2458v2.0353h2.9944v1.4036h-4.4917z" style="font-feature-settings:normal;font-variant-caps:normal;font-variant-ligatures:normal;font-variant-numeric:normal"/>
   <path id="path1337" d="m85.009 174.76v1.4036h-1.8715v6.831h-1.4972v-6.831h-1.8715v-1.4036z" style="font-feature-settings:normal;font-variant-caps:normal;font-variant-ligatures:normal;font-variant-numeric:normal"/>
   <path id="path1339" d="m85.752 174.76h1.4972v5.2403q0 0.54976 0.04094 0.74861 0.08773 0.42109 0.3743 0.67842 0.29242 0.25734 0.70767 0.25734t0.70182-0.25734q0.29243-0.25733 0.38015-0.67842 0.04094-0.19885 0.04094-0.74861v-5.2403h1.4972v5.2403q0 0.82464-0.09358 1.2223-0.19885 0.82464-0.88897 1.3452-0.68428 0.52052-1.6376 0.52052-0.95331 0-1.6434-0.52052-0.68428-0.52051-0.88312-1.3452-0.09358-0.3977-0.09358-1.2223z" style="font-feature-settings:normal;font-variant-caps:normal;font-variant-ligatures:normal;font-variant-numeric:normal"/>
   <path id="path1341" d="m93.607 176.17v2.3862h0.36261q0.50297 0 0.73106-0.0468 0.3977-0.0819 0.63164-0.39185 0.23979-0.30997 0.23979-0.75446 0-0.44448-0.23979-0.75445-0.23394-0.30998-0.63164-0.39185-0.22809-0.0468-0.73106-0.0468zm-1.4972-1.4036h1.8481q0.86558 0 1.234 0.0877 0.83049 0.19885 1.351 0.87143 0.52637 0.66673 0.52637 1.6376 0 0.97086-0.52637 1.6434-0.52052 0.66673-1.351 0.86558-0.36846 0.0877-1.234 0.0877h-0.35091v3.0412h-1.4972z" style="font-feature-settings:normal;font-variant-caps:normal;font-variant-ligatures:normal;font-variant-numeric:normal"/>
  </g>
  <g id="text1278" fill="#fff" stroke-width=".22458" aria-label="TOOLS">
   <path id="path1344" d="m102.96 174.76v1.4036h-1.8715v6.831h-1.4972v-6.831h-1.8715v-1.4036z" style="font-feature-settings:normal;font-variant-caps:normal;font-variant-ligatures:normal;font-variant-numeric:normal"/>
   <path id="path1346" d="m105.19 177.37q-0.0877 0.47958-0.0877 1.5089 0 1.0293 0.0877 1.5089 0.10528 0.56731 0.38601 0.93576 0.28657 0.36261 0.74276 0.36261 0.45618 0 0.73691-0.36261 0.28658-0.36845 0.39185-0.93576 0.0877-0.48543 0.0877-1.5089 0-1.0293-0.0877-1.5089-0.10527-0.56731-0.39185-0.92991-0.28073-0.36846-0.73691-0.36846-0.45619 0-0.74276 0.36846-0.28073 0.3626-0.38601 0.92991zm-1.4212 3.55q-0.16376-0.64918-0.16376-2.0411 0-1.3919 0.16376-2.0411 0.23394-0.94746 0.88312-1.5557 0.64919-0.61409 1.6668-0.61409t1.6668 0.61409q0.64919 0.60825 0.88313 1.5557 0.16375 0.64918 0.16375 2.0411 0 1.392-0.16375 2.0411-0.23394 0.94746-0.88313 1.5616-0.64918 0.60824-1.6668 0.60824t-1.6668-0.60824q-0.64918-0.6141-0.88312-1.5616z" style="font-feature-settings:normal;font-variant-caps:normal;font-variant-ligatures:normal;font-variant-numeric:normal"/>
   <path id="path1348" d="m111.18 177.37q-0.0877 0.47958-0.0877 1.5089 0 1.0293 0.0877 1.5089 0.10527 0.56731 0.386 0.93576 0.28658 0.36261 0.74276 0.36261t0.73691-0.36261q0.28658-0.36845 0.39185-0.93576 0.0877-0.48543 0.0877-1.5089 0-1.0293-0.0877-1.5089-0.10527-0.56731-0.39185-0.92991-0.28073-0.36846-0.73691-0.36846t-0.74276 0.36846q-0.28073 0.3626-0.386 0.92991zm-1.4212 3.55q-0.16376-0.64918-0.16376-2.0411 0-1.3919 0.16376-2.0411 0.23394-0.94746 0.88313-1.5557 0.64918-0.61409 1.6668-0.61409t1.6668 0.61409q0.64919 0.60825 0.88313 1.5557 0.16376 0.64918 0.16376 2.0411 0 1.392-0.16376 2.0411-0.23394 0.94746-0.88313 1.5616-0.64918 0.60824-1.6668 0.60824t-1.6668-0.60824q-0.64919-0.6141-0.88313-1.5616z" style="font-feature-settings:normal;font-variant-caps:normal;font-variant-ligatures:normal;font-variant-numeric:normal"/>
   <path id="path1350" d="m116.04 183v-8.2347h1.4972v6.831h3.3687v1.4036z" style="font-feature-settings:normal;font-variant-caps:normal;font-variant-ligatures:normal;font-variant-numeric:normal"/>
   <path id="path1352" d="m124.15 183.09q-0.95916 0-2.164-0.18715v-1.427q1.4095 0.21055 2.164 0.21055 1.041 0 1.041-1.1112 0-0.30997-0.15206-0.58485-0.14621-0.28073-0.41524-0.386-0.16961-0.0643-0.46789-0.10527-0.29827-0.0409-0.61409-0.11697-0.30997-0.0819-0.59655-0.25149-1.0995-0.65503-1.0995-2.0704 0-1.0118 0.64334-1.7019 0.64918-0.69012 1.661-0.69012 0.78954 0 2.1639 0.14621v1.4095q-1.4212-0.15206-2.1639-0.15206-0.22225 0-0.39185 0.0994-0.16376 0.0994-0.25149 0.25733-0.0877 0.15791-0.12867 0.32167-0.0351 0.16376-0.0351 0.32167 0 0.69012 0.46788 0.90067 0.15206 0.0702 0.69013 0.15791 0.54391 0.0819 0.87727 0.25733 0.46788 0.23979 0.77201 0.61994 0.30412 0.38015 0.42109 0.76616 0.11697 0.386 0.11697 0.80124 0 1.1346-0.70182 1.8247-0.70182 0.69012-1.8364 0.69012z" style="font-feature-settings:normal;font-variant-caps:normal;font-variant-ligatures:normal;font-variant-numeric:normal"/>
  </g>
 </g>
</svg>
