<?xml version="1.0" encoding="UTF-8" standalone="no"?>
<svg
   xmlns:dc="http://purl.org/dc/elements/1.1/"
   xmlns:cc="http://creativecommons.org/ns#"
   xmlns:rdf="http://www.w3.org/1999/02/22-rdf-syntax-ns#"
   xmlns:svg="http://www.w3.org/2000/svg"
   xmlns="http://www.w3.org/2000/svg"
   id="svg1021"
   version="1.1"
   viewBox="0 0 59.489777 9.2218504"
   height="9.2218504mm"
   width="59.489777mm">
  <defs
     id="defs1015" />
  <metadata
     id="metadata1018">
    <rdf:RDF>
      <cc:Work
         rdf:about="">
        <dc:format>image/svg+xml</dc:format>
        <dc:type
           rdf:resource="http://purl.org/dc/dcmitype/StillImage" />
        <dc:title></dc:title>
      </cc:Work>
    </rdf:RDF>
  </metadata>
  <g
     transform="translate(-25.477144,-102.59162)"
     id="layer1">
    <g
       transform="translate(0,-23.386941)"
       id="g1747">
      <g
         aria-label="SETUP"
         style="font-style:normal;font-weight:normal;font-size:8.98330784px;line-height:1.25;font-family:sans-serif;letter-spacing:0px;word-spacing:0px;fill:#336790;fill-opacity:1;stroke:none;stroke-width:0.22458273"
         id="text1023">
        <path
           d="m 28.181456,134.80041 q -0.959155,0 -2.163948,-0.18715 v -1.42704 q 1.40949,0.21055 2.163948,0.21055 1.041034,0 1.041034,-1.11122 0,-0.30997 -0.152061,-0.58485 -0.146213,-0.28073 -0.415244,-0.386 -0.169607,-0.0643 -0.467881,-0.10527 -0.298274,-0.0409 -0.614093,-0.11697 -0.309971,-0.0819 -0.596548,-0.25149 -1.099519,-0.65503 -1.099519,-2.07037 0,-1.01179 0.643336,-1.70192 0.649184,-0.69012 1.660976,-0.69012 0.789548,0 2.163948,0.14621 v 1.40949 q -1.421188,-0.15206 -2.163948,-0.15206 -0.222243,0 -0.39185,0.0994 -0.163758,0.0994 -0.251486,0.25734 -0.08773,0.15791 -0.128667,0.32167 -0.03509,0.16375 -0.03509,0.32166 0,0.69013 0.46788,0.90067 0.152062,0.0702 0.690124,0.15791 0.543912,0.0819 0.877276,0.25734 0.467881,0.23979 0.772004,0.61994 0.304122,0.38015 0.421092,0.76616 0.11697,0.386 0.11697,0.80124 0,1.13461 -0.701821,1.82474 -0.701821,0.69012 -1.836431,0.69012 z"
           style="font-style:normal;font-variant:normal;font-weight:bold;font-stretch:normal;font-size:8.98330784px;font-family:Monoid;-inkscape-font-specification:'Monoid Bold';font-variant-ligatures:normal;font-variant-caps:normal;font-variant-numeric:normal;font-feature-settings:normal;text-align:start;writing-mode:lr-tb;text-anchor:start;fill:#336790;fill-opacity:1;stroke-width:0.22458273"
           id="path1713" />
        <path
           d="m 32.035622,126.47213 h 4.491654 v 1.40365 H 33.53284 v 1.98849 h 2.245827 v 1.40364 H 33.53284 v 2.03528 h 2.994436 v 1.40364 h -4.491654 z"
           style="font-style:normal;font-variant:normal;font-weight:bold;font-stretch:normal;font-size:8.98330784px;font-family:Monoid;-inkscape-font-specification:'Monoid Bold';font-variant-ligatures:normal;font-variant-caps:normal;font-variant-numeric:normal;font-feature-settings:normal;text-align:start;writing-mode:lr-tb;text-anchor:start;fill:#336790;fill-opacity:1;stroke-width:0.22458273"
           id="path1715" />
        <path
           d="m 42.884604,126.47213 v 1.40365 h -1.871523 v 6.83105 h -1.497218 v -6.83105 h -1.871522 v -1.40365 z"
           style="font-style:normal;font-variant:normal;font-weight:bold;font-stretch:normal;font-size:8.98330784px;font-family:Monoid;-inkscape-font-specification:'Monoid Bold';font-variant-ligatures:normal;font-variant-caps:normal;font-variant-numeric:normal;font-feature-settings:normal;text-align:start;writing-mode:lr-tb;text-anchor:start;fill:#336790;fill-opacity:1;stroke-width:0.22458273"
           id="path1717" />
        <path
           d="m 43.627365,126.47213 h 1.497218 v 5.24027 q 0,0.54976 0.04094,0.74861 0.08773,0.42109 0.374305,0.67842 0.292425,0.25734 0.707669,0.25734 0.415244,0 0.701821,-0.25734 0.292425,-0.25733 0.380153,-0.67842 0.04094,-0.19885 0.04094,-0.74861 v -5.24027 h 1.497218 v 5.24027 q 0,0.82464 -0.09358,1.22234 -0.198849,0.82463 -0.888973,1.34515 -0.684275,0.52052 -1.637582,0.52052 -0.953307,0 -1.643431,-0.52052 -0.684275,-0.52052 -0.883124,-1.34515 -0.09358,-0.3977 -0.09358,-1.22234 z"
           style="font-style:normal;font-variant:normal;font-weight:bold;font-stretch:normal;font-size:8.98330784px;font-family:Monoid;-inkscape-font-specification:'Monoid Bold';font-variant-ligatures:normal;font-variant-caps:normal;font-variant-numeric:normal;font-feature-settings:normal;text-align:start;writing-mode:lr-tb;text-anchor:start;fill:#336790;fill-opacity:1;stroke-width:0.22458273"
           id="path1719" />
        <path
           d="m 51.48191,127.87578 v 2.38619 h 0.362607 q 0.502972,0 0.731064,-0.0468 0.397698,-0.0819 0.631638,-0.39185 0.239789,-0.30997 0.239789,-0.75446 0,-0.44449 -0.239789,-0.75446 -0.23394,-0.30997 -0.631638,-0.39185 -0.228092,-0.0468 -0.731064,-0.0468 z m -1.497218,-1.40365 h 1.848128 q 0.865579,0 1.234035,0.0877 0.830488,0.19885 1.351006,0.87143 0.526365,0.66673 0.526365,1.63758 0,0.97085 -0.526365,1.64343 -0.520518,0.66673 -1.351006,0.86558 -0.368456,0.0877 -1.234035,0.0877 h -0.35091 v 3.04122 h -1.497218 z"
           style="font-style:normal;font-variant:normal;font-weight:bold;font-stretch:normal;font-size:8.98330784px;font-family:Monoid;-inkscape-font-specification:'Monoid Bold';font-variant-ligatures:normal;font-variant-caps:normal;font-variant-numeric:normal;font-feature-settings:normal;text-align:start;writing-mode:lr-tb;text-anchor:start;fill:#336790;fill-opacity:1;stroke-width:0.22458273"
           id="path1721" />
      </g>
      <g
         aria-label="TOOLS"
         style="font-style:normal;font-weight:normal;font-size:8.98330784px;line-height:1.25;font-family:sans-serif;letter-spacing:0px;word-spacing:0px;fill:#e5b62f;fill-opacity:1;stroke:none;stroke-width:0.22458273"
         id="text1661">
        <path
           d="m 60.833675,126.47213 v 1.40365 h -1.871523 v 6.83105 h -1.497218 v -6.83105 h -1.871522 v -1.40365 z"
           style="font-style:normal;font-variant:normal;font-weight:bold;font-stretch:normal;font-size:8.98330784px;font-family:Monoid;-inkscape-font-specification:'Monoid Bold';font-variant-ligatures:normal;font-variant-caps:normal;font-variant-numeric:normal;font-feature-settings:normal;text-align:start;writing-mode:lr-tb;text-anchor:start;fill:#e5b62f;fill-opacity:1;stroke-width:0.22458273"
           id="path1724" />
        <path
           d="m 63.067804,129.08057 q -0.08773,0.47958 -0.08773,1.50891 0,1.02934 0.08773,1.50892 0.105274,0.5673 0.386002,0.93576 0.286577,0.36261 0.74276,0.36261 0.456184,0 0.736912,-0.36261 0.286577,-0.36846 0.39185,-0.93576 0.08773,-0.48543 0.08773,-1.50892 0,-1.02933 -0.08773,-1.50891 -0.105273,-0.56731 -0.39185,-0.92991 -0.280728,-0.36846 -0.736912,-0.36846 -0.456183,0 -0.74276,0.36846 -0.280728,0.3626 -0.386002,0.92991 z m -1.421187,3.55004 q -0.163758,-0.64918 -0.163758,-2.04113 0,-1.39194 0.163758,-2.04113 0.23394,-0.94745 0.883125,-1.5557 0.649184,-0.61409 1.666824,-0.61409 1.017641,0 1.666825,0.61409 0.649185,0.60825 0.883125,1.5557 0.163758,0.64919 0.163758,2.04113 0,1.39195 -0.163758,2.04113 -0.23394,0.94746 -0.883125,1.56155 -0.649184,0.60825 -1.666825,0.60825 -1.01764,0 -1.666824,-0.60825 -0.649185,-0.61409 -0.883125,-1.56155 z"
           style="font-style:normal;font-variant:normal;font-weight:bold;font-stretch:normal;font-size:8.98330784px;font-family:Monoid;-inkscape-font-specification:'Monoid Bold';font-variant-ligatures:normal;font-variant-caps:normal;font-variant-numeric:normal;font-feature-settings:normal;text-align:start;writing-mode:lr-tb;text-anchor:start;fill:#e5b62f;fill-opacity:1;stroke-width:0.22458273"
           id="path1726" />
        <path
           d="m 69.050828,129.08057 q -0.08773,0.47958 -0.08773,1.50891 0,1.02934 0.08773,1.50892 0.105273,0.5673 0.386001,0.93576 0.286577,0.36261 0.742761,0.36261 0.456183,0 0.736912,-0.36261 0.286576,-0.36846 0.39185,-0.93576 0.08773,-0.48543 0.08773,-1.50892 0,-1.02933 -0.08773,-1.50891 -0.105274,-0.56731 -0.39185,-0.92991 -0.280729,-0.36846 -0.736912,-0.36846 -0.456184,0 -0.742761,0.36846 -0.280728,0.3626 -0.386001,0.92991 z m -1.421188,3.55004 q -0.163758,-0.64918 -0.163758,-2.04113 0,-1.39194 0.163758,-2.04113 0.233941,-0.94745 0.883125,-1.5557 0.649184,-0.61409 1.666825,-0.61409 1.01764,0 1.666824,0.61409 0.649185,0.60825 0.883125,1.5557 0.163758,0.64919 0.163758,2.04113 0,1.39195 -0.163758,2.04113 -0.23394,0.94746 -0.883125,1.56155 -0.649184,0.60825 -1.666824,0.60825 -1.017641,0 -1.666825,-0.60825 -0.649184,-0.61409 -0.883125,-1.56155 z"
           style="font-style:normal;font-variant:normal;font-weight:bold;font-stretch:normal;font-size:8.98330784px;font-family:Monoid;-inkscape-font-specification:'Monoid Bold';font-variant-ligatures:normal;font-variant-caps:normal;font-variant-numeric:normal;font-feature-settings:normal;text-align:start;writing-mode:lr-tb;text-anchor:start;fill:#e5b62f;fill-opacity:1;stroke-width:0.22458273"
           id="path1728" />
        <path
           d="m 73.916786,134.70683 v -8.2347 h 1.497218 v 6.83106 h 3.368741 v 1.40364 z"
           style="font-style:normal;font-variant:normal;font-weight:bold;font-stretch:normal;font-size:8.98330784px;font-family:Monoid;-inkscape-font-specification:'Monoid Bold';font-variant-ligatures:normal;font-variant-caps:normal;font-variant-numeric:normal;font-feature-settings:normal;text-align:start;writing-mode:lr-tb;text-anchor:start;fill:#e5b62f;fill-opacity:1;stroke-width:0.22458273"
           id="path1730" />
        <path
           d="m 82.028666,134.80041 q -0.959155,0 -2.163948,-0.18715 v -1.42704 q 1.40949,0.21055 2.163948,0.21055 1.041034,0 1.041034,-1.11122 0,-0.30997 -0.152061,-0.58485 -0.146213,-0.28073 -0.415244,-0.386 -0.169607,-0.0643 -0.467881,-0.10527 -0.298274,-0.0409 -0.614093,-0.11697 -0.309971,-0.0819 -0.596548,-0.25149 -1.099519,-0.65503 -1.099519,-2.07037 0,-1.01179 0.643336,-1.70192 0.649184,-0.69012 1.660976,-0.69012 0.789548,0 2.163948,0.14621 v 1.40949 q -1.421188,-0.15206 -2.163948,-0.15206 -0.222243,0 -0.39185,0.0994 -0.163758,0.0994 -0.251486,0.25734 -0.08773,0.15791 -0.128667,0.32167 -0.03509,0.16375 -0.03509,0.32166 0,0.69013 0.46788,0.90067 0.152062,0.0702 0.690124,0.15791 0.543911,0.0819 0.877276,0.25734 0.467881,0.23979 0.772003,0.61994 0.304123,0.38015 0.421093,0.76616 0.11697,0.386 0.11697,0.80124 0,1.13461 -0.701821,1.82474 -0.701821,0.69012 -1.836431,0.69012 z"
           style="font-style:normal;font-variant:normal;font-weight:bold;font-stretch:normal;font-size:8.98330784px;font-family:Monoid;-inkscape-font-specification:'Monoid Bold';font-variant-ligatures:normal;font-variant-caps:normal;font-variant-numeric:normal;font-feature-settings:normal;text-align:start;writing-mode:lr-tb;text-anchor:start;fill:#e5b62f;fill-opacity:1;stroke-width:0.22458273"
           id="path1732" />
      </g>
    </g>
  </g>
</svg>
