<?xml version="1.0" encoding="UTF-8"?>
<svg id="svg1021" width="192" height="192" version="1.1" viewBox="0 0 50.8 50.8" xmlns="http://www.w3.org/2000/svg" xmlns:cc="http://creativecommons.org/ns#" xmlns:dc="http://purl.org/dc/elements/1.1/" xmlns:rdf="http://www.w3.org/1999/02/22-rdf-syntax-ns#">
 <metadata id="metadata1018">
  <rdf:RDF>
   <cc:Work rdf:about="">
    <dc:format>image/svg+xml</dc:format>
    <dc:type rdf:resource="http://purl.org/dc/dcmitype/StillImage"/>
    <dc:title/>
   </cc:Work>
  </rdf:RDF>
 </metadata>
 <g id="layer1" transform="matrix(1.1479 0 0 1.1479 -37.991 -97.66)">
  <g id="g1769">
   <g id="g1751" transform="translate(.00014743 5.7013)">
    <path id="rect934" d="m56.864 87.986c-1.2455-0.01183-3.6018 0.03564-3.6018 0.03564-0.11429 0-0.20619 0.09589-0.20619 0.21498v1.4624h-2.1461v-1.4624c0-0.1191-0.0919-0.21498-0.20619-0.21498h-2.559c-0.11429 0-0.2067 0.09589-0.2067 0.21498v5.4188c0 0.1191 0.09235 0.21498 0.2067 0.21498h2.559c0.11429 0 0.20619-0.09587 0.20619-0.21498v-1.4619h2.1461v1.4619c0 0.1191 0.09191 0.21498 0.20619 0.21498h1.295v6.8952c-0.74253 0.29471-1.2656 1.0166-1.2656 1.8666v10.45c0 1.1133 0.89588 2.0092 2.0092 2.0092 1.1133 0 2.0097-0.89589 2.0097-2.0092v-10.45c0-0.84994-0.52302-1.5718-1.2656-1.8666v-6.8952h1.4025c0.2234-0.19668 0.4387-0.98538 1.6319-1.5885 3.2043-1.1007 4.5957 1.626 4.5713 1.2495-0.02611-0.40191-0.20364-2.9223-3.0014-4.4008-1.2189-0.54811-2.652-1.0866-3.0386-1.109-0.03989-0.02102-0.33157-0.03172-0.74672-0.03564z" fill="#e5b62f" stroke="#e5b62f" stroke-width=".47745" style="paint-order:markers fill stroke"/>
    <path id="path944" d="m59.665 79.605c-1.0993 0.01828-1.9696 0.47364-2.4975 0.8661-0.70383 0.52328-0.92957 0.82263-1.9942 0.82528-1.0646 0.0027-1.2909-0.2962-1.9973-0.81597-0.70642-0.51977-2.0227-1.1467-3.6726-0.70022-1.65 0.44651-2.47 1.6516-2.8179 2.4567-0.3479 0.80508-0.39346 1.1774-1.3141 1.712-0.92067 0.53461-1.2667 0.38993-2.1384 0.29301-0.87166-0.09692-2.3259 0.0172-3.5316 1.2289-1.2057 1.2117-1.3141 2.6671-1.2128 3.5383 0.10123 0.87118 0.24785 1.2161-0.28215 2.1394-0.53002 0.92331-0.90043 0.96999-1.7038 1.3219s-2.006 1.1771-2.4443 2.8293c-0.4383 1.6522 0.19712 2.9652 0.72037 3.669 0.52326 0.70383 0.82262 0.92957 0.82527 1.9942 0.0026 1.0646-0.29621 1.2904-0.81597 1.9968-0.51977 0.70643-1.1462 2.0227-0.6997 3.6726s1.6511 2.4705 2.4562 2.8184c0.80508 0.3479 1.1774 0.39347 1.712 1.3141 0.5346 0.92066 0.38993 1.2662 0.29301 2.1378-0.09692 0.87166 0.01712 2.3264 1.2289 3.5321 1.2117 1.2056 2.6671 1.311 3.5383 1.2098 0.87117-0.10126 1.2161-0.24477 2.1394 0.28525 0.92331 0.53002 0.96998 0.90043 1.3219 1.7038 0.3519 0.80334 1.1771 2.0055 2.8293 2.4438 1.6522 0.43829 3.678-0.39906 3.669-0.72037-0.0091-0.3213-1.3658 0.23152-2.7259-0.62425s-1.2623-1.3841-1.5622-2.0686c-0.29986-0.68453-0.83626-1.9698-2.3327-2.8288-1.4964-0.859-2.8761-0.67281-3.6184-0.58653-0.74233 0.0863-0.79194 0.23675-1.558-0.52555-0.7661-0.76231-0.6133-0.81116-0.53072-1.5539 0.08259-0.74275 0.26027-2.1221-0.60616-3.6142-0.86643-1.4921-2.1531-2.0228-2.8391-2.3192s-0.80341-0.18822-1.0857-1.2314-0.12923-1.0134 0.31368-1.6154c0.44289-0.60195 1.289-1.7064 1.2847-3.4318-0.0042-1.7254-0.85585-2.829-1.3017-3.4287-0.44588-0.59974-0.60063-0.56665-0.32349-1.6113 0.27712-1.0446 0.39654-0.93676 1.0811-1.2366 0.68454-0.29985 1.9698-0.83626 2.8288-2.3327 0.85899-1.4964 0.67281-2.8761 0.58653-3.6184-0.08624-0.74233-0.23624-0.79194 0.52606-1.558 0.76231-0.76611 0.81064-0.6164 1.5534-0.53382 0.74274 0.08258 2.1221 0.26337 3.6142-0.60306 1.4921-0.86643 2.0202-2.1531 2.3167-2.8391 0.29645-0.68602 0.19132-0.80341 1.2345-1.0857 1.0432-0.28231 1.0129-0.12921 1.6149 0.31368 0.60196 0.44289 1.7064 1.289 3.4318 1.2847 1.7254-0.0043 2.8259-0.85533 3.4256-1.3012 0.59974-0.44589 0.56717-0.60113 1.6118-0.32401 1.0446 0.27712 0.93934 0.39654 1.2392 1.0811 0.29986 0.68453 0.83678 1.9698 2.3332 2.8288 1.4964 0.859 2.8755 0.67332 3.6179 0.58704 0.74233-0.08628 0.79194-0.23676 1.558 0.52555 0.76611 0.7623 0.61382 0.81064 0.53124 1.5534-0.08258 0.74275-0.26078 2.1221 0.60565 3.6142 0.86643 1.4921 2.1531 2.0202 2.8391 2.3167 0.68602 0.29645 0.80392 0.19132 1.0862 1.2346 0.28231 1.0432 0.1287 1.0129-0.31419 1.6149-0.4429 0.60195-1.289 1.7064-1.2847 3.4318 0.0043 1.7254 0.85584 2.8259 1.3017 3.4256 0.44588 0.59974 0.60062 0.56717 0.3235 1.6118-0.27712 1.0446-0.39654 0.93986-1.0811 1.2397-0.68454 0.29985-1.9698 0.83626-2.8288 2.3327-0.859 1.4964-0.6728 2.8755-0.58653 3.6179 0.08628 0.74233 0.23676 0.79194-0.52555 1.558-0.76231 0.76611-0.81116 0.61382-1.5539 0.53124-0.74275-0.0826-2.1221-0.26027-3.6143 0.60616-1.4921 0.86644-2.0233 2.1531-2.3198 2.8391-0.24633 0.57005-0.22224 0.74776-0.80254 0.95343-0.08286-0.046-0.17925-0.0898-0.29352-0.1328-0.96214-0.36199-1.0882 0.12751-1.8779 0.71571-0.71013 0.52895-1.2184 0.5911-1.1886 1.2888-0.06706-7e-3 -0.13033-8e-3 -0.18087-2e-3 -0.16123 0.0187-0.22496 0.0454-0.39584-0.0527-0.17088-0.0981-0.1793-0.16656-0.24443-0.31522-0.06513-0.14868-0.21773-0.37158-0.52348-0.45269-0.30577-0.0811-0.6807 0.0739-0.67903 0.13332 0.0016 0.0594 0.25266-0.0426 0.50436 0.11576 0.25171 0.15837 0.23338 0.25624 0.28887 0.38292 0.05548 0.1267 0.15508 0.36451 0.43202 0.52349 0.27693 0.15896 0.53183 0.12449 0.66921 0.10851 0.1049-0.0122 0.13623-0.0302 0.20774 0.0243 0.21075 0.72266 0.72116 0.6429 1.6056 0.97565 0.96214 0.36199 1.2562 0.7975 2.0459 0.20929 0.57854-0.43092 0.52042-0.74207 0.38086-1.25 1.2857-0.53767 1.9604-1.5578 2.267-2.2676 0.3479-0.80508 0.39347-1.1769 1.3141-1.7115 0.92066-0.5346 1.2662-0.39043 2.1379-0.29351 0.87166 0.0969 2.3264-0.0167 3.5321-1.2284s1.3136-2.6676 1.2123-3.5388c-0.10126-0.87117-0.24735-1.2156 0.28267-2.1389 0.53002-0.92331 0.90043-0.9705 1.7038-1.3224 0.80334-0.35189 2.0055-1.1766 2.4438-2.8288 0.43829-1.6522-0.1971-2.9652-0.72037-3.669-0.52328-0.70383-0.82211-0.92957-0.82476-1.9942-0.0026-1.0646 0.2962-1.2909 0.81597-1.9973 0.51977-0.70642 1.1462-2.0227 0.6997-3.6726-0.4465-1.65-1.6516-2.47-2.4567-2.8179-0.80508-0.3479-1.1769-0.39346-1.7115-1.3141-0.5346-0.92066-0.39044-1.2667-0.29352-2.1384 0.09692-0.87167-0.0167-2.3259-1.2283-3.5316-1.2117-1.2056-2.6676-1.3141-3.5388-1.2128-0.87117 0.10126-1.2156 0.24786-2.1389-0.28215-0.92331-0.53002-0.9705-0.90044-1.3224-1.7038-0.3519-0.8033-1.1766-2.006-2.8288-2.4442-0.41304-0.10957-0.80507-0.15182-1.1715-0.14573z" fill="#336790" style="paint-order:markers fill stroke"/>
   </g>
  </g>
 </g>
</svg>
